<svg width="814" height="441" viewBox="0 0 814 441" fill="none" xmlns="http://www.w3.org/2000/svg">
<path fill-rule="evenodd" clip-rule="evenodd" d="M407.707 339.707C407.317 340.098 406.683 340.098 406.293 339.707L399.293 332.707C398.902 332.317 398.902 331.683 399.293 331.293C399.683 330.902 400.317 330.902 400.707 331.293L406 336.586L406 325C406 324.448 406.448 324 407 324C407.552 324 408 324.448 408 325L408 336.586L413.293 331.293C413.683 330.902 414.317 330.902 414.707 331.293C415.098 331.683 415.098 332.317 414.707 332.707L407.707 339.707Z" fill="white"/>
<path fill-rule="evenodd" clip-rule="evenodd" d="M407.707 253.707C407.317 254.098 406.683 254.098 406.293 253.707L399.293 246.707C398.902 246.317 398.902 245.683 399.293 245.293C399.683 244.902 400.317 244.902 400.707 245.293L406 250.586L406 239C406 238.448 406.448 238 407 238C407.552 238 408 238.448 408 239L408 250.586L413.293 245.293C413.683 244.902 414.317 244.902 414.707 245.293C415.098 245.683 415.098 246.317 414.707 246.707L407.707 253.707Z" fill="white"/>
<path fill-rule="evenodd" clip-rule="evenodd" d="M407.707 168.707C407.317 169.098 406.683 169.098 406.293 168.707L399.293 161.707C398.902 161.317 398.902 160.683 399.293 160.293C399.683 159.902 400.317 159.902 400.707 160.293L406 165.586L406 154C406 153.448 406.448 153 407 153C407.552 153 408 153.448 408 154L408 165.586L413.293 160.293C413.683 159.902 414.317 159.902 414.707 160.293C415.098 160.683 415.098 161.317 414.707 161.707L407.707 168.707Z" fill="white"/>
<path fill-rule="evenodd" clip-rule="evenodd" d="M407.707 84.7071C407.317 85.0976 406.683 85.0976 406.293 84.7071L399.293 77.7071C398.902 77.3166 398.902 76.6834 399.293 76.2929C399.683 75.9024 400.317 75.9024 400.707 76.2929L406 81.5858L406 70C406 69.4477 406.448 69 407 69C407.552 69 408 69.4477 408 70L408 81.5858L413.293 76.2929C413.683 75.9024 414.317 75.9024 414.707 76.2929C415.098 76.6834 415.098 77.3166 414.707 77.7071L407.707 84.7071Z" fill="white"/>
<g filter="url(#filter0_d_810_27)">
<path d="M330 20C330 14.4772 334.477 10 340 10H474C479.523 10 484 14.4772 484 20V46C484 51.5228 479.523 56 474 56H340C334.477 56 330 51.5228 330 46V20Z" fill="#E9EFF4"/>
</g>
<path d="M367.244 33.0999C367.244 32.1386 367.459 31.2799 367.888 30.5239C368.327 29.7586 368.919 29.1659 369.666 28.7459C370.422 28.3166 371.267 28.1019 372.2 28.1019C373.292 28.1019 374.249 28.3819 375.07 28.9419C375.891 29.5019 376.465 30.2766 376.792 31.2659H374.538C374.314 30.7992 373.997 30.4492 373.586 30.2159C373.185 29.9826 372.718 29.8659 372.186 29.8659C371.617 29.8659 371.108 30.0012 370.66 30.2719C370.221 30.5332 369.876 30.9066 369.624 31.3919C369.381 31.8772 369.26 32.4466 369.26 33.0999C369.26 33.7439 369.381 34.3132 369.624 34.8079C369.876 35.2932 370.221 35.6712 370.66 35.9419C371.108 36.2032 371.617 36.3339 372.186 36.3339C372.718 36.3339 373.185 36.2172 373.586 35.9839C373.997 35.7412 374.314 35.3866 374.538 34.9199H376.792C376.465 35.9186 375.891 36.6979 375.07 37.2579C374.258 37.8086 373.301 38.0839 372.2 38.0839C371.267 38.0839 370.422 37.8739 369.666 37.4539C368.919 37.0246 368.327 36.4319 367.888 35.6759C367.459 34.9199 367.244 34.0612 367.244 33.0999Z" fill="#8A8EAC"/>
<path d="M383.002 38.0979C382.087 38.0979 381.247 37.8832 380.482 37.4539C379.717 37.0246 379.11 36.4319 378.662 35.6759C378.214 34.9106 377.99 34.0472 377.99 33.0859C377.99 32.1339 378.214 31.2799 378.662 30.5239C379.11 29.7586 379.717 29.1612 380.482 28.7319C381.247 28.3026 382.087 28.0879 383.002 28.0879C383.926 28.0879 384.766 28.3026 385.522 28.7319C386.287 29.1612 386.889 29.7586 387.328 30.5239C387.776 31.2799 388 32.1339 388 33.0859C388 34.0472 387.776 34.9106 387.328 35.6759C386.889 36.4319 386.287 37.0246 385.522 37.4539C384.757 37.8832 383.917 38.0979 383.002 38.0979ZM383.002 36.3479C383.59 36.3479 384.108 36.2172 384.556 35.9559C385.004 35.6852 385.354 35.3026 385.606 34.8079C385.858 34.3132 385.984 33.7392 385.984 33.0859C385.984 32.4326 385.858 31.8632 385.606 31.3779C385.354 30.8832 385.004 30.5052 384.556 30.2439C384.108 29.9826 383.59 29.8519 383.002 29.8519C382.414 29.8519 381.891 29.9826 381.434 30.2439C380.986 30.5052 380.636 30.8832 380.384 31.3779C380.132 31.8632 380.006 32.4326 380.006 33.0859C380.006 33.7392 380.132 34.3132 380.384 34.8079C380.636 35.3026 380.986 35.6852 381.434 35.9559C381.891 36.2172 382.414 36.3479 383.002 36.3479Z" fill="#8A8EAC"/>
<path d="M394.498 37.9999L392.342 34.1919H391.418V37.9999H389.458V28.2279H393.126C393.882 28.2279 394.526 28.3632 395.058 28.6339C395.59 28.8952 395.987 29.2546 396.248 29.7119C396.519 30.1599 396.654 30.6639 396.654 31.2239C396.654 31.8679 396.468 32.4512 396.094 32.9739C395.721 33.4872 395.166 33.8419 394.428 34.0379L396.766 37.9999H394.498ZM391.418 32.7219H393.056C393.588 32.7219 393.985 32.5959 394.246 32.3439C394.508 32.0826 394.638 31.7232 394.638 31.2659C394.638 30.8179 394.508 30.4726 394.246 30.2299C393.985 29.9779 393.588 29.8519 393.056 29.8519H391.418V32.7219Z" fill="#8A8EAC"/>
<path d="M400.387 29.8099V32.2599H403.677V33.8139H400.387V36.4039H404.097V37.9999H398.427V28.2139H404.097V29.8099H400.387Z" fill="#8A8EAC"/>
<path d="M412.588 38.0979C411.907 38.0979 411.291 37.9812 410.74 37.7479C410.199 37.5146 409.769 37.1786 409.452 36.7399C409.135 36.3012 408.971 35.7832 408.962 35.1859H411.062C411.09 35.5872 411.23 35.9046 411.482 36.1379C411.743 36.3712 412.098 36.4879 412.546 36.4879C413.003 36.4879 413.363 36.3806 413.624 36.1659C413.885 35.9419 414.016 35.6526 414.016 35.2979C414.016 35.0086 413.927 34.7706 413.75 34.5839C413.573 34.3972 413.349 34.2526 413.078 34.1499C412.817 34.0379 412.453 33.9166 411.986 33.7859C411.351 33.5992 410.833 33.4172 410.432 33.2399C410.04 33.0532 409.699 32.7779 409.41 32.4139C409.13 32.0406 408.99 31.5459 408.99 30.9299C408.99 30.3512 409.135 29.8472 409.424 29.4179C409.713 28.9886 410.119 28.6619 410.642 28.4379C411.165 28.2046 411.762 28.0879 412.434 28.0879C413.442 28.0879 414.259 28.3352 414.884 28.8299C415.519 29.3152 415.869 29.9966 415.934 30.8739H413.778C413.759 30.5379 413.615 30.2626 413.344 30.0479C413.083 29.8239 412.733 29.7119 412.294 29.7119C411.911 29.7119 411.603 29.8099 411.37 30.0059C411.146 30.2019 411.034 30.4866 411.034 30.8599C411.034 31.1212 411.118 31.3406 411.286 31.5179C411.463 31.6859 411.678 31.8259 411.93 31.9379C412.191 32.0406 412.555 32.1619 413.022 32.3019C413.657 32.4886 414.175 32.6752 414.576 32.8619C414.977 33.0486 415.323 33.3286 415.612 33.7019C415.901 34.0752 416.046 34.5652 416.046 35.1719C416.046 35.6946 415.911 36.1799 415.64 36.6279C415.369 37.0759 414.973 37.4352 414.45 37.7059C413.927 37.9672 413.307 38.0979 412.588 38.0979Z" fill="#8A8EAC"/>
<path d="M419.705 29.8099V32.2599H422.995V33.8139H419.705V36.4039H423.415V37.9999H417.745V28.2139H423.415V29.8099H419.705Z" fill="#8A8EAC"/>
<path d="M430.236 37.9999L428.08 34.1919H427.156V37.9999H425.196V28.2279H428.864C429.62 28.2279 430.264 28.3632 430.796 28.6339C431.328 28.8952 431.725 29.2546 431.986 29.7119C432.257 30.1599 432.392 30.6639 432.392 31.2239C432.392 31.8679 432.206 32.4512 431.832 32.9739C431.459 33.4872 430.904 33.8419 430.166 34.0379L432.504 37.9999H430.236ZM427.156 32.7219H428.794C429.326 32.7219 429.723 32.5959 429.984 32.3439C430.246 32.0826 430.376 31.7232 430.376 31.2659C430.376 30.8179 430.246 30.4726 429.984 30.2299C429.723 29.9779 429.326 29.8519 428.794 29.8519H427.156V32.7219Z" fill="#8A8EAC"/>
<path d="M442.943 28.2279L439.359 37.9999H436.979L433.395 28.2279H435.495L438.183 35.9979L440.857 28.2279H442.943Z" fill="#8A8EAC"/>
<path d="M446.078 28.2279V37.9999H444.118V28.2279H446.078Z" fill="#8A8EAC"/>
<path d="M447.539 33.0999C447.539 32.1386 447.753 31.2799 448.183 30.5239C448.621 29.7586 449.214 29.1659 449.961 28.7459C450.717 28.3166 451.561 28.1019 452.495 28.1019C453.587 28.1019 454.543 28.3819 455.365 28.9419C456.186 29.5019 456.76 30.2766 457.087 31.2659H454.833C454.609 30.7992 454.291 30.4492 453.881 30.2159C453.479 29.9826 453.013 29.8659 452.481 29.8659C451.911 29.8659 451.403 30.0012 450.955 30.2719C450.516 30.5332 450.171 30.9066 449.919 31.3919C449.676 31.8772 449.555 32.4466 449.555 33.0999C449.555 33.7439 449.676 34.3132 449.919 34.8079C450.171 35.2932 450.516 35.6712 450.955 35.9419C451.403 36.2032 451.911 36.3339 452.481 36.3339C453.013 36.3339 453.479 36.2172 453.881 35.9839C454.291 35.7412 454.609 35.3866 454.833 34.9199H457.087C456.76 35.9186 456.186 36.6979 455.365 37.2579C454.553 37.8086 453.596 38.0839 452.495 38.0839C451.561 38.0839 450.717 37.8739 449.961 37.4539C449.214 37.0246 448.621 36.4319 448.183 35.6759C447.753 34.9199 447.539 34.0612 447.539 33.0999Z" fill="#8A8EAC"/>
<path d="M460.721 29.8099V32.2599H464.011V33.8139H460.721V36.4039H464.431V37.9999H458.761V28.2139H464.431V29.8099H460.721Z" fill="#8A8EAC"/>
<g filter="url(#filter1_d_810_27)">
<path d="M360 33C360 36.3137 357.314 39 354 39C350.686 39 348 36.3137 348 33C348 29.6863 350.686 27 354 27C357.314 27 360 29.6863 360 33Z" fill="#7EEA88"/>
</g>
<g filter="url(#filter2_d_810_27)">
<path d="M330 105C330 99.4772 334.477 95 340 95H474C479.523 95 484 99.4772 484 105V131C484 136.523 479.523 141 474 141H340C334.477 141 330 136.523 330 131V105Z" fill="#E9EFF4"/>
</g>
<path d="M382.15 113.228V123H380.19V118.842H376.004V123H374.044V113.228H376.004V117.246H380.19V113.228H382.15Z" fill="#8A8EAC"/>
<path d="M390.071 121.138H386.179L385.535 123H383.477L386.991 113.214H389.273L392.787 123H390.715L390.071 121.138ZM389.539 119.57L388.125 115.482L386.711 119.57H389.539Z" fill="#8A8EAC"/>
<path d="M399.141 123L396.985 119.192H396.061V123H394.101V113.228H397.769C398.525 113.228 399.169 113.363 399.701 113.634C400.233 113.895 400.629 114.255 400.891 114.712C401.161 115.16 401.297 115.664 401.297 116.224C401.297 116.868 401.11 117.451 400.737 117.974C400.363 118.487 399.808 118.842 399.071 119.038L401.409 123H399.141ZM396.061 117.722H397.699C398.231 117.722 398.627 117.596 398.889 117.344C399.15 117.083 399.281 116.723 399.281 116.266C399.281 115.818 399.15 115.473 398.889 115.23C398.627 114.978 398.231 114.852 397.699 114.852H396.061V117.722Z" fill="#8A8EAC"/>
<path d="M406.486 113.228C407.512 113.228 408.413 113.429 409.188 113.83C409.972 114.231 410.574 114.805 410.994 115.552C411.423 116.289 411.638 117.148 411.638 118.128C411.638 119.108 411.423 119.967 410.994 120.704C410.574 121.432 409.972 121.997 409.188 122.398C408.413 122.799 407.512 123 406.486 123H403.07V113.228H406.486ZM406.416 121.334C407.442 121.334 408.236 121.054 408.796 120.494C409.356 119.934 409.636 119.145 409.636 118.128C409.636 117.111 409.356 116.317 408.796 115.748C408.236 115.169 407.442 114.88 406.416 114.88H405.03V121.334H406.416Z" fill="#8A8EAC"/>
<path d="M426.167 113.228L423.437 123H421.127L419.293 116.042L417.375 123L415.079 123.014L412.447 113.228H414.547L416.269 120.816L418.257 113.228H420.441L422.317 120.774L424.053 113.228H426.167Z" fill="#8A8EAC"/>
<path d="M433.439 121.138H429.547L428.903 123H426.845L430.359 113.214H432.641L436.155 123H434.083L433.439 121.138ZM432.907 119.57L431.493 115.482L430.079 119.57H432.907Z" fill="#8A8EAC"/>
<path d="M442.508 123L440.352 119.192H439.428V123H437.468V113.228H441.136C441.892 113.228 442.536 113.363 443.068 113.634C443.6 113.895 443.997 114.255 444.258 114.712C444.529 115.16 444.664 115.664 444.664 116.224C444.664 116.868 444.477 117.451 444.104 117.974C443.731 118.487 443.175 118.842 442.438 119.038L444.776 123H442.508ZM439.428 117.722H441.066C441.598 117.722 441.995 117.596 442.256 117.344C442.517 117.083 442.648 116.723 442.648 116.266C442.648 115.818 442.517 115.473 442.256 115.23C441.995 114.978 441.598 114.852 441.066 114.852H439.428V117.722Z" fill="#8A8EAC"/>
<path d="M448.397 114.81V117.26H451.687V118.814H448.397V121.404H452.107V123H446.437V113.214H452.107V114.81H448.397Z" fill="#8A8EAC"/>
<g filter="url(#filter3_d_810_27)">
<path d="M366 118C366 121.314 363.314 124 360 124C356.686 124 354 121.314 354 118C354 114.686 356.686 112 360 112C363.314 112 366 114.686 366 118Z" fill="#7EEA88"/>
</g>
<g filter="url(#filter4_d_810_27)">
<path d="M330 190C330 184.477 334.477 180 340 180H474C479.523 180 484 184.477 484 190V216C484 221.523 479.523 226 474 226H340C334.477 226 330 221.523 330 216V190Z" fill="#E9EFF4"/>
</g>
<path d="M382.662 208.098C381.981 208.098 381.365 207.981 380.814 207.748C380.273 207.515 379.844 207.179 379.526 206.74C379.209 206.301 379.046 205.783 379.036 205.186H381.136C381.164 205.587 381.304 205.905 381.556 206.138C381.818 206.371 382.172 206.488 382.62 206.488C383.078 206.488 383.437 206.381 383.698 206.166C383.96 205.942 384.09 205.653 384.09 205.298C384.09 205.009 384.002 204.771 383.824 204.584C383.647 204.397 383.423 204.253 383.152 204.15C382.891 204.038 382.527 203.917 382.06 203.786C381.426 203.599 380.908 203.417 380.506 203.24C380.114 203.053 379.774 202.778 379.484 202.414C379.204 202.041 379.064 201.546 379.064 200.93C379.064 200.351 379.209 199.847 379.498 199.418C379.788 198.989 380.194 198.662 380.716 198.438C381.239 198.205 381.836 198.088 382.508 198.088C383.516 198.088 384.333 198.335 384.958 198.83C385.593 199.315 385.943 199.997 386.008 200.874H383.852C383.834 200.538 383.689 200.263 383.418 200.048C383.157 199.824 382.807 199.712 382.368 199.712C381.986 199.712 381.678 199.81 381.444 200.006C381.22 200.202 381.108 200.487 381.108 200.86C381.108 201.121 381.192 201.341 381.36 201.518C381.538 201.686 381.752 201.826 382.004 201.938C382.266 202.041 382.63 202.162 383.096 202.302C383.731 202.489 384.249 202.675 384.65 202.862C385.052 203.049 385.397 203.329 385.686 203.702C385.976 204.075 386.12 204.565 386.12 205.172C386.12 205.695 385.985 206.18 385.714 206.628C385.444 207.076 385.047 207.435 384.524 207.706C384.002 207.967 383.381 208.098 382.662 208.098Z" fill="#8A8EAC"/>
<path d="M389.78 199.81V202.26H393.07V203.814H389.78V206.404H393.49V208H387.82V198.214H393.49V199.81H389.78Z" fill="#8A8EAC"/>
<path d="M400.311 208L398.155 204.192H397.231V208H395.271V198.228H398.939C399.695 198.228 400.339 198.363 400.871 198.634C401.403 198.895 401.799 199.255 402.061 199.712C402.331 200.16 402.467 200.664 402.467 201.224C402.467 201.868 402.28 202.451 401.907 202.974C401.533 203.487 400.978 203.842 400.241 204.038L402.579 208H400.311ZM397.231 202.722H398.869C399.401 202.722 399.797 202.596 400.059 202.344C400.32 202.083 400.451 201.723 400.451 201.266C400.451 200.818 400.32 200.473 400.059 200.23C399.797 199.978 399.401 199.852 398.869 199.852H397.231V202.722Z" fill="#8A8EAC"/>
<path d="M413.018 198.228L409.434 208H407.054L403.47 198.228H405.57L408.258 205.998L410.932 198.228H413.018Z" fill="#8A8EAC"/>
<path d="M416.153 198.228V208H414.193V198.228H416.153Z" fill="#8A8EAC"/>
<path d="M417.613 203.1C417.613 202.139 417.828 201.28 418.257 200.524C418.696 199.759 419.288 199.166 420.035 198.746C420.791 198.317 421.636 198.102 422.569 198.102C423.661 198.102 424.618 198.382 425.439 198.942C426.26 199.502 426.834 200.277 427.161 201.266H424.907C424.683 200.799 424.366 200.449 423.955 200.216C423.554 199.983 423.087 199.866 422.555 199.866C421.986 199.866 421.477 200.001 421.029 200.272C420.59 200.533 420.245 200.907 419.993 201.392C419.75 201.877 419.629 202.447 419.629 203.1C419.629 203.744 419.75 204.313 419.993 204.808C420.245 205.293 420.59 205.671 421.029 205.942C421.477 206.203 421.986 206.334 422.555 206.334C423.087 206.334 423.554 206.217 423.955 205.984C424.366 205.741 424.683 205.387 424.907 204.92H427.161C426.834 205.919 426.26 206.698 425.439 207.258C424.627 207.809 423.67 208.084 422.569 208.084C421.636 208.084 420.791 207.874 420.035 207.454C419.288 207.025 418.696 206.432 418.257 205.676C417.828 204.92 417.613 204.061 417.613 203.1Z" fill="#8A8EAC"/>
<path d="M430.795 199.81V202.26H434.085V203.814H430.795V206.404H434.505V208H428.835V198.214H434.505V199.81H430.795Z" fill="#8A8EAC"/>
<path d="M445.614 206.138H441.722L441.078 208H439.02L442.534 198.214H444.816L448.33 208H446.258L445.614 206.138ZM445.082 204.57L443.668 200.482L442.254 204.57H445.082Z" fill="#8A8EAC"/>
<g filter="url(#filter5_d_810_27)">
<path d="M371 203C371 206.314 368.314 209 365 209C361.686 209 359 206.314 359 203C359 199.686 361.686 197 365 197C368.314 197 371 199.686 371 203Z" fill="#FA6846"/>
</g>
<g filter="url(#filter6_d_810_27)">
<path d="M330 275C330 269.477 334.477 265 340 265H474C479.523 265 484 269.477 484 275V301C484 306.523 479.523 311 474 311H340C334.477 311 330 306.523 330 301V275Z" fill="#E9EFF4"/>
</g>
<path d="M379.675 293.098C378.994 293.098 378.378 292.981 377.827 292.748C377.286 292.515 376.856 292.179 376.539 291.74C376.222 291.301 376.058 290.783 376.049 290.186H378.149C378.177 290.587 378.317 290.905 378.569 291.138C378.83 291.371 379.185 291.488 379.633 291.488C380.09 291.488 380.45 291.381 380.711 291.166C380.972 290.942 381.103 290.653 381.103 290.298C381.103 290.009 381.014 289.771 380.837 289.584C380.66 289.397 380.436 289.253 380.165 289.15C379.904 289.038 379.54 288.917 379.073 288.786C378.438 288.599 377.92 288.417 377.519 288.24C377.127 288.053 376.786 287.778 376.497 287.414C376.217 287.041 376.077 286.546 376.077 285.93C376.077 285.351 376.222 284.847 376.511 284.418C376.8 283.989 377.206 283.662 377.729 283.438C378.252 283.205 378.849 283.088 379.521 283.088C380.529 283.088 381.346 283.335 381.971 283.83C382.606 284.315 382.956 284.997 383.021 285.874H380.865C380.846 285.538 380.702 285.263 380.431 285.048C380.17 284.824 379.82 284.712 379.381 284.712C378.998 284.712 378.69 284.81 378.457 285.006C378.233 285.202 378.121 285.487 378.121 285.86C378.121 286.121 378.205 286.341 378.373 286.518C378.55 286.686 378.765 286.826 379.017 286.938C379.278 287.041 379.642 287.162 380.109 287.302C380.744 287.489 381.262 287.675 381.663 287.862C382.064 288.049 382.41 288.329 382.699 288.702C382.988 289.075 383.133 289.565 383.133 290.172C383.133 290.695 382.998 291.18 382.727 291.628C382.456 292.076 382.06 292.435 381.537 292.706C381.014 292.967 380.394 293.098 379.675 293.098Z" fill="#8A8EAC"/>
<path d="M386.792 284.81V287.26H390.082V288.814H386.792V291.404H390.502V293H384.832V283.214H390.502V284.81H386.792Z" fill="#8A8EAC"/>
<path d="M397.323 293L395.167 289.192H394.243V293H392.283V283.228H395.951C396.707 283.228 397.351 283.363 397.883 283.634C398.415 283.895 398.812 284.255 399.073 284.712C399.344 285.16 399.479 285.664 399.479 286.224C399.479 286.868 399.293 287.451 398.919 287.974C398.546 288.487 397.991 288.842 397.253 289.038L399.591 293H397.323ZM394.243 287.722H395.881C396.413 287.722 396.81 287.596 397.071 287.344C397.333 287.083 397.463 286.723 397.463 286.266C397.463 285.818 397.333 285.473 397.071 285.23C396.81 284.978 396.413 284.852 395.881 284.852H394.243V287.722Z" fill="#8A8EAC"/>
<path d="M410.03 283.228L406.446 293H404.066L400.482 283.228H402.582L405.27 290.998L407.944 283.228H410.03Z" fill="#8A8EAC"/>
<path d="M413.165 283.228V293H411.205V283.228H413.165Z" fill="#8A8EAC"/>
<path d="M414.626 288.1C414.626 287.139 414.841 286.28 415.27 285.524C415.709 284.759 416.301 284.166 417.048 283.746C417.804 283.317 418.649 283.102 419.582 283.102C420.674 283.102 421.631 283.382 422.452 283.942C423.273 284.502 423.847 285.277 424.174 286.266H421.92C421.696 285.799 421.379 285.449 420.968 285.216C420.567 284.983 420.1 284.866 419.568 284.866C418.999 284.866 418.49 285.001 418.042 285.272C417.603 285.533 417.258 285.907 417.006 286.392C416.763 286.877 416.642 287.447 416.642 288.1C416.642 288.744 416.763 289.313 417.006 289.808C417.258 290.293 417.603 290.671 418.042 290.942C418.49 291.203 418.999 291.334 419.568 291.334C420.1 291.334 420.567 291.217 420.968 290.984C421.379 290.741 421.696 290.387 421.92 289.92H424.174C423.847 290.919 423.273 291.698 422.452 292.258C421.64 292.809 420.683 293.084 419.582 293.084C418.649 293.084 417.804 292.874 417.048 292.454C416.301 292.025 415.709 291.432 415.27 290.676C414.841 289.92 414.626 289.061 414.626 288.1Z" fill="#8A8EAC"/>
<path d="M427.808 284.81V287.26H431.098V288.814H427.808V291.404H431.518V293H425.848V283.214H431.518V284.81H427.808Z" fill="#8A8EAC"/>
<path d="M442.179 287.988C442.73 288.091 443.182 288.366 443.537 288.814C443.892 289.262 444.069 289.775 444.069 290.354C444.069 290.877 443.938 291.339 443.677 291.74C443.425 292.132 443.056 292.44 442.571 292.664C442.086 292.888 441.512 293 440.849 293H436.635V283.228H440.667C441.33 283.228 441.899 283.335 442.375 283.55C442.86 283.765 443.224 284.063 443.467 284.446C443.719 284.829 443.845 285.263 443.845 285.748C443.845 286.317 443.691 286.793 443.383 287.176C443.084 287.559 442.683 287.829 442.179 287.988ZM438.595 287.26H440.387C440.854 287.26 441.213 287.157 441.465 286.952C441.717 286.737 441.843 286.434 441.843 286.042C441.843 285.65 441.717 285.347 441.465 285.132C441.213 284.917 440.854 284.81 440.387 284.81H438.595V287.26ZM440.569 291.404C441.045 291.404 441.414 291.292 441.675 291.068C441.946 290.844 442.081 290.527 442.081 290.116C442.081 289.696 441.941 289.369 441.661 289.136C441.381 288.893 441.003 288.772 440.527 288.772H438.595V291.404H440.569Z" fill="#8A8EAC"/>
<g filter="url(#filter7_d_810_27)">
<path d="M368 288C368 291.314 365.314 294 362 294C358.686 294 356 291.314 356 288C356 284.686 358.686 282 362 282C365.314 282 368 284.686 368 288Z" fill="#FA6846"/>
</g>
<g filter="url(#filter8_d_810_27)">
<path d="M330 360C330 354.477 334.477 350 340 350H474C479.523 350 484 354.477 484 360V386C484 391.523 479.523 396 474 396H340C334.477 396 330 391.523 330 386V360Z" fill="#E9EFF4"/>
</g>
<path d="M392.615 368.228C393.642 368.228 394.543 368.429 395.317 368.83C396.101 369.231 396.703 369.805 397.123 370.552C397.553 371.289 397.767 372.148 397.767 373.128C397.767 374.108 397.553 374.967 397.123 375.704C396.703 376.432 396.101 376.997 395.317 377.398C394.543 377.799 393.642 378 392.615 378H389.199V368.228H392.615ZM392.545 376.334C393.572 376.334 394.365 376.054 394.925 375.494C395.485 374.934 395.765 374.145 395.765 373.128C395.765 372.111 395.485 371.317 394.925 370.748C394.365 370.169 393.572 369.88 392.545 369.88H391.159V376.334H392.545Z" fill="#8A8EAC"/>
<path d="M401.195 369.81V372.26H404.485V373.814H401.195V376.404H404.905V378H399.235V368.214H404.905V369.81H401.195Z" fill="#8A8EAC"/>
<path d="M415.464 368.228L411.88 378H409.5L405.916 368.228H408.016L410.704 375.998L413.378 368.228H415.464Z" fill="#8A8EAC"/>
<path d="M418.599 368.228V378H416.639V368.228H418.599Z" fill="#8A8EAC"/>
<path d="M420.059 373.1C420.059 372.139 420.274 371.28 420.703 370.524C421.142 369.759 421.735 369.166 422.481 368.746C423.237 368.317 424.082 368.102 425.015 368.102C426.107 368.102 427.064 368.382 427.885 368.942C428.707 369.502 429.281 370.277 429.607 371.266H427.353C427.129 370.799 426.812 370.449 426.401 370.216C426 369.983 425.533 369.866 425.001 369.866C424.432 369.866 423.923 370.001 423.475 370.272C423.037 370.533 422.691 370.907 422.439 371.392C422.197 371.877 422.075 372.447 422.075 373.1C422.075 373.744 422.197 374.313 422.439 374.808C422.691 375.293 423.037 375.671 423.475 375.942C423.923 376.203 424.432 376.334 425.001 376.334C425.533 376.334 426 376.217 426.401 375.984C426.812 375.741 427.129 375.387 427.353 374.92H429.607C429.281 375.919 428.707 376.698 427.885 377.258C427.073 377.809 426.117 378.084 425.015 378.084C424.082 378.084 423.237 377.874 422.481 377.454C421.735 377.025 421.142 376.432 420.703 375.676C420.274 374.92 420.059 374.061 420.059 373.1Z" fill="#8A8EAC"/>
<path d="M433.241 369.81V372.26H436.531V373.814H433.241V376.404H436.951V378H431.281V368.214H436.951V369.81H433.241Z" fill="#8A8EAC"/>
<g filter="url(#filter9_d_810_27)">
<path d="M381 373C381 376.314 378.314 379 375 379C371.686 379 369 376.314 369 373C369 369.686 371.686 367 375 367C378.314 367 381 369.686 381 373Z" fill="#FA6846"/>
</g>
<g filter="url(#filter10_d_810_27)">
<path fill-rule="evenodd" clip-rule="evenodd" d="M40 115C28.9543 115 20 123.954 20 135V179C20 190.046 28.9543 199 40 199H282C283.844 199 285.629 198.751 287.324 198.284L305.464 203.585C306.227 203.808 306.933 203.094 306.701 202.334L301.247 184.454C301.738 182.72 302 180.891 302 179V135C302 123.954 293.046 115 282 115H40Z" fill="#C7C7C7" fill-opacity="0.6" shape-rendering="crispEdges"/>
</g>
<path d="M117.344 144.64V147.44H121.104V149.216H117.344V152.176H121.584V154H115.104V142.816H121.584V144.64H117.344Z" fill="white"/>
<path d="M127.012 154.144C126.286 154.144 125.636 154.016 125.06 153.76C124.484 153.493 124.025 153.136 123.684 152.688C123.353 152.24 123.172 151.744 123.14 151.2H125.396C125.438 151.541 125.604 151.824 125.892 152.048C126.19 152.272 126.558 152.384 126.996 152.384C127.422 152.384 127.753 152.299 127.988 152.128C128.233 151.957 128.356 151.739 128.356 151.472C128.356 151.184 128.206 150.971 127.908 150.832C127.62 150.683 127.156 150.523 126.516 150.352C125.854 150.192 125.31 150.027 124.884 149.856C124.468 149.685 124.105 149.424 123.796 149.072C123.497 148.72 123.348 148.245 123.348 147.648C123.348 147.157 123.486 146.709 123.764 146.304C124.052 145.899 124.457 145.579 124.98 145.344C125.513 145.109 126.137 144.992 126.852 144.992C127.908 144.992 128.75 145.259 129.38 145.792C130.009 146.315 130.356 147.024 130.42 147.92H128.276C128.244 147.568 128.094 147.291 127.828 147.088C127.572 146.875 127.225 146.768 126.788 146.768C126.382 146.768 126.068 146.843 125.844 146.992C125.63 147.141 125.524 147.349 125.524 147.616C125.524 147.915 125.673 148.144 125.972 148.304C126.27 148.453 126.734 148.608 127.364 148.768C128.004 148.928 128.532 149.093 128.948 149.264C129.364 149.435 129.721 149.701 130.02 150.064C130.329 150.416 130.489 150.885 130.5 151.472C130.5 151.984 130.356 152.443 130.068 152.848C129.79 153.253 129.385 153.573 128.852 153.808C128.329 154.032 127.716 154.144 127.012 154.144Z" fill="white"/>
<path d="M131.762 149.568C131.762 148.651 131.949 147.851 132.322 147.168C132.696 146.475 133.213 145.941 133.874 145.568C134.536 145.184 135.293 144.992 136.146 144.992C137.245 144.992 138.152 145.269 138.866 145.824C139.592 146.368 140.077 147.136 140.322 148.128H137.906C137.778 147.744 137.56 147.445 137.25 147.232C136.952 147.008 136.578 146.896 136.13 146.896C135.49 146.896 134.984 147.131 134.61 147.6C134.237 148.059 134.05 148.715 134.05 149.568C134.05 150.411 134.237 151.067 134.61 151.536C134.984 151.995 135.49 152.224 136.13 152.224C137.037 152.224 137.629 151.819 137.906 151.008H140.322C140.077 151.968 139.592 152.731 138.866 153.296C138.141 153.861 137.234 154.144 136.146 154.144C135.293 154.144 134.536 153.957 133.874 153.584C133.213 153.2 132.696 152.667 132.322 151.984C131.949 151.291 131.762 150.485 131.762 149.568Z" fill="white"/>
<path d="M154.781 142.16V154H152.541V142.16H154.781Z" fill="white"/>
<path d="M156.419 149.536C156.419 148.64 156.595 147.845 156.947 147.152C157.309 146.459 157.795 145.925 158.403 145.552C159.021 145.179 159.709 144.992 160.467 144.992C161.128 144.992 161.704 145.125 162.195 145.392C162.696 145.659 163.096 145.995 163.395 146.4V145.136H165.651V154H163.395V152.704C163.107 153.12 162.707 153.467 162.195 153.744C161.693 154.011 161.112 154.144 160.451 154.144C159.704 154.144 159.021 153.952 158.403 153.568C157.795 153.184 157.309 152.645 156.947 151.952C156.595 151.248 156.419 150.443 156.419 149.536ZM163.395 149.568C163.395 149.024 163.288 148.56 163.075 148.176C162.861 147.781 162.573 147.483 162.211 147.28C161.848 147.067 161.459 146.96 161.043 146.96C160.627 146.96 160.243 147.061 159.891 147.264C159.539 147.467 159.251 147.765 159.027 148.16C158.813 148.544 158.707 149.003 158.707 149.536C158.707 150.069 158.813 150.539 159.027 150.944C159.251 151.339 159.539 151.643 159.891 151.856C160.253 152.069 160.637 152.176 161.043 152.176C161.459 152.176 161.848 152.075 162.211 151.872C162.573 151.659 162.861 151.36 163.075 150.976C163.288 150.581 163.395 150.112 163.395 149.568Z" fill="white"/>
<path d="M170.446 146.976V151.264C170.446 151.563 170.516 151.781 170.654 151.92C170.804 152.048 171.049 152.112 171.39 152.112H172.43V154H171.022C169.134 154 168.19 153.083 168.19 151.248V146.976H167.134V145.136H168.19V142.944H170.446V145.136H172.43V146.976H170.446Z" fill="white"/>
<path d="M182.281 149.376C182.281 149.696 182.26 149.984 182.217 150.24H175.737C175.791 150.88 176.015 151.381 176.409 151.744C176.804 152.107 177.289 152.288 177.865 152.288C178.697 152.288 179.289 151.931 179.641 151.216H182.057C181.801 152.069 181.311 152.773 180.585 153.328C179.86 153.872 178.969 154.144 177.913 154.144C177.06 154.144 176.292 153.957 175.609 153.584C174.937 153.2 174.409 152.661 174.025 151.968C173.652 151.275 173.465 150.475 173.465 149.568C173.465 148.651 173.652 147.845 174.025 147.152C174.399 146.459 174.921 145.925 175.593 145.552C176.265 145.179 177.039 144.992 177.913 144.992C178.756 144.992 179.508 145.173 180.169 145.536C180.841 145.899 181.359 146.416 181.721 147.088C182.095 147.749 182.281 148.512 182.281 149.376ZM179.961 148.736C179.951 148.16 179.743 147.701 179.337 147.36C178.932 147.008 178.436 146.832 177.849 146.832C177.295 146.832 176.825 147.003 176.441 147.344C176.068 147.675 175.839 148.139 175.753 148.736H179.961Z" fill="white"/>
<path d="M190.337 146.976V151.264C190.337 151.563 190.406 151.781 190.545 151.92C190.694 152.048 190.94 152.112 191.281 152.112H192.321V154H190.913C189.025 154 188.081 153.083 188.081 151.248V146.976H187.025V145.136H188.081V142.944H190.337V145.136H192.321V146.976H190.337Z" fill="white"/>
<path d="M198.924 145.008C199.596 145.008 200.193 145.157 200.716 145.456C201.239 145.744 201.644 146.176 201.932 146.752C202.231 147.317 202.38 148 202.38 148.8V154H200.14V149.104C200.14 148.4 199.964 147.861 199.612 147.488C199.26 147.104 198.78 146.912 198.172 146.912C197.553 146.912 197.063 147.104 196.7 147.488C196.348 147.861 196.172 148.4 196.172 149.104V154H193.932V142.16H196.172V146.24C196.46 145.856 196.844 145.557 197.324 145.344C197.804 145.12 198.337 145.008 198.924 145.008Z" fill="white"/>
<path d="M205.646 144.08C205.251 144.08 204.921 143.957 204.654 143.712C204.398 143.456 204.27 143.141 204.27 142.768C204.27 142.395 204.398 142.085 204.654 141.84C204.921 141.584 205.251 141.456 205.646 141.456C206.041 141.456 206.366 141.584 206.622 141.84C206.889 142.085 207.022 142.395 207.022 142.768C207.022 143.141 206.889 143.456 206.622 143.712C206.366 143.957 206.041 144.08 205.646 144.08ZM206.75 145.136V154H204.51V145.136H206.75Z" fill="white"/>
<path d="M212.355 154.144C211.63 154.144 210.979 154.016 210.403 153.76C209.827 153.493 209.369 153.136 209.027 152.688C208.697 152.24 208.515 151.744 208.483 151.2H210.739C210.782 151.541 210.947 151.824 211.235 152.048C211.534 152.272 211.902 152.384 212.339 152.384C212.766 152.384 213.097 152.299 213.331 152.128C213.577 151.957 213.699 151.739 213.699 151.472C213.699 151.184 213.55 150.971 213.251 150.832C212.963 150.683 212.499 150.523 211.859 150.352C211.198 150.192 210.654 150.027 210.227 149.856C209.811 149.685 209.449 149.424 209.139 149.072C208.841 148.72 208.691 148.245 208.691 147.648C208.691 147.157 208.83 146.709 209.107 146.304C209.395 145.899 209.801 145.579 210.323 145.344C210.857 145.109 211.481 144.992 212.195 144.992C213.251 144.992 214.094 145.259 214.723 145.792C215.353 146.315 215.699 147.024 215.763 147.92H213.619C213.587 147.568 213.438 147.291 213.171 147.088C212.915 146.875 212.569 146.768 212.131 146.768C211.726 146.768 211.411 146.843 211.187 146.992C210.974 147.141 210.867 147.349 210.867 147.616C210.867 147.915 211.017 148.144 211.315 148.304C211.614 148.453 212.078 148.608 212.707 148.768C213.347 148.928 213.875 149.093 214.291 149.264C214.707 149.435 215.065 149.701 215.363 150.064C215.673 150.416 215.833 150.885 215.843 151.472C215.843 151.984 215.699 152.443 215.411 152.848C215.134 153.253 214.729 153.573 214.195 153.808C213.673 154.032 213.059 154.144 212.355 154.144Z" fill="white"/>
<path d="M224.103 146.976V151.264C224.103 151.563 224.172 151.781 224.311 151.92C224.46 152.048 224.705 152.112 225.047 152.112H226.087V154H224.679C222.791 154 221.847 153.083 221.847 151.248V146.976H220.791V145.136H221.847V142.944H224.103V145.136H226.087V146.976H224.103Z" fill="white"/>
<path d="M231.634 154.144C230.78 154.144 230.012 153.957 229.33 153.584C228.647 153.2 228.108 152.661 227.714 151.968C227.33 151.275 227.138 150.475 227.138 149.568C227.138 148.661 227.335 147.861 227.73 147.168C228.135 146.475 228.684 145.941 229.378 145.568C230.071 145.184 230.844 144.992 231.698 144.992C232.551 144.992 233.324 145.184 234.018 145.568C234.711 145.941 235.255 146.475 235.65 147.168C236.055 147.861 236.258 148.661 236.258 149.568C236.258 150.475 236.05 151.275 235.634 151.968C235.228 152.661 234.674 153.2 233.97 153.584C233.276 153.957 232.498 154.144 231.634 154.144ZM231.634 152.192C232.039 152.192 232.418 152.096 232.77 151.904C233.132 151.701 233.42 151.403 233.634 151.008C233.847 150.613 233.954 150.133 233.954 149.568C233.954 148.725 233.73 148.08 233.282 147.632C232.844 147.173 232.306 146.944 231.666 146.944C231.026 146.944 230.487 147.173 230.05 147.632C229.623 148.08 229.41 148.725 229.41 149.568C229.41 150.411 229.618 151.061 230.034 151.52C230.46 151.968 230.994 152.192 231.634 152.192Z" fill="white"/>
<path d="M118.96 172.112C118.181 172.112 117.477 171.979 116.848 171.712C116.229 171.445 115.739 171.061 115.376 170.56C115.013 170.059 114.827 169.467 114.816 168.784H117.216C117.248 169.243 117.408 169.605 117.696 169.872C117.995 170.139 118.4 170.272 118.912 170.272C119.435 170.272 119.845 170.149 120.144 169.904C120.443 169.648 120.592 169.317 120.592 168.912C120.592 168.581 120.491 168.309 120.288 168.096C120.085 167.883 119.829 167.717 119.52 167.6C119.221 167.472 118.805 167.333 118.272 167.184C117.547 166.971 116.955 166.763 116.496 166.56C116.048 166.347 115.659 166.032 115.328 165.616C115.008 165.189 114.848 164.624 114.848 163.92C114.848 163.259 115.013 162.683 115.344 162.192C115.675 161.701 116.139 161.328 116.736 161.072C117.333 160.805 118.016 160.672 118.784 160.672C119.936 160.672 120.869 160.955 121.584 161.52C122.309 162.075 122.709 162.853 122.784 163.856H120.32C120.299 163.472 120.133 163.157 119.824 162.912C119.525 162.656 119.125 162.528 118.624 162.528C118.187 162.528 117.835 162.64 117.568 162.864C117.312 163.088 117.184 163.413 117.184 163.84C117.184 164.139 117.28 164.389 117.472 164.592C117.675 164.784 117.92 164.944 118.208 165.072C118.507 165.189 118.923 165.328 119.456 165.488C120.181 165.701 120.773 165.915 121.232 166.128C121.691 166.341 122.085 166.661 122.416 167.088C122.747 167.515 122.912 168.075 122.912 168.768C122.912 169.365 122.757 169.92 122.448 170.432C122.139 170.944 121.685 171.355 121.088 171.664C120.491 171.963 119.781 172.112 118.96 172.112Z" fill="white"/>
<path d="M133.094 167.376C133.094 167.696 133.073 167.984 133.03 168.24H126.55C126.603 168.88 126.827 169.381 127.222 169.744C127.617 170.107 128.102 170.288 128.678 170.288C129.51 170.288 130.102 169.931 130.454 169.216H132.87C132.614 170.069 132.123 170.773 131.398 171.328C130.673 171.872 129.782 172.144 128.726 172.144C127.873 172.144 127.105 171.957 126.422 171.584C125.75 171.2 125.222 170.661 124.838 169.968C124.465 169.275 124.278 168.475 124.278 167.568C124.278 166.651 124.465 165.845 124.838 165.152C125.211 164.459 125.734 163.925 126.406 163.552C127.078 163.179 127.851 162.992 128.726 162.992C129.569 162.992 130.321 163.173 130.982 163.536C131.654 163.899 132.171 164.416 132.534 165.088C132.907 165.749 133.094 166.512 133.094 167.376ZM130.774 166.736C130.763 166.16 130.555 165.701 130.15 165.36C129.745 165.008 129.249 164.832 128.662 164.832C128.107 164.832 127.638 165.003 127.254 165.344C126.881 165.675 126.651 166.139 126.566 166.736H130.774Z" fill="white"/>
<path d="M136.969 164.512C137.257 164.043 137.63 163.675 138.089 163.408C138.558 163.141 139.092 163.008 139.689 163.008V165.36H139.097C138.393 165.36 137.86 165.525 137.497 165.856C137.145 166.187 136.969 166.763 136.969 167.584V172H134.729V163.136H136.969V164.512Z" fill="white"/>
<path d="M144.894 169.936L147.134 163.136H149.518L146.238 172H143.518L140.254 163.136H142.654L144.894 169.936Z" fill="white"/>
<path d="M151.912 162.08C151.517 162.08 151.186 161.957 150.92 161.712C150.664 161.456 150.536 161.141 150.536 160.768C150.536 160.395 150.664 160.085 150.92 159.84C151.186 159.584 151.517 159.456 151.912 159.456C152.306 159.456 152.632 159.584 152.888 159.84C153.154 160.085 153.288 160.395 153.288 160.768C153.288 161.141 153.154 161.456 152.888 161.712C152.632 161.957 152.306 162.08 151.912 162.08ZM153.016 163.136V172H150.776V163.136H153.016Z" fill="white"/>
<path d="M154.653 167.568C154.653 166.651 154.84 165.851 155.213 165.168C155.586 164.475 156.104 163.941 156.765 163.568C157.426 163.184 158.184 162.992 159.037 162.992C160.136 162.992 161.042 163.269 161.757 163.824C162.482 164.368 162.968 165.136 163.213 166.128H160.797C160.669 165.744 160.45 165.445 160.141 165.232C159.842 165.008 159.469 164.896 159.021 164.896C158.381 164.896 157.874 165.131 157.501 165.6C157.128 166.059 156.941 166.715 156.941 167.568C156.941 168.411 157.128 169.067 157.501 169.536C157.874 169.995 158.381 170.224 159.021 170.224C159.928 170.224 160.52 169.819 160.797 169.008H163.213C162.968 169.968 162.482 170.731 161.757 171.296C161.032 171.861 160.125 172.144 159.037 172.144C158.184 172.144 157.426 171.957 156.765 171.584C156.104 171.2 155.586 170.667 155.213 169.984C154.84 169.291 154.653 168.485 154.653 167.568Z" fill="white"/>
<path d="M173.094 167.376C173.094 167.696 173.073 167.984 173.03 168.24H166.55C166.603 168.88 166.827 169.381 167.222 169.744C167.617 170.107 168.102 170.288 168.678 170.288C169.51 170.288 170.102 169.931 170.454 169.216H172.87C172.614 170.069 172.123 170.773 171.398 171.328C170.673 171.872 169.782 172.144 168.726 172.144C167.873 172.144 167.105 171.957 166.422 171.584C165.75 171.2 165.222 170.661 164.838 169.968C164.465 169.275 164.278 168.475 164.278 167.568C164.278 166.651 164.465 165.845 164.838 165.152C165.211 164.459 165.734 163.925 166.406 163.552C167.078 163.179 167.851 162.992 168.726 162.992C169.569 162.992 170.321 163.173 170.982 163.536C171.654 163.899 172.171 164.416 172.534 165.088C172.907 165.749 173.094 166.512 173.094 167.376ZM170.774 166.736C170.763 166.16 170.555 165.701 170.15 165.36C169.745 165.008 169.249 164.832 168.662 164.832C168.107 164.832 167.638 165.003 167.254 165.344C166.881 165.675 166.651 166.139 166.566 166.736H170.774Z" fill="white"/>
<path d="M185.389 169.872H180.941L180.205 172H177.853L181.869 160.816H184.477L188.493 172H186.125L185.389 169.872ZM184.781 168.08L183.165 163.408L181.549 168.08H184.781Z" fill="white"/>
<path d="M196.047 164.416C196.335 164.011 196.73 163.675 197.231 163.408C197.743 163.131 198.324 162.992 198.975 162.992C199.732 162.992 200.415 163.179 201.023 163.552C201.642 163.925 202.127 164.459 202.479 165.152C202.842 165.835 203.023 166.629 203.023 167.536C203.023 168.443 202.842 169.248 202.479 169.952C202.127 170.645 201.642 171.184 201.023 171.568C200.415 171.952 199.732 172.144 198.975 172.144C198.324 172.144 197.748 172.011 197.247 171.744C196.756 171.477 196.356 171.141 196.047 170.736V176.224H193.807V163.136H196.047V164.416ZM200.735 167.536C200.735 167.003 200.623 166.544 200.399 166.16C200.186 165.765 199.898 165.467 199.535 165.264C199.183 165.061 198.799 164.96 198.383 164.96C197.978 164.96 197.594 165.067 197.231 165.28C196.879 165.483 196.591 165.781 196.367 166.176C196.154 166.571 196.047 167.035 196.047 167.568C196.047 168.101 196.154 168.565 196.367 168.96C196.591 169.355 196.879 169.659 197.231 169.872C197.594 170.075 197.978 170.176 198.383 170.176C198.799 170.176 199.183 170.069 199.535 169.856C199.898 169.643 200.186 169.339 200.399 168.944C200.623 168.549 200.735 168.08 200.735 167.536Z" fill="white"/>
<path d="M206.891 164.512C207.179 164.043 207.552 163.675 208.011 163.408C208.48 163.141 209.013 163.008 209.611 163.008V165.36H209.019C208.315 165.36 207.781 165.525 207.419 165.856C207.067 166.187 206.891 166.763 206.891 167.584V172H204.651V163.136H206.891V164.512Z" fill="white"/>
<path d="M215.056 172.144C214.202 172.144 213.434 171.957 212.752 171.584C212.069 171.2 211.53 170.661 211.136 169.968C210.752 169.275 210.56 168.475 210.56 167.568C210.56 166.661 210.757 165.861 211.152 165.168C211.557 164.475 212.106 163.941 212.8 163.568C213.493 163.184 214.266 162.992 215.12 162.992C215.973 162.992 216.746 163.184 217.44 163.568C218.133 163.941 218.677 164.475 219.072 165.168C219.477 165.861 219.68 166.661 219.68 167.568C219.68 168.475 219.472 169.275 219.056 169.968C218.65 170.661 218.096 171.2 217.392 171.584C216.698 171.957 215.92 172.144 215.056 172.144ZM215.056 170.192C215.461 170.192 215.84 170.096 216.192 169.904C216.554 169.701 216.842 169.403 217.056 169.008C217.269 168.613 217.376 168.133 217.376 167.568C217.376 166.725 217.152 166.08 216.704 165.632C216.266 165.173 215.728 164.944 215.088 164.944C214.448 164.944 213.909 165.173 213.472 165.632C213.045 166.08 212.832 166.725 212.832 167.568C212.832 168.411 213.04 169.061 213.456 169.52C213.882 169.968 214.416 170.192 215.056 170.192Z" fill="white"/>
<path d="M225.019 169.936L227.259 163.136H229.643L226.363 172H223.643L220.379 163.136H222.779L225.019 169.936Z" fill="white"/>
<path d="M232.037 162.08C231.642 162.08 231.311 161.957 231.045 161.712C230.789 161.456 230.661 161.141 230.661 160.768C230.661 160.395 230.789 160.085 231.045 159.84C231.311 159.584 231.642 159.456 232.037 159.456C232.431 159.456 232.757 159.584 233.013 159.84C233.279 160.085 233.413 160.395 233.413 160.768C233.413 161.141 233.279 161.456 233.013 161.712C232.757 161.957 232.431 162.08 232.037 162.08ZM233.141 163.136V172H230.901V163.136H233.141Z" fill="white"/>
<path d="M234.778 167.536C234.778 166.64 234.954 165.845 235.306 165.152C235.669 164.459 236.159 163.925 236.778 163.552C237.397 163.179 238.085 162.992 238.842 162.992C239.418 162.992 239.967 163.12 240.49 163.376C241.013 163.621 241.429 163.952 241.738 164.368V160.16H244.01V172H241.738V170.688C241.461 171.125 241.071 171.477 240.57 171.744C240.069 172.011 239.487 172.144 238.826 172.144C238.079 172.144 237.397 171.952 236.778 171.568C236.159 171.184 235.669 170.645 235.306 169.952C234.954 169.248 234.778 168.443 234.778 167.536ZM241.754 167.568C241.754 167.024 241.647 166.56 241.434 166.176C241.221 165.781 240.933 165.483 240.57 165.28C240.207 165.067 239.818 164.96 239.402 164.96C238.986 164.96 238.602 165.061 238.25 165.264C237.898 165.467 237.61 165.765 237.386 166.16C237.173 166.544 237.066 167.003 237.066 167.536C237.066 168.069 237.173 168.539 237.386 168.944C237.61 169.339 237.898 169.643 238.25 169.856C238.613 170.069 238.997 170.176 239.402 170.176C239.818 170.176 240.207 170.075 240.57 169.872C240.933 169.659 241.221 169.36 241.434 168.976C241.647 168.581 241.754 168.112 241.754 167.568Z" fill="white"/>
<path d="M254.438 167.376C254.438 167.696 254.416 167.984 254.374 168.24H247.894C247.947 168.88 248.171 169.381 248.566 169.744C248.96 170.107 249.446 170.288 250.022 170.288C250.854 170.288 251.446 169.931 251.798 169.216H254.214C253.958 170.069 253.467 170.773 252.742 171.328C252.016 171.872 251.126 172.144 250.07 172.144C249.216 172.144 248.448 171.957 247.766 171.584C247.094 171.2 246.566 170.661 246.182 169.968C245.808 169.275 245.622 168.475 245.622 167.568C245.622 166.651 245.808 165.845 246.182 165.152C246.555 164.459 247.078 163.925 247.75 163.552C248.422 163.179 249.195 162.992 250.07 162.992C250.912 162.992 251.664 163.173 252.326 163.536C252.998 163.899 253.515 164.416 253.878 165.088C254.251 165.749 254.438 166.512 254.438 167.376ZM252.118 166.736C252.107 166.16 251.899 165.701 251.494 165.36C251.088 165.008 250.592 164.832 250.006 164.832C249.451 164.832 248.982 165.003 248.598 165.344C248.224 165.675 247.995 166.139 247.91 166.736H252.118Z" fill="white"/>
<path d="M258.313 164.512C258.601 164.043 258.974 163.675 259.433 163.408C259.902 163.141 260.435 163.008 261.033 163.008V165.36H260.441C259.737 165.36 259.203 165.525 258.841 165.856C258.489 166.187 258.313 166.763 258.313 167.584V172H256.073V163.136H258.313V164.512Z" fill="white"/>
<path d="M265.437 160.64L265.181 168.368H263.293L263.021 160.64H265.437ZM264.285 172.112C263.88 172.112 263.544 171.989 263.277 171.744C263.021 171.488 262.893 171.173 262.893 170.8C262.893 170.427 263.021 170.117 263.277 169.872C263.544 169.616 263.88 169.488 264.285 169.488C264.68 169.488 265.005 169.616 265.261 169.872C265.517 170.117 265.645 170.427 265.645 170.8C265.645 171.173 265.517 171.488 265.261 171.744C265.005 171.989 264.68 172.112 264.285 172.112Z" fill="white"/>
<path d="M141.418 149.536C141.418 148.64 141.594 147.845 141.946 147.152C142.309 146.459 142.794 145.925 143.402 145.552C144.021 145.179 144.709 144.992 145.466 144.992C146.128 144.992 146.704 145.125 147.194 145.392C147.696 145.659 148.096 145.995 148.394 146.4V145.136H150.65V154H148.394V152.704C148.106 153.12 147.706 153.467 147.194 153.744C146.693 154.011 146.112 154.144 145.45 154.144C144.704 154.144 144.021 153.952 143.402 153.568C142.794 153.184 142.309 152.645 141.946 151.952C141.594 151.248 141.418 150.443 141.418 149.536ZM148.394 149.568C148.394 149.024 148.288 148.56 148.074 148.176C147.861 147.781 147.573 147.483 147.21 147.28C146.848 147.067 146.458 146.96 146.042 146.96C145.626 146.96 145.242 147.061 144.89 147.264C144.538 147.467 144.25 147.765 144.026 148.16C143.813 148.544 143.706 149.003 143.706 149.536C143.706 150.069 143.813 150.539 144.026 150.944C144.25 151.339 144.538 151.643 144.89 151.856C145.253 152.069 145.637 152.176 146.042 152.176C146.458 152.176 146.848 152.075 147.21 151.872C147.573 151.659 147.861 151.36 148.074 150.976C148.288 150.581 148.394 150.112 148.394 149.568Z" fill="white"/>
<path d="M37 136C37 130.477 41.4772 126 47 126H89C94.5228 126 99 130.477 99 136V178C99 183.523 94.5228 188 89 188H47C41.4772 188 37 183.523 37 178V136Z" fill="#826EF5"/>
<path d="M66.125 157.75C70.2266 157.75 73.625 154.41 73.625 150.25C73.625 146.148 70.2266 142.75 66.125 142.75C61.9648 142.75 58.625 146.148 58.625 150.25C58.625 154.41 61.9648 157.75 66.125 157.75ZM71.3398 159.625H70.3438C69.0547 160.27 67.6484 160.562 66.125 160.562C64.6016 160.562 63.1367 160.27 61.8477 159.625H60.8516C56.5156 159.625 53 163.199 53 167.535V169.938C53 171.52 54.2305 172.75 55.8125 172.75H76.4375C77.9609 172.75 79.25 171.52 79.25 169.938V167.535C79.25 163.199 75.6758 159.625 71.3398 159.625ZM90.2656 152.125L88.625 150.484C88.3906 150.191 87.9219 150.191 87.6875 150.484L81.5352 156.578L78.8398 153.883C78.6055 153.59 78.1367 153.59 77.8438 153.883L76.2031 155.523C75.9688 155.758 75.9688 156.227 76.2031 156.52L81.0078 161.324C81.3008 161.617 81.7109 161.617 82.0039 161.324L90.2656 153.121C90.5586 152.828 90.5586 152.418 90.2656 152.125Z" fill="white"/>
<g filter="url(#filter11_d_810_27)">
<path d="M512 353C512 341.954 520.954 333 532 333H774C785.046 333 794 341.954 794 353V397C794 408.046 785.046 417 774 417H532C520.954 417 512 408.046 512 397V353Z" fill="#C7C7C7" fill-opacity="0.6" shape-rendering="crispEdges"/>
</g>
<path d="M620.032 351.832L616.912 363H614.272L612.176 355.048L609.984 363L607.36 363.016L604.352 351.832H606.752L608.72 360.504L610.992 351.832H613.488L615.632 360.456L617.616 351.832H620.032Z" fill="white"/>
<path d="M629.735 358.376C629.735 358.696 629.713 358.984 629.671 359.24H623.191C623.244 359.88 623.468 360.381 623.863 360.744C624.257 361.107 624.743 361.288 625.319 361.288C626.151 361.288 626.743 360.931 627.095 360.216H629.511C629.255 361.069 628.764 361.773 628.039 362.328C627.313 362.872 626.423 363.144 625.367 363.144C624.513 363.144 623.745 362.957 623.063 362.584C622.391 362.2 621.863 361.661 621.479 360.968C621.105 360.275 620.919 359.475 620.919 358.568C620.919 357.651 621.105 356.845 621.479 356.152C621.852 355.459 622.375 354.925 623.047 354.552C623.719 354.179 624.492 353.992 625.367 353.992C626.209 353.992 626.961 354.173 627.623 354.536C628.295 354.899 628.812 355.416 629.175 356.088C629.548 356.749 629.735 357.512 629.735 358.376ZM627.415 357.736C627.404 357.16 627.196 356.701 626.791 356.36C626.385 356.008 625.889 355.832 625.303 355.832C624.748 355.832 624.279 356.003 623.895 356.344C623.521 356.675 623.292 357.139 623.207 357.736H627.415Z" fill="white"/>
<path d="M631.818 351.832H634.17L632.442 355.864H630.906L631.818 351.832Z" fill="white"/>
<path d="M638.016 355.512C638.304 355.043 638.677 354.675 639.136 354.408C639.605 354.141 640.139 354.008 640.736 354.008V356.36H640.144C639.44 356.36 638.907 356.525 638.544 356.856C638.192 357.187 638.016 357.763 638.016 358.584V363H635.776V354.136H638.016V355.512Z" fill="white"/>
<path d="M650.485 358.376C650.485 358.696 650.463 358.984 650.421 359.24H643.941C643.994 359.88 644.218 360.381 644.613 360.744C645.007 361.107 645.493 361.288 646.069 361.288C646.901 361.288 647.493 360.931 647.845 360.216H650.261C650.005 361.069 649.514 361.773 648.789 362.328C648.063 362.872 647.173 363.144 646.117 363.144C645.263 363.144 644.495 362.957 643.813 362.584C643.141 362.2 642.613 361.661 642.229 360.968C641.855 360.275 641.669 359.475 641.669 358.568C641.669 357.651 641.855 356.845 642.229 356.152C642.602 355.459 643.125 354.925 643.797 354.552C644.469 354.179 645.242 353.992 646.117 353.992C646.959 353.992 647.711 354.173 648.373 354.536C649.045 354.899 649.562 355.416 649.925 356.088C650.298 356.749 650.485 357.512 650.485 358.376ZM648.165 357.736C648.154 357.16 647.946 356.701 647.541 356.36C647.135 356.008 646.639 355.832 646.053 355.832C645.498 355.832 645.029 356.003 644.645 356.344C644.271 356.675 644.042 357.139 643.957 357.736H648.165Z" fill="white"/>
<path d="M655.356 358.536C655.356 357.64 655.532 356.845 655.884 356.152C656.247 355.459 656.732 354.925 657.34 354.552C657.959 354.179 658.647 353.992 659.404 353.992C660.066 353.992 660.642 354.125 661.132 354.392C661.634 354.659 662.034 354.995 662.332 355.4V354.136H664.588V363H662.332V361.704C662.044 362.12 661.644 362.467 661.132 362.744C660.631 363.011 660.05 363.144 659.388 363.144C658.642 363.144 657.959 362.952 657.34 362.568C656.732 362.184 656.247 361.645 655.884 360.952C655.532 360.248 655.356 359.443 655.356 358.536ZM662.332 358.568C662.332 358.024 662.226 357.56 662.012 357.176C661.799 356.781 661.511 356.483 661.148 356.28C660.786 356.067 660.396 355.96 659.98 355.96C659.564 355.96 659.18 356.061 658.828 356.264C658.476 356.467 658.188 356.765 657.964 357.16C657.751 357.544 657.644 358.003 657.644 358.536C657.644 359.069 657.751 359.539 657.964 359.944C658.188 360.339 658.476 360.643 658.828 360.856C659.191 361.069 659.575 361.176 659.98 361.176C660.396 361.176 660.786 361.075 661.148 360.872C661.511 360.659 661.799 360.36 662.012 359.976C662.226 359.581 662.332 359.112 662.332 358.568Z" fill="white"/>
<path d="M679.064 354.136L676.472 363H674.056L672.44 356.808L670.824 363H668.392L665.784 354.136H668.056L669.624 360.888L671.32 354.136H673.688L675.352 360.872L676.92 354.136H679.064Z" fill="white"/>
<path d="M679.7 358.536C679.7 357.64 679.876 356.845 680.228 356.152C680.591 355.459 681.076 354.925 681.684 354.552C682.303 354.179 682.991 353.992 683.748 353.992C684.409 353.992 684.985 354.125 685.476 354.392C685.977 354.659 686.377 354.995 686.676 355.4V354.136H688.932V363H686.676V361.704C686.388 362.12 685.988 362.467 685.476 362.744C684.975 363.011 684.393 363.144 683.732 363.144C682.985 363.144 682.303 362.952 681.684 362.568C681.076 362.184 680.591 361.645 680.228 360.952C679.876 360.248 679.7 359.443 679.7 358.536ZM686.676 358.568C686.676 358.024 686.569 357.56 686.356 357.176C686.143 356.781 685.855 356.483 685.492 356.28C685.129 356.067 684.74 355.96 684.324 355.96C683.908 355.96 683.524 356.061 683.172 356.264C682.82 356.467 682.532 356.765 682.308 357.16C682.095 357.544 681.988 358.003 681.988 358.536C681.988 359.069 682.095 359.539 682.308 359.944C682.532 360.339 682.82 360.643 683.172 360.856C683.535 361.069 683.919 361.176 684.324 361.176C684.74 361.176 685.129 361.075 685.492 360.872C685.855 360.659 686.143 360.36 686.356 359.976C686.569 359.581 686.676 359.112 686.676 358.568Z" fill="white"/>
<path d="M693.36 355.512C693.648 355.043 694.021 354.675 694.48 354.408C694.949 354.141 695.482 354.008 696.08 354.008V356.36H695.488C694.784 356.36 694.25 356.525 693.888 356.856C693.536 357.187 693.36 357.763 693.36 358.584V363H691.12V354.136H693.36V355.512Z" fill="white"/>
<path d="M705.828 358.376C705.828 358.696 705.807 358.984 705.764 359.24H699.284C699.338 359.88 699.562 360.381 699.956 360.744C700.351 361.107 700.836 361.288 701.412 361.288C702.244 361.288 702.836 360.931 703.188 360.216H705.604C705.348 361.069 704.858 361.773 704.132 362.328C703.407 362.872 702.516 363.144 701.46 363.144C700.607 363.144 699.839 362.957 699.156 362.584C698.484 362.2 697.956 361.661 697.572 360.968C697.199 360.275 697.012 359.475 697.012 358.568C697.012 357.651 697.199 356.845 697.572 356.152C697.946 355.459 698.468 354.925 699.14 354.552C699.812 354.179 700.586 353.992 701.46 353.992C702.303 353.992 703.055 354.173 703.716 354.536C704.388 354.899 704.906 355.416 705.268 356.088C705.642 356.749 705.828 357.512 705.828 358.376ZM703.508 357.736C703.498 357.16 703.29 356.701 702.884 356.36C702.479 356.008 701.983 355.832 701.396 355.832C700.842 355.832 700.372 356.003 699.988 356.344C699.615 356.675 699.386 357.139 699.3 357.736H703.508Z" fill="white"/>
<path d="M715.212 363.144C714.359 363.144 713.591 362.957 712.908 362.584C712.225 362.2 711.687 361.661 711.292 360.968C710.908 360.275 710.716 359.475 710.716 358.568C710.716 357.661 710.913 356.861 711.308 356.168C711.713 355.475 712.263 354.941 712.956 354.568C713.649 354.184 714.423 353.992 715.276 353.992C716.129 353.992 716.903 354.184 717.596 354.568C718.289 354.941 718.833 355.475 719.228 356.168C719.633 356.861 719.836 357.661 719.836 358.568C719.836 359.475 719.628 360.275 719.212 360.968C718.807 361.661 718.252 362.2 717.548 362.584C716.855 362.957 716.076 363.144 715.212 363.144ZM715.212 361.192C715.617 361.192 715.996 361.096 716.348 360.904C716.711 360.701 716.999 360.403 717.212 360.008C717.425 359.613 717.532 359.133 717.532 358.568C717.532 357.725 717.308 357.08 716.86 356.632C716.423 356.173 715.884 355.944 715.244 355.944C714.604 355.944 714.065 356.173 713.628 356.632C713.201 357.08 712.988 357.725 712.988 358.568C712.988 359.411 713.196 360.061 713.612 360.52C714.039 360.968 714.572 361.192 715.212 361.192Z" fill="white"/>
<path d="M725.543 355.976H723.991V363H721.719V355.976H720.711V354.136H721.719V353.688C721.719 352.6 722.028 351.8 722.647 351.288C723.266 350.776 724.199 350.536 725.447 350.568V352.456C724.903 352.445 724.524 352.536 724.311 352.728C724.098 352.92 723.991 353.267 723.991 353.768V354.136H725.543V355.976Z" fill="white"/>
<path d="M730.231 358.536C730.231 357.64 730.407 356.845 730.759 356.152C731.122 355.459 731.607 354.925 732.215 354.552C732.834 354.179 733.522 353.992 734.279 353.992C734.941 353.992 735.517 354.125 736.007 354.392C736.509 354.659 736.909 354.995 737.207 355.4V354.136H739.463V363H737.207V361.704C736.919 362.12 736.519 362.467 736.007 362.744C735.506 363.011 734.925 363.144 734.263 363.144C733.517 363.144 732.834 362.952 732.215 362.568C731.607 362.184 731.122 361.645 730.759 360.952C730.407 360.248 730.231 359.443 730.231 358.536ZM737.207 358.568C737.207 358.024 737.101 357.56 736.887 357.176C736.674 356.781 736.386 356.483 736.023 356.28C735.661 356.067 735.271 355.96 734.855 355.96C734.439 355.96 734.055 356.061 733.703 356.264C733.351 356.467 733.063 356.765 732.839 357.16C732.626 357.544 732.519 358.003 732.519 358.536C732.519 359.069 732.626 359.539 732.839 359.944C733.063 360.339 733.351 360.643 733.703 360.856C734.066 361.069 734.45 361.176 734.855 361.176C735.271 361.176 735.661 361.075 736.023 360.872C736.386 360.659 736.674 360.36 736.887 359.976C737.101 359.581 737.207 359.112 737.207 358.568Z" fill="white"/>
<path d="M746.563 354.008C747.619 354.008 748.472 354.344 749.123 355.016C749.774 355.677 750.099 356.605 750.099 357.8V363H747.859V358.104C747.859 357.4 747.683 356.861 747.331 356.488C746.979 356.104 746.499 355.912 745.891 355.912C745.272 355.912 744.782 356.104 744.419 356.488C744.067 356.861 743.891 357.4 743.891 358.104V363H741.651V354.136H743.891V355.24C744.19 354.856 744.568 354.557 745.027 354.344C745.496 354.12 746.008 354.008 746.563 354.008Z" fill="white"/>
<path d="M606.24 371.08C605.845 371.08 605.515 370.957 605.248 370.712C604.992 370.456 604.864 370.141 604.864 369.768C604.864 369.395 604.992 369.085 605.248 368.84C605.515 368.584 605.845 368.456 606.24 368.456C606.635 368.456 606.96 368.584 607.216 368.84C607.483 369.085 607.616 369.395 607.616 369.768C607.616 370.141 607.483 370.456 607.216 370.712C606.96 370.957 606.635 371.08 606.24 371.08ZM607.344 372.136V381H605.104V372.136H607.344Z" fill="white"/>
<path d="M612.949 381.144C612.224 381.144 611.573 381.016 610.997 380.76C610.421 380.493 609.963 380.136 609.621 379.688C609.291 379.24 609.109 378.744 609.077 378.2H611.333C611.376 378.541 611.541 378.824 611.829 379.048C612.128 379.272 612.496 379.384 612.933 379.384C613.36 379.384 613.691 379.299 613.925 379.128C614.171 378.957 614.293 378.739 614.293 378.472C614.293 378.184 614.144 377.971 613.845 377.832C613.557 377.683 613.093 377.523 612.453 377.352C611.792 377.192 611.248 377.027 610.821 376.856C610.405 376.685 610.043 376.424 609.733 376.072C609.435 375.72 609.285 375.245 609.285 374.648C609.285 374.157 609.424 373.709 609.701 373.304C609.989 372.899 610.395 372.579 610.917 372.344C611.451 372.109 612.075 371.992 612.789 371.992C613.845 371.992 614.688 372.259 615.317 372.792C615.947 373.315 616.293 374.024 616.357 374.92H614.213C614.181 374.568 614.032 374.291 613.765 374.088C613.509 373.875 613.163 373.768 612.725 373.768C612.32 373.768 612.005 373.843 611.781 373.992C611.568 374.141 611.461 374.349 611.461 374.616C611.461 374.915 611.611 375.144 611.909 375.304C612.208 375.453 612.672 375.608 613.301 375.768C613.941 375.928 614.469 376.093 614.885 376.264C615.301 376.435 615.659 376.701 615.957 377.064C616.267 377.416 616.427 377.885 616.437 378.472C616.437 378.984 616.293 379.443 616.005 379.848C615.728 380.253 615.323 380.573 614.789 380.808C614.267 381.032 613.653 381.144 612.949 381.144Z" fill="white"/>
<path d="M621.668 381.144C620.943 381.144 620.292 381.016 619.716 380.76C619.14 380.493 618.681 380.136 618.34 379.688C618.009 379.24 617.828 378.744 617.796 378.2H620.052C620.095 378.541 620.26 378.824 620.548 379.048C620.847 379.272 621.215 379.384 621.652 379.384C622.079 379.384 622.409 379.299 622.644 379.128C622.889 378.957 623.012 378.739 623.012 378.472C623.012 378.184 622.863 377.971 622.564 377.832C622.276 377.683 621.812 377.523 621.172 377.352C620.511 377.192 619.967 377.027 619.54 376.856C619.124 376.685 618.761 376.424 618.452 376.072C618.153 375.72 618.004 375.245 618.004 374.648C618.004 374.157 618.143 373.709 618.42 373.304C618.708 372.899 619.113 372.579 619.636 372.344C620.169 372.109 620.793 371.992 621.508 371.992C622.564 371.992 623.407 372.259 624.036 372.792C624.665 373.315 625.012 374.024 625.076 374.92H622.932C622.9 374.568 622.751 374.291 622.484 374.088C622.228 373.875 621.881 373.768 621.444 373.768C621.039 373.768 620.724 373.843 620.5 373.992C620.287 374.141 620.18 374.349 620.18 374.616C620.18 374.915 620.329 375.144 620.628 375.304C620.927 375.453 621.391 375.608 622.02 375.768C622.66 375.928 623.188 376.093 623.604 376.264C624.02 376.435 624.377 376.701 624.676 377.064C624.985 377.416 625.145 377.885 625.156 378.472C625.156 378.984 625.012 379.443 624.724 379.848C624.447 380.253 624.041 380.573 623.508 380.808C622.985 381.032 622.372 381.144 621.668 381.144Z" fill="white"/>
<path d="M635.363 372.136V381H633.107V379.88C632.819 380.264 632.44 380.568 631.971 380.792C631.512 381.005 631.011 381.112 630.467 381.112C629.773 381.112 629.16 380.968 628.627 380.68C628.093 380.381 627.672 379.949 627.363 379.384C627.064 378.808 626.915 378.125 626.915 377.336V372.136H629.155V377.016C629.155 377.72 629.331 378.264 629.683 378.648C630.035 379.021 630.515 379.208 631.123 379.208C631.741 379.208 632.227 379.021 632.579 378.648C632.931 378.264 633.107 377.72 633.107 377.016V372.136H635.363Z" fill="white"/>
<path d="M645.813 376.376C645.813 376.696 645.791 376.984 645.749 377.24H639.269C639.322 377.88 639.546 378.381 639.941 378.744C640.335 379.107 640.821 379.288 641.397 379.288C642.229 379.288 642.821 378.931 643.173 378.216H645.589C645.333 379.069 644.842 379.773 644.117 380.328C643.391 380.872 642.501 381.144 641.445 381.144C640.591 381.144 639.823 380.957 639.141 380.584C638.469 380.2 637.941 379.661 637.557 378.968C637.183 378.275 636.997 377.475 636.997 376.568C636.997 375.651 637.183 374.845 637.557 374.152C637.93 373.459 638.453 372.925 639.125 372.552C639.797 372.179 640.57 371.992 641.445 371.992C642.287 371.992 643.039 372.173 643.701 372.536C644.373 372.899 644.89 373.416 645.253 374.088C645.626 374.749 645.813 375.512 645.813 376.376ZM643.493 375.736C643.482 375.16 643.274 374.701 642.869 374.36C642.463 374.008 641.967 373.832 641.381 373.832C640.826 373.832 640.357 374.003 639.973 374.344C639.599 374.675 639.37 375.139 639.285 375.736H643.493Z" fill="white"/>
<path d="M650.684 376.536C650.684 375.64 650.86 374.845 651.212 374.152C651.575 373.459 652.06 372.925 652.668 372.552C653.287 372.179 653.975 371.992 654.732 371.992C655.394 371.992 655.97 372.125 656.46 372.392C656.962 372.659 657.362 372.995 657.66 373.4V372.136H659.916V381H657.66V379.704C657.372 380.12 656.972 380.467 656.46 380.744C655.959 381.011 655.378 381.144 654.716 381.144C653.97 381.144 653.287 380.952 652.668 380.568C652.06 380.184 651.575 379.645 651.212 378.952C650.86 378.248 650.684 377.443 650.684 376.536ZM657.66 376.568C657.66 376.024 657.554 375.56 657.34 375.176C657.127 374.781 656.839 374.483 656.476 374.28C656.114 374.067 655.724 373.96 655.308 373.96C654.892 373.96 654.508 374.061 654.156 374.264C653.804 374.467 653.516 374.765 653.292 375.16C653.079 375.544 652.972 376.003 652.972 376.536C652.972 377.069 653.079 377.539 653.292 377.944C653.516 378.339 653.804 378.643 654.156 378.856C654.519 379.069 654.903 379.176 655.308 379.176C655.724 379.176 656.114 379.075 656.476 378.872C656.839 378.659 657.127 378.36 657.34 377.976C657.554 377.581 657.66 377.112 657.66 376.568Z" fill="white"/>
<path d="M667.016 372.008C668.072 372.008 668.925 372.344 669.576 373.016C670.227 373.677 670.552 374.605 670.552 375.8V381H668.312V376.104C668.312 375.4 668.136 374.861 667.784 374.488C667.432 374.104 666.952 373.912 666.344 373.912C665.725 373.912 665.235 374.104 664.872 374.488C664.52 374.861 664.344 375.4 664.344 376.104V381H662.104V372.136H664.344V373.24C664.643 372.856 665.021 372.557 665.48 372.344C665.949 372.12 666.461 372.008 667.016 372.008Z" fill="white"/>
<path d="M672.106 376.536C672.106 375.64 672.282 374.845 672.634 374.152C672.997 373.459 673.488 372.925 674.106 372.552C674.725 372.179 675.413 371.992 676.17 371.992C676.746 371.992 677.296 372.12 677.818 372.376C678.341 372.621 678.757 372.952 679.066 373.368V369.16H681.338V381H679.066V379.688C678.789 380.125 678.4 380.477 677.898 380.744C677.397 381.011 676.816 381.144 676.154 381.144C675.408 381.144 674.725 380.952 674.106 380.568C673.488 380.184 672.997 379.645 672.634 378.952C672.282 378.248 672.106 377.443 672.106 376.536ZM679.082 376.568C679.082 376.024 678.976 375.56 678.762 375.176C678.549 374.781 678.261 374.483 677.898 374.28C677.536 374.067 677.146 373.96 676.73 373.96C676.314 373.96 675.93 374.061 675.578 374.264C675.226 374.467 674.938 374.765 674.714 375.16C674.501 375.544 674.394 376.003 674.394 376.536C674.394 377.069 674.501 377.539 674.714 377.944C674.938 378.339 675.226 378.643 675.578 378.856C675.941 379.069 676.325 379.176 676.73 379.176C677.146 379.176 677.536 379.075 677.898 378.872C678.261 378.659 678.549 378.36 678.762 377.976C678.976 377.581 679.082 377.112 679.082 376.568Z" fill="white"/>
<path d="M699.626 372.136L697.034 381H694.618L693.002 374.808L691.386 381H688.954L686.346 372.136H688.618L690.186 378.888L691.882 372.136H694.25L695.914 378.872L697.482 372.136H699.626Z" fill="white"/>
<path d="M709.078 376.376C709.078 376.696 709.057 376.984 709.014 377.24H702.534C702.588 377.88 702.812 378.381 703.206 378.744C703.601 379.107 704.086 379.288 704.662 379.288C705.494 379.288 706.086 378.931 706.438 378.216H708.854C708.598 379.069 708.108 379.773 707.382 380.328C706.657 380.872 705.766 381.144 704.71 381.144C703.857 381.144 703.089 380.957 702.406 380.584C701.734 380.2 701.206 379.661 700.822 378.968C700.449 378.275 700.262 377.475 700.262 376.568C700.262 375.651 700.449 374.845 700.822 374.152C701.196 373.459 701.718 372.925 702.39 372.552C703.062 372.179 703.836 371.992 704.71 371.992C705.553 371.992 706.305 372.173 706.966 372.536C707.638 372.899 708.156 373.416 708.518 374.088C708.892 374.749 709.078 375.512 709.078 376.376ZM706.758 375.736C706.748 375.16 706.54 374.701 706.134 374.36C705.729 374.008 705.233 373.832 704.646 373.832C704.092 373.832 703.622 374.003 703.238 374.344C702.865 374.675 702.636 375.139 702.55 375.736H706.758Z" fill="white"/>
<path d="M711.161 369.832H713.513L711.785 373.864H710.249L711.161 369.832Z" fill="white"/>
<path d="M717.36 373.512C717.648 373.043 718.021 372.675 718.48 372.408C718.949 372.141 719.482 372.008 720.08 372.008V374.36H719.488C718.784 374.36 718.25 374.525 717.888 374.856C717.536 375.187 717.36 375.763 717.36 376.584V381H715.12V372.136H717.36V373.512Z" fill="white"/>
<path d="M729.828 376.376C729.828 376.696 729.807 376.984 729.764 377.24H723.284C723.338 377.88 723.562 378.381 723.956 378.744C724.351 379.107 724.836 379.288 725.412 379.288C726.244 379.288 726.836 378.931 727.188 378.216H729.604C729.348 379.069 728.858 379.773 728.132 380.328C727.407 380.872 726.516 381.144 725.46 381.144C724.607 381.144 723.839 380.957 723.156 380.584C722.484 380.2 721.956 379.661 721.572 378.968C721.199 378.275 721.012 377.475 721.012 376.568C721.012 375.651 721.199 374.845 721.572 374.152C721.946 373.459 722.468 372.925 723.14 372.552C723.812 372.179 724.586 371.992 725.46 371.992C726.303 371.992 727.055 372.173 727.716 372.536C728.388 372.899 728.906 373.416 729.268 374.088C729.642 374.749 729.828 375.512 729.828 376.376ZM727.508 375.736C727.498 375.16 727.29 374.701 726.884 374.36C726.479 374.008 725.983 373.832 725.396 373.832C724.842 373.832 724.372 374.003 723.988 374.344C723.615 374.675 723.386 375.139 723.3 375.736H727.508Z" fill="white"/>
<path d="M617.392 390.136L614.8 399H612.384L610.768 392.808L609.152 399H606.72L604.112 390.136H606.384L607.952 396.888L609.648 390.136H612.016L613.68 396.872L615.248 390.136H617.392Z" fill="white"/>
<path d="M622.54 399.144C621.687 399.144 620.919 398.957 620.236 398.584C619.553 398.2 619.015 397.661 618.62 396.968C618.236 396.275 618.044 395.475 618.044 394.568C618.044 393.661 618.241 392.861 618.636 392.168C619.041 391.475 619.591 390.941 620.284 390.568C620.977 390.184 621.751 389.992 622.604 389.992C623.457 389.992 624.231 390.184 624.924 390.568C625.617 390.941 626.161 391.475 626.556 392.168C626.961 392.861 627.164 393.661 627.164 394.568C627.164 395.475 626.956 396.275 626.54 396.968C626.135 397.661 625.58 398.2 624.876 398.584C624.183 398.957 623.404 399.144 622.54 399.144ZM622.54 397.192C622.945 397.192 623.324 397.096 623.676 396.904C624.039 396.701 624.327 396.403 624.54 396.008C624.753 395.613 624.86 395.133 624.86 394.568C624.86 393.725 624.636 393.08 624.188 392.632C623.751 392.173 623.212 391.944 622.572 391.944C621.932 391.944 621.393 392.173 620.956 392.632C620.529 393.08 620.316 393.725 620.316 394.568C620.316 395.411 620.524 396.061 620.94 396.52C621.367 396.968 621.9 397.192 622.54 397.192Z" fill="white"/>
<path d="M631.047 391.512C631.335 391.043 631.709 390.675 632.167 390.408C632.637 390.141 633.17 390.008 633.767 390.008V392.36H633.175C632.471 392.36 631.938 392.525 631.575 392.856C631.223 393.187 631.047 393.763 631.047 394.584V399H628.807V390.136H631.047V391.512Z" fill="white"/>
<path d="M640.524 399L637.516 395.224V399H635.276V387.16H637.516V393.896L640.492 390.136H643.404L639.5 394.584L643.436 399H640.524Z" fill="white"/>
<path d="M645.756 389.08C645.361 389.08 645.03 388.957 644.764 388.712C644.508 388.456 644.38 388.141 644.38 387.768C644.38 387.395 644.508 387.085 644.764 386.84C645.03 386.584 645.361 386.456 645.756 386.456C646.15 386.456 646.476 386.584 646.732 386.84C646.998 387.085 647.132 387.395 647.132 387.768C647.132 388.141 646.998 388.456 646.732 388.712C646.476 388.957 646.15 389.08 645.756 389.08ZM646.86 390.136V399H644.62V390.136H646.86Z" fill="white"/>
<path d="M653.985 390.008C655.041 390.008 655.894 390.344 656.545 391.016C657.195 391.677 657.521 392.605 657.521 393.8V399H655.281V394.104C655.281 393.4 655.105 392.861 654.753 392.488C654.401 392.104 653.921 391.912 653.313 391.912C652.694 391.912 652.203 392.104 651.841 392.488C651.489 392.861 651.313 393.4 651.313 394.104V399H649.073V390.136H651.313V391.24C651.611 390.856 651.99 390.557 652.449 390.344C652.918 390.12 653.43 390.008 653.985 390.008Z" fill="white"/>
<path d="M663.123 389.992C663.784 389.992 664.366 390.125 664.867 390.392C665.368 390.648 665.763 390.984 666.051 391.4V390.136H668.307V399.064C668.307 399.885 668.142 400.616 667.811 401.256C667.48 401.907 666.984 402.419 666.323 402.792C665.662 403.176 664.862 403.368 663.923 403.368C662.664 403.368 661.63 403.075 660.819 402.488C660.019 401.901 659.566 401.101 659.459 400.088H661.683C661.8 400.493 662.051 400.813 662.435 401.048C662.83 401.293 663.304 401.416 663.859 401.416C664.51 401.416 665.038 401.219 665.443 400.824C665.848 400.44 666.051 399.853 666.051 399.064V397.688C665.763 398.104 665.363 398.451 664.851 398.728C664.35 399.005 663.774 399.144 663.123 399.144C662.376 399.144 661.694 398.952 661.075 398.568C660.456 398.184 659.966 397.645 659.603 396.952C659.251 396.248 659.075 395.443 659.075 394.536C659.075 393.64 659.251 392.845 659.603 392.152C659.966 391.459 660.451 390.925 661.059 390.552C661.678 390.179 662.366 389.992 663.123 389.992ZM666.051 394.568C666.051 394.024 665.944 393.56 665.731 393.176C665.518 392.781 665.23 392.483 664.867 392.28C664.504 392.067 664.115 391.96 663.699 391.96C663.283 391.96 662.899 392.061 662.547 392.264C662.195 392.467 661.907 392.765 661.683 393.16C661.47 393.544 661.363 394.003 661.363 394.536C661.363 395.069 661.47 395.539 661.683 395.944C661.907 396.339 662.195 396.643 662.547 396.856C662.91 397.069 663.294 397.176 663.699 397.176C664.115 397.176 664.504 397.075 664.867 396.872C665.23 396.659 665.518 396.36 665.731 395.976C665.944 395.581 666.051 395.112 666.051 394.568Z" fill="white"/>
<path d="M678.243 399.144C677.39 399.144 676.622 398.957 675.939 398.584C675.257 398.2 674.718 397.661 674.323 396.968C673.939 396.275 673.747 395.475 673.747 394.568C673.747 393.661 673.945 392.861 674.339 392.168C674.745 391.475 675.294 390.941 675.987 390.568C676.681 390.184 677.454 389.992 678.307 389.992C679.161 389.992 679.934 390.184 680.627 390.568C681.321 390.941 681.865 391.475 682.259 392.168C682.665 392.861 682.867 393.661 682.867 394.568C682.867 395.475 682.659 396.275 682.243 396.968C681.838 397.661 681.283 398.2 680.579 398.584C679.886 398.957 679.107 399.144 678.243 399.144ZM678.243 397.192C678.649 397.192 679.027 397.096 679.379 396.904C679.742 396.701 680.03 396.403 680.243 396.008C680.457 395.613 680.563 395.133 680.563 394.568C680.563 393.725 680.339 393.08 679.891 392.632C679.454 392.173 678.915 391.944 678.275 391.944C677.635 391.944 677.097 392.173 676.659 392.632C676.233 393.08 676.019 393.725 676.019 394.568C676.019 395.411 676.227 396.061 676.643 396.52C677.07 396.968 677.603 397.192 678.243 397.192Z" fill="white"/>
<path d="M689.422 390.008C690.478 390.008 691.332 390.344 691.982 391.016C692.633 391.677 692.958 392.605 692.958 393.8V399H690.718V394.104C690.718 393.4 690.542 392.861 690.19 392.488C689.838 392.104 689.358 391.912 688.75 391.912C688.132 391.912 687.641 392.104 687.278 392.488C686.926 392.861 686.75 393.4 686.75 394.104V399H684.51V390.136H686.75V391.24C687.049 390.856 687.428 390.557 687.886 390.344C688.356 390.12 688.868 390.008 689.422 390.008Z" fill="white"/>
<path d="M700.037 389.08C699.642 389.08 699.312 388.957 699.045 388.712C698.789 388.456 698.661 388.141 698.661 387.768C698.661 387.395 698.789 387.085 699.045 386.84C699.312 386.584 699.642 386.456 700.037 386.456C700.432 386.456 700.757 386.584 701.013 386.84C701.28 387.085 701.413 387.395 701.413 387.768C701.413 388.141 701.28 388.456 701.013 388.712C700.757 388.957 700.432 389.08 700.037 389.08ZM701.141 390.136V399H698.901V390.136H701.141Z" fill="white"/>
<path d="M705.962 391.976V396.264C705.962 396.563 706.031 396.781 706.17 396.92C706.319 397.048 706.565 397.112 706.906 397.112H707.946V399H706.538C704.65 399 703.706 398.083 703.706 396.248V391.976H702.65V390.136H703.706V387.944H705.962V390.136H707.946V391.976H705.962Z" fill="white"/>
<path d="M712.453 387.64L712.197 395.368H710.309L710.037 387.64H712.453ZM711.301 399.112C710.896 399.112 710.56 398.989 710.293 398.744C710.037 398.488 709.909 398.173 709.909 397.8C709.909 397.427 710.037 397.117 710.293 396.872C710.56 396.616 710.896 396.488 711.301 396.488C711.696 396.488 712.021 396.616 712.277 396.872C712.533 397.117 712.661 397.427 712.661 397.8C712.661 398.173 712.533 398.488 712.277 398.744C712.021 398.989 711.696 399.112 711.301 399.112Z" fill="white"/>
<path d="M529 354C529 348.477 533.477 344 539 344H581C586.523 344 591 348.477 591 354V396C591 401.523 586.523 406 581 406H539C533.477 406 529 401.523 529 396V354Z" fill="#0D6AF6"/>
<path d="M560.125 390.75C562.176 390.75 563.817 389.109 563.817 387H556.375C556.375 389.109 558.016 390.75 560.125 390.75ZM572.723 382.02C571.609 380.789 569.442 378.973 569.442 372.938C569.442 368.426 566.277 364.793 561.942 363.855V362.625C561.942 361.629 561.121 360.75 560.125 360.75C559.07 360.75 558.25 361.629 558.25 362.625V363.855C553.914 364.793 550.75 368.426 550.75 372.938C550.75 378.973 548.582 380.789 547.469 382.02C547.117 382.371 546.942 382.84 547 383.25C547 384.246 547.703 385.125 548.875 385.125H571.317C572.488 385.125 573.192 384.246 573.25 383.25C573.25 382.84 573.074 382.371 572.723 382.02Z" fill="white"/>
<defs>
<filter id="filter0_d_810_27" x="316" y="0" width="182" height="74" filterUnits="userSpaceOnUse" color-interpolation-filters="sRGB">
<feFlood flood-opacity="0" result="BackgroundImageFix"/>
<feColorMatrix in="SourceAlpha" type="matrix" values="0 0 0 0 0 0 0 0 0 0 0 0 0 0 0 0 0 0 127 0" result="hardAlpha"/>
<feOffset dy="4"/>
<feGaussianBlur stdDeviation="7"/>
<feColorMatrix type="matrix" values="0 0 0 0 0.156863 0 0 0 0 0.592157 0 0 0 0 0.952941 0 0 0 0.3 0"/>
<feBlend mode="normal" in2="BackgroundImageFix" result="effect1_dropShadow_810_27"/>
<feBlend mode="normal" in="SourceGraphic" in2="effect1_dropShadow_810_27" result="shape"/>
</filter>
<filter id="filter1_d_810_27" x="344" y="27" width="20" height="20" filterUnits="userSpaceOnUse" color-interpolation-filters="sRGB">
<feFlood flood-opacity="0" result="BackgroundImageFix"/>
<feColorMatrix in="SourceAlpha" type="matrix" values="0 0 0 0 0 0 0 0 0 0 0 0 0 0 0 0 0 0 127 0" result="hardAlpha"/>
<feOffset dy="4"/>
<feGaussianBlur stdDeviation="2"/>
<feComposite in2="hardAlpha" operator="out"/>
<feColorMatrix type="matrix" values="0 0 0 0 0.180392 0 0 0 0 0.8 0 0 0 0 0.25098 0 0 0 0.25 0"/>
<feBlend mode="normal" in2="BackgroundImageFix" result="effect1_dropShadow_810_27"/>
<feBlend mode="normal" in="SourceGraphic" in2="effect1_dropShadow_810_27" result="shape"/>
</filter>
<filter id="filter2_d_810_27" x="316" y="85" width="182" height="74" filterUnits="userSpaceOnUse" color-interpolation-filters="sRGB">
<feFlood flood-opacity="0" result="BackgroundImageFix"/>
<feColorMatrix in="SourceAlpha" type="matrix" values="0 0 0 0 0 0 0 0 0 0 0 0 0 0 0 0 0 0 127 0" result="hardAlpha"/>
<feOffset dy="4"/>
<feGaussianBlur stdDeviation="7"/>
<feColorMatrix type="matrix" values="0 0 0 0 0.156863 0 0 0 0 0.592157 0 0 0 0 0.952941 0 0 0 0.3 0"/>
<feBlend mode="normal" in2="BackgroundImageFix" result="effect1_dropShadow_810_27"/>
<feBlend mode="normal" in="SourceGraphic" in2="effect1_dropShadow_810_27" result="shape"/>
</filter>
<filter id="filter3_d_810_27" x="350" y="112" width="20" height="20" filterUnits="userSpaceOnUse" color-interpolation-filters="sRGB">
<feFlood flood-opacity="0" result="BackgroundImageFix"/>
<feColorMatrix in="SourceAlpha" type="matrix" values="0 0 0 0 0 0 0 0 0 0 0 0 0 0 0 0 0 0 127 0" result="hardAlpha"/>
<feOffset dy="4"/>
<feGaussianBlur stdDeviation="2"/>
<feComposite in2="hardAlpha" operator="out"/>
<feColorMatrix type="matrix" values="0 0 0 0 0.180392 0 0 0 0 0.8 0 0 0 0 0.25098 0 0 0 0.25 0"/>
<feBlend mode="normal" in2="BackgroundImageFix" result="effect1_dropShadow_810_27"/>
<feBlend mode="normal" in="SourceGraphic" in2="effect1_dropShadow_810_27" result="shape"/>
</filter>
<filter id="filter4_d_810_27" x="316" y="170" width="182" height="74" filterUnits="userSpaceOnUse" color-interpolation-filters="sRGB">
<feFlood flood-opacity="0" result="BackgroundImageFix"/>
<feColorMatrix in="SourceAlpha" type="matrix" values="0 0 0 0 0 0 0 0 0 0 0 0 0 0 0 0 0 0 127 0" result="hardAlpha"/>
<feOffset dy="4"/>
<feGaussianBlur stdDeviation="7"/>
<feColorMatrix type="matrix" values="0 0 0 0 0.156863 0 0 0 0 0.592157 0 0 0 0 0.952941 0 0 0 0.3 0"/>
<feBlend mode="normal" in2="BackgroundImageFix" result="effect1_dropShadow_810_27"/>
<feBlend mode="normal" in="SourceGraphic" in2="effect1_dropShadow_810_27" result="shape"/>
</filter>
<filter id="filter5_d_810_27" x="355" y="197" width="20" height="20" filterUnits="userSpaceOnUse" color-interpolation-filters="sRGB">
<feFlood flood-opacity="0" result="BackgroundImageFix"/>
<feColorMatrix in="SourceAlpha" type="matrix" values="0 0 0 0 0 0 0 0 0 0 0 0 0 0 0 0 0 0 127 0" result="hardAlpha"/>
<feOffset dy="4"/>
<feGaussianBlur stdDeviation="2"/>
<feComposite in2="hardAlpha" operator="out"/>
<feColorMatrix type="matrix" values="0 0 0 0 0.980392 0 0 0 0 0.407843 0 0 0 0 0.27451 0 0 0 0.25 0"/>
<feBlend mode="normal" in2="BackgroundImageFix" result="effect1_dropShadow_810_27"/>
<feBlend mode="normal" in="SourceGraphic" in2="effect1_dropShadow_810_27" result="shape"/>
</filter>
<filter id="filter6_d_810_27" x="316" y="255" width="182" height="74" filterUnits="userSpaceOnUse" color-interpolation-filters="sRGB">
<feFlood flood-opacity="0" result="BackgroundImageFix"/>
<feColorMatrix in="SourceAlpha" type="matrix" values="0 0 0 0 0 0 0 0 0 0 0 0 0 0 0 0 0 0 127 0" result="hardAlpha"/>
<feOffset dy="4"/>
<feGaussianBlur stdDeviation="7"/>
<feColorMatrix type="matrix" values="0 0 0 0 0.156863 0 0 0 0 0.592157 0 0 0 0 0.952941 0 0 0 0.3 0"/>
<feBlend mode="normal" in2="BackgroundImageFix" result="effect1_dropShadow_810_27"/>
<feBlend mode="normal" in="SourceGraphic" in2="effect1_dropShadow_810_27" result="shape"/>
</filter>
<filter id="filter7_d_810_27" x="352" y="282" width="20" height="20" filterUnits="userSpaceOnUse" color-interpolation-filters="sRGB">
<feFlood flood-opacity="0" result="BackgroundImageFix"/>
<feColorMatrix in="SourceAlpha" type="matrix" values="0 0 0 0 0 0 0 0 0 0 0 0 0 0 0 0 0 0 127 0" result="hardAlpha"/>
<feOffset dy="4"/>
<feGaussianBlur stdDeviation="2"/>
<feComposite in2="hardAlpha" operator="out"/>
<feColorMatrix type="matrix" values="0 0 0 0 0.980392 0 0 0 0 0.407843 0 0 0 0 0.27451 0 0 0 0.25 0"/>
<feBlend mode="normal" in2="BackgroundImageFix" result="effect1_dropShadow_810_27"/>
<feBlend mode="normal" in="SourceGraphic" in2="effect1_dropShadow_810_27" result="shape"/>
</filter>
<filter id="filter8_d_810_27" x="316" y="340" width="182" height="74" filterUnits="userSpaceOnUse" color-interpolation-filters="sRGB">
<feFlood flood-opacity="0" result="BackgroundImageFix"/>
<feColorMatrix in="SourceAlpha" type="matrix" values="0 0 0 0 0 0 0 0 0 0 0 0 0 0 0 0 0 0 127 0" result="hardAlpha"/>
<feOffset dy="4"/>
<feGaussianBlur stdDeviation="7"/>
<feColorMatrix type="matrix" values="0 0 0 0 0.156863 0 0 0 0 0.592157 0 0 0 0 0.952941 0 0 0 0.3 0"/>
<feBlend mode="normal" in2="BackgroundImageFix" result="effect1_dropShadow_810_27"/>
<feBlend mode="normal" in="SourceGraphic" in2="effect1_dropShadow_810_27" result="shape"/>
</filter>
<filter id="filter9_d_810_27" x="365" y="367" width="20" height="20" filterUnits="userSpaceOnUse" color-interpolation-filters="sRGB">
<feFlood flood-opacity="0" result="BackgroundImageFix"/>
<feColorMatrix in="SourceAlpha" type="matrix" values="0 0 0 0 0 0 0 0 0 0 0 0 0 0 0 0 0 0 127 0" result="hardAlpha"/>
<feOffset dy="4"/>
<feGaussianBlur stdDeviation="2"/>
<feComposite in2="hardAlpha" operator="out"/>
<feColorMatrix type="matrix" values="0 0 0 0 0.980392 0 0 0 0 0.407843 0 0 0 0 0.27451 0 0 0 0.25 0"/>
<feBlend mode="normal" in2="BackgroundImageFix" result="effect1_dropShadow_810_27"/>
<feBlend mode="normal" in="SourceGraphic" in2="effect1_dropShadow_810_27" result="shape"/>
</filter>
<filter id="filter10_d_810_27" x="0" y="99" width="326.746" height="128.627" filterUnits="userSpaceOnUse" color-interpolation-filters="sRGB">
<feFlood flood-opacity="0" result="BackgroundImageFix"/>
<feColorMatrix in="SourceAlpha" type="matrix" values="0 0 0 0 0 0 0 0 0 0 0 0 0 0 0 0 0 0 127 0" result="hardAlpha"/>
<feOffset dy="4"/>
<feGaussianBlur stdDeviation="10"/>
<feComposite in2="hardAlpha" operator="out"/>
<feColorMatrix type="matrix" values="0 0 0 0 0.156863 0 0 0 0 0.592157 0 0 0 0 0.952941 0 0 0 0.3 0"/>
<feBlend mode="normal" in2="BackgroundImageFix" result="effect1_dropShadow_810_27"/>
<feBlend mode="normal" in="SourceGraphic" in2="effect1_dropShadow_810_27" result="shape"/>
</filter>
<filter id="filter11_d_810_27" x="492" y="317" width="322" height="124" filterUnits="userSpaceOnUse" color-interpolation-filters="sRGB">
<feFlood flood-opacity="0" result="BackgroundImageFix"/>
<feColorMatrix in="SourceAlpha" type="matrix" values="0 0 0 0 0 0 0 0 0 0 0 0 0 0 0 0 0 0 127 0" result="hardAlpha"/>
<feOffset dy="4"/>
<feGaussianBlur stdDeviation="10"/>
<feComposite in2="hardAlpha" operator="out"/>
<feColorMatrix type="matrix" values="0 0 0 0 0.156863 0 0 0 0 0.592157 0 0 0 0 0.952941 0 0 0 0.3 0"/>
<feBlend mode="normal" in2="BackgroundImageFix" result="effect1_dropShadow_810_27"/>
<feBlend mode="normal" in="SourceGraphic" in2="effect1_dropShadow_810_27" result="shape"/>
</filter>
</defs>
</svg>
