<svg viewBox="0 0 1265 796" fill="none" xmlns="http://www.w3.org/2000/svg">
<rect x="0.500488" y="0.628296" width="623.499" height="794.87" rx="25" fill="url(#paint0_linear_1334_149)"/>
<g filter="url(#filter0_i_1334_149)">
<rect x="327" y="89" width="837" height="590" rx="30" fill="#F5F5F5"/>
</g>
<rect x="353" y="113" width="785" height="517" rx="22" fill="white"/>
<rect x="353" y="113" width="785" height="517" rx="22" fill="#E4EEF5" fill-opacity="0.3"/>
<g filter="url(#filter1_di_1334_149)">
<rect x="289" y="645" width="913" height="40" rx="20" fill="#F5F5F5"/>
</g>
<g filter="url(#filter2_d_1334_149)">
<rect x="364" y="196" width="234" height="130" rx="10" fill="#E9EFF4"/>
</g>
<path d="M364 205C364 200.029 368.029 196 373 196H589C593.971 196 598 200.029 598 205H364Z" fill="#7EEA88"/>
<g filter="url(#filter3_d_1334_149)">
<rect x="629" y="196" width="234" height="130" rx="10" fill="#E9EFF4"/>
</g>
<path d="M629 205C629 200.029 633.029 196 638 196H854C858.971 196 863 200.029 863 205H629Z" fill="#7EEA88"/>
<g filter="url(#filter4_d_1334_149)">
<rect x="894" y="196" width="234" height="130" rx="10" fill="#E9EFF4"/>
</g>
<path d="M894 205C894 200.029 898.029 196 903 196H1119C1123.97 196 1128 200.029 1128 205H894Z" fill="#7EEA88"/>
<g filter="url(#filter5_d_1334_149)">
<rect x="364" y="376" width="234" height="130" rx="10" fill="#E9EFF4"/>
</g>
<path d="M364 385C364 380.029 368.029 376 373 376H589C593.971 376 598 380.029 598 385H364Z" fill="#7EEA88"/>
<g filter="url(#filter6_d_1334_149)">
<rect x="629" y="376" width="234" height="130" rx="10" fill="#E9EFF4"/>
</g>
<path d="M629 385C629 380.029 633.029 376 638 376H854C858.971 376 863 380.029 863 385H629Z" fill="#7EEA88"/>
<g filter="url(#filter7_d_1334_149)">
<rect x="894" y="376" width="234" height="130" rx="10" fill="#E9EFF4"/>
</g>
<path d="M894 385C894 380.029 898.029 376 903 376H1119C1123.97 376 1128 380.029 1128 385H894Z" fill="#7EEA88"/>
<rect x="353" y="113" width="785" height="517" rx="22" fill="url(#paint1_linear_1334_149)"/>
<g filter="url(#filter8_di_1334_149)">
<rect x="1013.28" y="294.923" width="208.005" height="409.077" rx="30" fill="#F5F5F5"/>
</g>
<rect x="1027.84" y="308.097" width="178.884" height="382.036" rx="22" fill="white"/>
<rect x="1027.84" y="308.097" width="178.884" height="382.036" rx="22" fill="#E4EEF5" fill-opacity="0.4"/>
<g filter="url(#filter9_d_1334_149)">
<rect x="1088.16" y="342.764" width="162.244" height="90.1356" rx="10" fill="#E9EFF4"/>
</g>
<path d="M1088.16 349.004C1088.16 345.558 1090.96 342.764 1094.4 342.764H1244.17C1247.61 342.764 1250.41 345.558 1250.41 349.004H1088.16Z" fill="#7EEA88"/>
<g filter="url(#filter10_d_1334_149)">
<rect x="980" y="450.234" width="162.244" height="90.1356" rx="10" fill="#E9EFF4"/>
</g>
<path d="M980 456.474C980 453.027 982.794 450.234 986.24 450.234H1136C1139.45 450.234 1142.24 453.027 1142.24 456.474H980Z" fill="#7EEA88"/>
<g filter="url(#filter11_d_1334_149)">
<rect x="1085.39" y="558.396" width="162.244" height="90.1356" rx="10" fill="#E9EFF4"/>
</g>
<path d="M1085.39 564.637C1085.39 561.19 1088.18 558.396 1091.63 558.396H1241.39C1244.84 558.396 1247.63 561.19 1247.63 564.637H1085.39Z" fill="#7EEA88"/>
<g filter="url(#filter12_d_1334_149)">
<path d="M1214 181C1214 208.614 1191.61 231 1164 231C1136.39 231 1114 208.614 1114 181C1114 153.386 1136.39 131 1164 131C1191.61 131 1214 153.386 1214 181Z" fill="#0D6AF6"/>
</g>
<path d="M1165.01 208C1168.6 208 1171.48 205.047 1171.48 201.25H1158.44C1158.44 205.047 1161.31 208 1165.01 208ZM1187.08 192.285C1185.13 190.07 1181.33 186.801 1181.33 175.938C1181.33 167.816 1175.79 161.277 1168.19 159.59V157.375C1168.19 155.582 1166.75 154 1165.01 154C1163.16 154 1161.73 155.582 1161.73 157.375V159.59C1154.13 161.277 1148.59 167.816 1148.59 175.938C1148.59 186.801 1144.79 190.07 1142.84 192.285C1142.22 192.918 1141.92 193.762 1142.02 194.5C1142.02 196.293 1143.25 197.875 1145.3 197.875H1184.61C1186.67 197.875 1187.9 196.293 1188 194.5C1188 193.762 1187.69 192.918 1187.08 192.285Z" fill="white"/>
<g filter="url(#filter13_d_1334_149)">
<path d="M377 309C377 342.137 350.137 369 317 369C283.863 369 257 342.137 257 309C257 275.863 283.863 249 317 249C350.137 249 377 275.863 377 309Z" fill="#826EF5"/>
</g>
<path d="M331.25 316.875C328.353 316.875 325.707 317.883 323.691 319.521L310.716 311.458C310.968 310.702 310.968 309.82 310.968 308.812C310.968 307.931 310.968 307.049 310.716 306.293L323.691 298.23C325.707 299.868 328.353 300.75 331.25 300.75C337.927 300.75 343.344 295.459 343.344 288.656C343.344 281.979 337.927 276.562 331.25 276.562C324.447 276.562 319.156 281.979 319.156 288.656C319.156 289.664 319.156 290.546 319.408 291.302L306.433 299.364C304.417 297.727 301.771 296.719 299 296.719C292.197 296.719 286.906 302.136 286.906 308.812C286.906 315.615 292.197 320.906 299 320.906C301.771 320.906 304.417 320.024 306.433 318.387L319.408 326.449C319.156 327.205 319.156 328.087 319.156 329.095V328.969C319.156 335.771 324.447 341.062 331.25 341.062C337.927 341.062 343.344 335.771 343.344 328.969C343.344 322.292 337.927 316.875 331.25 316.875Z" fill="white"/>
<rect x="776" y="313" width="282" height="84" rx="20" fill="#C7C7C7" fill-opacity="0.6"/>
<path d="M793 339C793 330.716 799.716 324 808 324H840C848.284 324 855 330.716 855 339V371C855 379.284 848.284 386 840 386H808C799.716 386 793 379.284 793 371V339Z" fill="#E4EEF5"/>
<path d="M793 336.056C793 329.397 798.397 324 805.056 324H842.944C849.603 324 855 329.397 855 336.056H793Z" fill="#7EEA88"/>
<path fill-rule="evenodd" clip-rule="evenodd" d="M838.655 361.747C839.33 362.626 839.291 364.004 838.567 364.825C830.728 373.714 817.877 374.709 809.412 364.801C808.699 363.967 808.678 362.588 809.365 361.722C810.052 360.855 811.187 360.83 811.9 361.664C818.869 369.821 829.546 369.095 836.121 361.64C836.845 360.82 837.979 360.867 838.655 361.747Z" fill="#6F6C84"/>
<path d="M793 334.535H855V338.168H793V334.535Z" fill="#8A8EAC"/>
<rect x="868" y="340" width="121" height="8" rx="4" fill="#C4C4C4"/>
<rect x="868" y="361" width="172" height="8" rx="4" fill="#C4C4C4"/>
<path d="M494 72.7143C494 64.0355 501.049 57 509.745 57H700.255C708.951 57 716 64.0355 716 72.7143V107.286C716 115.964 708.951 123 700.255 123H509.745C501.049 123 494 115.964 494 107.286V72.7143Z" fill="#C7C7C7" fill-opacity="0.6"/>
<path d="M566 81.5C566 79.567 567.406 78 569.14 78H657.86C659.594 78 661 79.567 661 81.5C661 83.433 659.594 85 657.86 85H569.14C567.406 85 566 83.433 566 81.5Z" fill="#C4C4C4"/>
<path d="M566 98C566 96.3431 567.406 95 569.14 95H697.86C699.594 95 701 96.3431 701 98C701 99.6569 699.594 101 697.86 101H569.14C567.406 101 566 99.6569 566 98Z" fill="#C4C4C4"/>
<path d="M507 73.7419C507 69.4662 510.538 66 514.903 66H548.097C552.462 66 556 69.4662 556 73.7419V106.258C556 110.534 552.462 114 548.097 114H514.903C510.538 114 507 110.534 507 106.258V73.7419Z" fill="#826EF5"/>
<path d="M539.5 82H524.5C523.094 82 522 83.1319 522 84.4981V95.7394C522 97.1446 523.094 98.2375 524.5 98.2375H528.25V101.516C528.25 101.907 528.68 102.141 528.992 101.907L533.875 98.2375H539.5C540.867 98.2375 542 97.1446 542 95.7394V84.4981C542 83.1319 540.867 82 539.5 82Z" fill="white"/>
<path d="M786 541.667C786 535.223 791.207 530 797.631 530H938.369C944.793 530 950 535.223 950 541.667V567.333C950 573.777 944.793 579 938.369 579H797.631C791.207 579 786 573.777 786 567.333V541.667Z" fill="#C7C7C7" fill-opacity="0.6"/>
<path d="M839 548C839 546.895 840.051 546 841.347 546H907.653C908.949 546 910 546.895 910 548C910 549.105 908.949 550 907.653 550H841.347C840.051 550 839 549.105 839 548Z" fill="#C4C4C4"/>
<path d="M839 560.5C839 559.119 840.041 558 841.326 558H936.674C937.959 558 939 559.119 939 560.5C939 561.881 937.959 563 936.674 563H841.326C840.041 563 839 561.881 839 560.5Z" fill="#C4C4C4"/>
<path d="M795 541.968C795 538.672 797.672 536 800.968 536H826.032C829.328 536 832 538.672 832 541.968V567.032C832 570.328 829.328 573 826.032 573H800.968C797.672 573 795 570.328 795 567.032V541.968Z" fill="#826EF5"/>
<path d="M819.125 548H807.875C806.82 548 806 548.849 806 549.874V558.305C806 559.358 806.82 560.178 807.875 560.178H810.688V562.637C810.688 562.93 811.01 563.106 811.244 562.93L814.906 560.178H819.125C820.15 560.178 821 559.358 821 558.305V549.874C821 548.849 820.15 548 819.125 548Z" fill="white"/>
<rect x="181" y="523" width="282" height="84" rx="20" fill="#C7C7C7" fill-opacity="0.6"/>
<rect x="273" y="550" width="121" height="8" rx="4" fill="#C4C4C4"/>
<rect x="273" y="571" width="172" height="8" rx="4" fill="#C4C4C4"/>
<rect x="198" y="534" width="62" height="62" rx="10" fill="#0D6AF6"/>
<path d="M241.492 562.949C240.324 563.863 238.852 564.98 233.672 568.738C232.656 569.5 230.777 571.176 229 571.176C227.172 571.176 225.344 569.5 224.277 568.738C219.098 564.98 217.625 563.863 216.457 562.949C216.254 562.797 216 562.949 216 563.203V573.562C216 574.934 217.066 576 218.438 576H239.562C240.883 576 242 574.934 242 573.562V563.203C242 562.949 241.695 562.797 241.492 562.949ZM229 569.5C230.168 569.551 231.844 568.027 232.707 567.418C239.461 562.543 239.969 562.086 241.492 560.867C241.797 560.664 242 560.309 242 559.902V558.938C242 557.617 240.883 556.5 239.562 556.5H218.438C217.066 556.5 216 557.617 216 558.938V559.902C216 560.309 216.152 560.664 216.457 560.867C217.98 562.086 218.488 562.543 225.242 567.418C226.105 568.027 227.781 569.551 229 569.5Z" fill="white"/>
<g filter="url(#filter14_d_1334_149)">
<path d="M671 499.5C671 519.658 654.658 536 634.5 536C614.342 536 598 519.658 598 499.5C598 479.342 614.342 463 634.5 463C654.658 463 671 479.342 671 499.5Z" fill="#0D6AF6"/>
</g>
<path d="M616 481.25C616 479.455 617.428 478 619.19 478H649.81C651.572 478 653 479.455 653 481.25V487.75C653 489.545 651.572 491 649.81 491H619.19C617.428 491 616 489.545 616 487.75V481.25Z" fill="white"/>
<path d="M616 512C616 510.343 617.428 509 619.19 509H649.81C651.572 509 653 510.343 653 512V518C653 519.657 651.572 521 649.81 521H619.19C617.428 521 616 519.657 616 518V512Z" fill="white"/>
<path fill-rule="evenodd" clip-rule="evenodd" d="M640 497.429L634.5 506L629 497.429L633.547 497.429L633.547 494L635.453 494L635.453 497.429L640 497.429Z" fill="white"/>
<defs>
<filter id="filter0_i_1334_149" x="327" y="89" width="837" height="590" filterUnits="userSpaceOnUse" color-interpolation-filters="sRGB">
<feFlood flood-opacity="0" result="BackgroundImageFix"/>
<feBlend mode="normal" in="SourceGraphic" in2="BackgroundImageFix" result="shape"/>
<feColorMatrix in="SourceAlpha" type="matrix" values="0 0 0 0 0 0 0 0 0 0 0 0 0 0 0 0 0 0 127 0" result="hardAlpha"/>
<feMorphology radius="10" operator="erode" in="SourceAlpha" result="effect1_innerShadow_1334_149"/>
<feOffset/>
<feGaussianBlur stdDeviation="5.5"/>
<feComposite in2="hardAlpha" operator="arithmetic" k2="-1" k3="1"/>
<feColorMatrix type="matrix" values="0 0 0 0 0.675 0 0 0 0 0.632812 0 0 0 0 0.632812 0 0 0 0.25 0"/>
<feBlend mode="normal" in2="shape" result="effect1_innerShadow_1334_149"/>
</filter>
<filter id="filter1_di_1334_149" x="273" y="639" width="945" height="72" filterUnits="userSpaceOnUse" color-interpolation-filters="sRGB">
<feFlood flood-opacity="0" result="BackgroundImageFix"/>
<feColorMatrix in="SourceAlpha" type="matrix" values="0 0 0 0 0 0 0 0 0 0 0 0 0 0 0 0 0 0 127 0" result="hardAlpha"/>
<feOffset dy="10"/>
<feGaussianBlur stdDeviation="8"/>
<feComposite in2="hardAlpha" operator="out"/>
<feColorMatrix type="matrix" values="0 0 0 0 0.156863 0 0 0 0 0.592157 0 0 0 0 0.952941 0 0 0 0.25 0"/>
<feBlend mode="normal" in2="BackgroundImageFix" result="effect1_dropShadow_1334_149"/>
<feBlend mode="normal" in="SourceGraphic" in2="effect1_dropShadow_1334_149" result="shape"/>
<feColorMatrix in="SourceAlpha" type="matrix" values="0 0 0 0 0 0 0 0 0 0 0 0 0 0 0 0 0 0 127 0" result="hardAlpha"/>
<feMorphology radius="10" operator="erode" in="SourceAlpha" result="effect2_innerShadow_1334_149"/>
<feOffset/>
<feGaussianBlur stdDeviation="5.5"/>
<feComposite in2="hardAlpha" operator="arithmetic" k2="-1" k3="1"/>
<feColorMatrix type="matrix" values="0 0 0 0 0.675 0 0 0 0 0.632812 0 0 0 0 0.632812 0 0 0 0.25 0"/>
<feBlend mode="normal" in2="shape" result="effect2_innerShadow_1334_149"/>
</filter>
<filter id="filter2_d_1334_149" x="350" y="186" width="262" height="158" filterUnits="userSpaceOnUse" color-interpolation-filters="sRGB">
<feFlood flood-opacity="0" result="BackgroundImageFix"/>
<feColorMatrix in="SourceAlpha" type="matrix" values="0 0 0 0 0 0 0 0 0 0 0 0 0 0 0 0 0 0 127 0" result="hardAlpha"/>
<feOffset dy="4"/>
<feGaussianBlur stdDeviation="7"/>
<feComposite in2="hardAlpha" operator="out"/>
<feColorMatrix type="matrix" values="0 0 0 0 0.788235 0 0 0 0 0.858824 0 0 0 0 0.913725 0 0 0 1 0"/>
<feBlend mode="normal" in2="BackgroundImageFix" result="effect1_dropShadow_1334_149"/>
<feBlend mode="normal" in="SourceGraphic" in2="effect1_dropShadow_1334_149" result="shape"/>
</filter>
<filter id="filter3_d_1334_149" x="615" y="186" width="262" height="158" filterUnits="userSpaceOnUse" color-interpolation-filters="sRGB">
<feFlood flood-opacity="0" result="BackgroundImageFix"/>
<feColorMatrix in="SourceAlpha" type="matrix" values="0 0 0 0 0 0 0 0 0 0 0 0 0 0 0 0 0 0 127 0" result="hardAlpha"/>
<feOffset dy="4"/>
<feGaussianBlur stdDeviation="7"/>
<feComposite in2="hardAlpha" operator="out"/>
<feColorMatrix type="matrix" values="0 0 0 0 0.788235 0 0 0 0 0.858824 0 0 0 0 0.913725 0 0 0 1 0"/>
<feBlend mode="normal" in2="BackgroundImageFix" result="effect1_dropShadow_1334_149"/>
<feBlend mode="normal" in="SourceGraphic" in2="effect1_dropShadow_1334_149" result="shape"/>
</filter>
<filter id="filter4_d_1334_149" x="880" y="186" width="262" height="158" filterUnits="userSpaceOnUse" color-interpolation-filters="sRGB">
<feFlood flood-opacity="0" result="BackgroundImageFix"/>
<feColorMatrix in="SourceAlpha" type="matrix" values="0 0 0 0 0 0 0 0 0 0 0 0 0 0 0 0 0 0 127 0" result="hardAlpha"/>
<feOffset dy="4"/>
<feGaussianBlur stdDeviation="7"/>
<feComposite in2="hardAlpha" operator="out"/>
<feColorMatrix type="matrix" values="0 0 0 0 0.788235 0 0 0 0 0.858824 0 0 0 0 0.913725 0 0 0 1 0"/>
<feBlend mode="normal" in2="BackgroundImageFix" result="effect1_dropShadow_1334_149"/>
<feBlend mode="normal" in="SourceGraphic" in2="effect1_dropShadow_1334_149" result="shape"/>
</filter>
<filter id="filter5_d_1334_149" x="350" y="366" width="262" height="158" filterUnits="userSpaceOnUse" color-interpolation-filters="sRGB">
<feFlood flood-opacity="0" result="BackgroundImageFix"/>
<feColorMatrix in="SourceAlpha" type="matrix" values="0 0 0 0 0 0 0 0 0 0 0 0 0 0 0 0 0 0 127 0" result="hardAlpha"/>
<feOffset dy="4"/>
<feGaussianBlur stdDeviation="7"/>
<feComposite in2="hardAlpha" operator="out"/>
<feColorMatrix type="matrix" values="0 0 0 0 0.788235 0 0 0 0 0.858824 0 0 0 0 0.913725 0 0 0 1 0"/>
<feBlend mode="normal" in2="BackgroundImageFix" result="effect1_dropShadow_1334_149"/>
<feBlend mode="normal" in="SourceGraphic" in2="effect1_dropShadow_1334_149" result="shape"/>
</filter>
<filter id="filter6_d_1334_149" x="615" y="366" width="262" height="158" filterUnits="userSpaceOnUse" color-interpolation-filters="sRGB">
<feFlood flood-opacity="0" result="BackgroundImageFix"/>
<feColorMatrix in="SourceAlpha" type="matrix" values="0 0 0 0 0 0 0 0 0 0 0 0 0 0 0 0 0 0 127 0" result="hardAlpha"/>
<feOffset dy="4"/>
<feGaussianBlur stdDeviation="7"/>
<feComposite in2="hardAlpha" operator="out"/>
<feColorMatrix type="matrix" values="0 0 0 0 0.788235 0 0 0 0 0.858824 0 0 0 0 0.913725 0 0 0 1 0"/>
<feBlend mode="normal" in2="BackgroundImageFix" result="effect1_dropShadow_1334_149"/>
<feBlend mode="normal" in="SourceGraphic" in2="effect1_dropShadow_1334_149" result="shape"/>
</filter>
<filter id="filter7_d_1334_149" x="880" y="366" width="262" height="158" filterUnits="userSpaceOnUse" color-interpolation-filters="sRGB">
<feFlood flood-opacity="0" result="BackgroundImageFix"/>
<feColorMatrix in="SourceAlpha" type="matrix" values="0 0 0 0 0 0 0 0 0 0 0 0 0 0 0 0 0 0 127 0" result="hardAlpha"/>
<feOffset dy="4"/>
<feGaussianBlur stdDeviation="7"/>
<feComposite in2="hardAlpha" operator="out"/>
<feColorMatrix type="matrix" values="0 0 0 0 0.788235 0 0 0 0 0.858824 0 0 0 0 0.913725 0 0 0 1 0"/>
<feBlend mode="normal" in2="BackgroundImageFix" result="effect1_dropShadow_1334_149"/>
<feBlend mode="normal" in="SourceGraphic" in2="effect1_dropShadow_1334_149" result="shape"/>
</filter>
<filter id="filter8_di_1334_149" x="997.281" y="288.923" width="240.005" height="441.077" filterUnits="userSpaceOnUse" color-interpolation-filters="sRGB">
<feFlood flood-opacity="0" result="BackgroundImageFix"/>
<feColorMatrix in="SourceAlpha" type="matrix" values="0 0 0 0 0 0 0 0 0 0 0 0 0 0 0 0 0 0 127 0" result="hardAlpha"/>
<feOffset dy="10"/>
<feGaussianBlur stdDeviation="8"/>
<feComposite in2="hardAlpha" operator="out"/>
<feColorMatrix type="matrix" values="0 0 0 0 0.156863 0 0 0 0 0.592157 0 0 0 0 0.952941 0 0 0 0.25 0"/>
<feBlend mode="normal" in2="BackgroundImageFix" result="effect1_dropShadow_1334_149"/>
<feBlend mode="normal" in="SourceGraphic" in2="effect1_dropShadow_1334_149" result="shape"/>
<feColorMatrix in="SourceAlpha" type="matrix" values="0 0 0 0 0 0 0 0 0 0 0 0 0 0 0 0 0 0 127 0" result="hardAlpha"/>
<feMorphology radius="10" operator="erode" in="SourceAlpha" result="effect2_innerShadow_1334_149"/>
<feOffset/>
<feGaussianBlur stdDeviation="5.5"/>
<feComposite in2="hardAlpha" operator="arithmetic" k2="-1" k3="1"/>
<feColorMatrix type="matrix" values="0 0 0 0 0.675 0 0 0 0 0.632812 0 0 0 0 0.632812 0 0 0 0.25 0"/>
<feBlend mode="normal" in2="shape" result="effect2_innerShadow_1334_149"/>
</filter>
<filter id="filter9_d_1334_149" x="1074.16" y="332.764" width="190.244" height="118.136" filterUnits="userSpaceOnUse" color-interpolation-filters="sRGB">
<feFlood flood-opacity="0" result="BackgroundImageFix"/>
<feColorMatrix in="SourceAlpha" type="matrix" values="0 0 0 0 0 0 0 0 0 0 0 0 0 0 0 0 0 0 127 0" result="hardAlpha"/>
<feOffset dy="4"/>
<feGaussianBlur stdDeviation="7"/>
<feComposite in2="hardAlpha" operator="out"/>
<feColorMatrix type="matrix" values="0 0 0 0 0.788235 0 0 0 0 0.858824 0 0 0 0 0.913725 0 0 0 1 0"/>
<feBlend mode="normal" in2="BackgroundImageFix" result="effect1_dropShadow_1334_149"/>
<feBlend mode="normal" in="SourceGraphic" in2="effect1_dropShadow_1334_149" result="shape"/>
</filter>
<filter id="filter10_d_1334_149" x="966" y="440.234" width="190.244" height="118.136" filterUnits="userSpaceOnUse" color-interpolation-filters="sRGB">
<feFlood flood-opacity="0" result="BackgroundImageFix"/>
<feColorMatrix in="SourceAlpha" type="matrix" values="0 0 0 0 0 0 0 0 0 0 0 0 0 0 0 0 0 0 127 0" result="hardAlpha"/>
<feOffset dy="4"/>
<feGaussianBlur stdDeviation="7"/>
<feComposite in2="hardAlpha" operator="out"/>
<feColorMatrix type="matrix" values="0 0 0 0 0.788235 0 0 0 0 0.858824 0 0 0 0 0.913725 0 0 0 1 0"/>
<feBlend mode="normal" in2="BackgroundImageFix" result="effect1_dropShadow_1334_149"/>
<feBlend mode="normal" in="SourceGraphic" in2="effect1_dropShadow_1334_149" result="shape"/>
</filter>
<filter id="filter11_d_1334_149" x="1071.39" y="548.396" width="190.244" height="118.136" filterUnits="userSpaceOnUse" color-interpolation-filters="sRGB">
<feFlood flood-opacity="0" result="BackgroundImageFix"/>
<feColorMatrix in="SourceAlpha" type="matrix" values="0 0 0 0 0 0 0 0 0 0 0 0 0 0 0 0 0 0 127 0" result="hardAlpha"/>
<feOffset dy="4"/>
<feGaussianBlur stdDeviation="7"/>
<feComposite in2="hardAlpha" operator="out"/>
<feColorMatrix type="matrix" values="0 0 0 0 0.788235 0 0 0 0 0.858824 0 0 0 0 0.913725 0 0 0 1 0"/>
<feBlend mode="normal" in2="BackgroundImageFix" result="effect1_dropShadow_1334_149"/>
<feBlend mode="normal" in="SourceGraphic" in2="effect1_dropShadow_1334_149" result="shape"/>
</filter>
<filter id="filter12_d_1334_149" x="1100" y="121" width="128" height="128" filterUnits="userSpaceOnUse" color-interpolation-filters="sRGB">
<feFlood flood-opacity="0" result="BackgroundImageFix"/>
<feColorMatrix in="SourceAlpha" type="matrix" values="0 0 0 0 0 0 0 0 0 0 0 0 0 0 0 0 0 0 127 0" result="hardAlpha"/>
<feOffset dy="4"/>
<feGaussianBlur stdDeviation="7"/>
<feComposite in2="hardAlpha" operator="out"/>
<feColorMatrix type="matrix" values="0 0 0 0 0.156759 0 0 0 0 0.590805 0 0 0 0 0.952511 0 0 0 0.5 0"/>
<feBlend mode="normal" in2="BackgroundImageFix" result="effect1_dropShadow_1334_149"/>
<feBlend mode="normal" in="SourceGraphic" in2="effect1_dropShadow_1334_149" result="shape"/>
</filter>
<filter id="filter13_d_1334_149" x="243" y="239" width="148" height="148" filterUnits="userSpaceOnUse" color-interpolation-filters="sRGB">
<feFlood flood-opacity="0" result="BackgroundImageFix"/>
<feColorMatrix in="SourceAlpha" type="matrix" values="0 0 0 0 0 0 0 0 0 0 0 0 0 0 0 0 0 0 127 0" result="hardAlpha"/>
<feOffset dy="4"/>
<feGaussianBlur stdDeviation="7"/>
<feComposite in2="hardAlpha" operator="out"/>
<feColorMatrix type="matrix" values="0 0 0 0 0.509804 0 0 0 0 0.431373 0 0 0 0 0.960784 0 0 0 0.5 0"/>
<feBlend mode="normal" in2="BackgroundImageFix" result="effect1_dropShadow_1334_149"/>
<feBlend mode="normal" in="SourceGraphic" in2="effect1_dropShadow_1334_149" result="shape"/>
</filter>
<filter id="filter14_d_1334_149" x="584" y="453" width="101" height="101" filterUnits="userSpaceOnUse" color-interpolation-filters="sRGB">
<feFlood flood-opacity="0" result="BackgroundImageFix"/>
<feColorMatrix in="SourceAlpha" type="matrix" values="0 0 0 0 0 0 0 0 0 0 0 0 0 0 0 0 0 0 127 0" result="hardAlpha"/>
<feOffset dy="4"/>
<feGaussianBlur stdDeviation="7"/>
<feComposite in2="hardAlpha" operator="out"/>
<feColorMatrix type="matrix" values="0 0 0 0 0.156759 0 0 0 0 0.590805 0 0 0 0 0.952511 0 0 0 0.5 0"/>
<feBlend mode="normal" in2="BackgroundImageFix" result="effect1_dropShadow_1334_149"/>
<feBlend mode="normal" in="SourceGraphic" in2="effect1_dropShadow_1334_149" result="shape"/>
</filter>
<linearGradient id="paint0_linear_1334_149" x1="64.8298" y1="173.849" x2="636.591" y2="325.54" gradientUnits="userSpaceOnUse">
<stop stop-color="#122C54"/>
<stop offset="1" stop-color="#0C0527"/>
</linearGradient>
<linearGradient id="paint1_linear_1334_149" x1="868.5" y1="587" x2="440" y2="172.5" gradientUnits="userSpaceOnUse">
<stop stop-color="#CFE8F9"/>
<stop offset="1" stop-color="#E4EEF5" stop-opacity="0"/>
</linearGradient>
</defs>
</svg>
