<?xml version="1.0" standalone="no"?>
<!DOCTYPE svg PUBLIC "-//W3C//DTD SVG 20010904//EN"
 "http://www.w3.org/TR/2001/REC-SVG-20010904/DTD/svg10.dtd">
<svg version="1.0" xmlns="http://www.w3.org/2000/svg"
 width="1024.000000pt" height="1024.000000pt" viewBox="0 0 1024.000000 1024.000000"
 preserveAspectRatio="xMidYMid meet">
<metadata>
Created by potrace 1.14, written by Peter Selinger 2001-2017
</metadata>
<g transform="translate(0.000000,1024.000000) scale(0.100000,-0.100000)"
fill="#000000" stroke="none">
<path d="M0 5120 l0 -5120 5120 0 5120 0 0 5120 0 5120 -5120 0 -5120 0 0
-5120z m10040 4015 l0 -945 -4925 0 -4925 0 0 945 0 945 4925 0 4925 0 0 -945z
m-6995 -5053 c28 -17 66 -50 85 -74 65 -80 284 -293 387 -376 381 -307 816
-499 1263 -557 203 -26 466 -26 645 1 354 53 650 159 989 353 183 105 422 296
601 481 194 200 201 205 310 204 52 0 80 -5 110 -21 150 -79 220 -274 164
-459 -26 -85 -71 -144 -235 -308 -319 -320 -705 -584 -1099 -751 -47 -20 -313
-115 -335 -120 -8 -2 -60 -14 -115 -28 -254 -64 -452 -90 -700 -91 -128 0
-362 11 -374 18 -3 2 -31 7 -61 10 -265 31 -623 145 -910 290 -101 50 -306
171 -355 208 -5 4 -57 43 -115 86 -170 126 -209 160 -395 347 -171 171 -210
217 -247 295 -69 144 -36 344 75 452 85 82 216 99 312 40z"/>
</g>
</svg>
