<svg viewBox="0 0 123 123" fill="none" xmlns="http://www.w3.org/2000/svg">
<g id="CircleThree">
<g id="Group 61">
<circle id="CircleThreeWaveTwo" cx="61.5" cy="61.5" r="60" stroke="#F3693D" strokeOpacity="0.2" strokeWidth="3"/>
<circle id="CircleThreeWaveOne" cx="61.5" cy="61.5" r="51.087" stroke="#F3693D" strokeOpacity="0.5" strokeWidth="3"/>
<circle id="CircleThreeCenter" cx="61.5" cy="61.5" r="43.6739" fill="#F3693D"/>
</g>
<g id="&#239;&#147;&#188;" filter="url(#filter0_d_22_4)">
<path d="M63.1335 63.9688H55.712C48.658 63.9688 43 69.6055 43 76.543C43 77.916 44.1022 79 45.4983 79H73.3472C74.7434 79 75.919 77.916 75.919 76.543C75.919 69.6055 70.1876 63.9688 63.1335 63.9688ZM59.4595 60.5C64.6031 60.5 68.865 56.3809 68.865 51.25C68.865 46.1914 64.6031 42 59.4595 42C54.2424 42 50.0541 46.1914 50.0541 51.25C50.0541 56.3809 54.2424 60.5 59.4595 60.5ZM89.4394 51.7559C88.7046 51.1055 87.6024 51.1055 86.941 51.8281L80.5483 58.6211L77.6826 55.875C77.0212 55.1523 75.919 55.1523 75.2577 55.875C74.5229 56.5254 74.5229 57.6094 75.2577 58.2598L79.3726 62.3066C79.6665 62.668 80.1074 62.8125 80.6218 62.8125C81.0626 62.8125 81.577 62.668 81.8709 62.3066L89.5128 54.2129C90.1742 53.4902 90.1742 52.4063 89.4394 51.7559Z" fill="white"/>
</g>
</g>
<defs>
<filter id="filter0_d_22_4" x="35" y="38" width="63" height="53" filterUnits="userSpaceOnUse" colorInterpolationFilters="sRGB">
<feFlood floodOpacity="0" result="BackgroundImageFix"/>
<feColorMatrix in="SourceAlpha" type="matrix" values="0 0 0 0 0 0 0 0 0 0 0 0 0 0 0 0 0 0 127 0" result="hardAlpha"/>
<feOffset dy="4"/>
<feGaussianBlur stdDeviation="4"/>
<feComposite in2="hardAlpha" operator="out"/>
<feColorMatrix type="matrix" values="0 0 0 0 0.181552 0 0 0 0 0.335174 0 0 0 0 0.4625 0 0 0 0.4 0"/>
<feBlend mode="normal" in2="BackgroundImageFix" result="effect1_dropShadow_22_4"/>
<feBlend mode="normal" in="SourceGraphic" in2="effect1_dropShadow_22_4" result="shape"/>
</filter>
</defs>
</svg>
