<svg viewBox="0 0 100 100" fill="none" xmlns="http://www.w3.org/2000/svg">
<g id="CircleTwo">
<g id="Group 62">
<circle id="CircleTwoWaveTwo" cx="50" cy="50" r="48.5" stroke="#FFB74D" strokeOpacity="0.2" strokeWidth="3"/>
<circle id="CircleTwoWaveOne" cx="50" cy="50" r="41.2536" stroke="#FFB74D" strokeOpacity="0.5" strokeWidth="3"/>
<circle id="CircleTwoCenter" cx="50.3623" cy="49.6377" r="35.1449" fill="#FFB74D"/>
</g>
<g id="&#239;&#150;&#184;" filter="url(#filter0_d_22_2)">
<path d="M34.5 49.75C34.5 41.4883 41.1797 34.75 49.5 34.75C57.7617 34.75 64.5 41.4883 64.5 49.75C64.5 58.0703 57.7617 64.75 49.5 64.75C41.1797 64.75 34.5 58.0703 34.5 49.75ZM44.1094 53.8516C43.7578 53.4414 43.1719 53.4414 42.7617 53.7344C42.3516 54.0859 42.3516 54.6719 42.6445 55.082C43.9922 56.6055 46.2188 58.1875 49.4414 58.1875C52.7227 58.1875 54.9492 56.6055 56.2969 55.082C56.5898 54.6719 56.5898 54.0859 56.1797 53.7344C55.7695 53.4414 55.1836 53.4414 54.832 53.8516C53.7773 55.082 52.0195 56.3125 49.4414 56.3125C46.9219 56.3125 45.1641 55.082 44.1094 53.8516ZM47.7422 48.3438C47.918 48.2852 48.0938 48.1094 48.0938 47.875C48.0938 46.8789 47.6836 45.8242 47.0977 45.0625C46.5117 44.3008 45.6914 43.6562 44.8125 43.6562C43.875 43.6562 43.0547 44.3008 42.4688 45.0625C41.8828 45.8242 41.5312 46.8789 41.5312 47.875C41.5312 48.1094 41.6484 48.2852 41.8242 48.3438C42 48.4023 42.2344 48.3438 42.3516 48.168C42.3516 48.168 42.3516 48.1094 42.4102 48.1094C42.4102 48.0508 42.4688 47.9922 42.5859 47.9336C42.7031 47.7578 42.9375 47.5234 43.1719 47.2891C43.6992 46.8789 44.2852 46.4688 44.8125 46.4688C45.2812 46.4688 45.8672 46.8789 46.3945 47.2891C46.6289 47.5234 46.8633 47.7578 46.9805 47.9336C47.0977 47.9922 47.1562 48.0508 47.1562 48.1094C47.2148 48.1094 47.2148 48.168 47.2148 48.168C47.332 48.3438 47.5664 48.4023 47.7422 48.3438ZM56.5898 48.168C56.707 48.3438 56.9414 48.4023 57.1172 48.3438C57.293 48.2852 57.4688 48.1094 57.4688 47.875C57.4688 46.8789 57.0586 45.8242 56.4727 45.0625C55.8867 44.3008 55.0664 43.6562 54.1875 43.6562C53.25 43.6562 52.4297 44.3008 51.8438 45.0625C51.2578 45.8242 50.9062 46.8789 50.9062 47.875C50.9062 48.1094 51.0234 48.2852 51.1992 48.3438C51.375 48.4023 51.6094 48.3438 51.7266 48.168C51.7266 48.168 51.7266 48.1094 51.7852 48.1094C51.7852 48.0508 51.8438 47.9922 51.9609 47.9336C52.0781 47.7578 52.3125 47.5234 52.5469 47.2891C53.0742 46.8789 53.6602 46.4688 54.1875 46.4688C54.6562 46.4688 55.2422 46.8789 55.7695 47.2891C56.0039 47.5234 56.2383 47.7578 56.3555 47.9336C56.4727 47.9922 56.5312 48.0508 56.5312 48.1094C56.5898 48.1094 56.5898 48.168 56.5898 48.168Z" fill="white"/>
</g>
</g>
<defs>
<filter id="filter0_d_22_2" x="26.5" y="30.75" width="46" height="46" filterUnits="userSpaceOnUse" colorInterpolationFilters="sRGB">
<feFlood floodOpacity="0" result="BackgroundImageFix"/>
<feColorMatrix in="SourceAlpha" type="matrix" values="0 0 0 0 0 0 0 0 0 0 0 0 0 0 0 0 0 0 127 0" result="hardAlpha"/>
<feOffset dy="4"/>
<feGaussianBlur stdDeviation="4"/>
<feComposite in2="hardAlpha" operator="out"/>
<feColorMatrix type="matrix" values="0 0 0 0 0.181552 0 0 0 0 0.335174 0 0 0 0 0.4625 0 0 0 0.4 0"/>
<feBlend mode="normal" in2="BackgroundImageFix" result="effect1_dropShadow_22_2"/>
<feBlend mode="normal" in="SourceGraphic" in2="effect1_dropShadow_22_2" result="shape"/>
</filter>
</defs>
</svg>
