<svg viewBox="0 0 138 138" fill="none" xmlns="http://www.w3.org/2000/svg">
<g id="CircleOne">
<g id="Group 64">
<circle id="CircleOneWaveTwo" cx="69" cy="69" r="67.5" stroke="#77DF81" strokeOpacity="0.2" strokeWidth="3"/>
<circle id="CircleOneWaveOne" cx="69" cy="69" r="57.5" stroke="#77DF81" strokeOpacity="0.5" strokeWidth="3"/>
<circle id="CircleOneCenter" cx="69" cy="69" r="49" fill="#77DF81"/>
</g>
<g id="&#239;&#149;&#132;" filter="url(#filter0_d_22_3)">
<path d="M41.5586 63.7734C41.0195 64.3125 40.75 65.0312 40.75 65.75V77.25C40.75 78.0586 41.0195 78.7773 41.5586 79.3164C42.0977 79.8555 42.8164 80.125 43.625 80.125H46.5V62.875H43.625C42.8164 62.875 42.0977 63.2344 41.5586 63.7734ZM82.4375 51.375H72.375V45.625C72.375 44.0977 71.0273 42.75 69.5 42.75C67.8828 42.75 66.625 44.0977 66.625 45.625V51.375H56.5625C52.5195 51.375 49.375 54.6094 49.375 58.5625V83C49.375 86.2344 51.8906 88.75 55.125 88.75H83.875C87.0195 88.75 89.625 86.2344 89.625 83V58.5625C89.625 54.6094 86.3906 51.375 82.4375 51.375ZM63.75 80.125H58V77.25H63.75V80.125ZM60.875 69.3438C58.8086 69.3438 57.2812 67.8164 57.2812 65.75C57.2812 63.7734 58.8086 62.1562 60.875 62.1562C62.8516 62.1562 64.4688 63.7734 64.4688 65.75C64.4688 67.8164 62.8516 69.3438 60.875 69.3438ZM72.375 80.125H66.625V77.25H72.375V80.125ZM81 80.125H75.25V77.25H81V80.125ZM78.125 69.3438C76.0586 69.3438 74.5312 67.8164 74.5312 65.75C74.5312 63.7734 76.0586 62.1562 78.125 62.1562C80.1016 62.1562 81.7188 63.7734 81.7188 65.75C81.7188 67.8164 80.1016 69.3438 78.125 69.3438ZM97.3516 63.7734C96.8125 63.2344 96.0938 62.875 95.375 62.875H92.5V80.125H95.375C96.0938 80.125 96.8125 79.8555 97.3516 79.3164C97.8906 78.7773 98.25 78.0586 98.25 77.25V65.75C98.25 65.0312 97.8906 64.3125 97.3516 63.7734Z" fill="white"/>
</g>
</g>
<defs>
<filter id="filter0_d_22_3" x="32.75" y="38.75" width="73.5" height="62" filterUnits="userSpaceOnUse" colorInterpolationFilters="sRGB">
<feFlood flood-opacity="0" result="BackgroundImageFix"/>
<feColorMatrix in="SourceAlpha" type="matrix" values="0 0 0 0 0 0 0 0 0 0 0 0 0 0 0 0 0 0 127 0" result="hardAlpha"/>
<feOffset dy="4"/>
<feGaussianBlur stdDeviation="4"/>
<feComposite in2="hardAlpha" operator="out"/>
<feColorMatrix type="matrix" values="0 0 0 0 0.181552 0 0 0 0 0.335174 0 0 0 0 0.4625 0 0 0 0.4 0"/>
<feBlend mode="normal" in2="BackgroundImageFix" result="effect1_dropShadow_22_3"/>
<feBlend mode="normal" in="SourceGraphic" in2="effect1_dropShadow_22_3" result="shape"/>
</filter>
</defs>
</svg>
