<svg viewBox="0 0 94 40" fill="none" xmlns="http://www.w3.org/2000/svg">
<path d="M85.2356 39.8859C83.9403 39.8859 82.7858 39.5761 81.7721 38.9566C80.7772 38.3371 79.9887 37.4924 79.4068 36.4224C78.8436 35.3523 78.562 34.1321 78.562 32.7617C78.562 31.3913 78.8436 30.1711 79.4068 29.1011C79.9887 28.0311 80.7772 27.1863 81.7721 26.5668C82.7858 25.9474 83.9403 25.6376 85.2356 25.6376C86.1742 25.6376 87.019 25.8159 87.7699 26.1726C88.5395 26.5293 89.1684 27.0268 89.6565 27.665C90.1634 28.2845 90.4449 28.9979 90.5013 29.8051V35.5776C90.4449 36.3848 90.1727 37.1169 89.6847 37.774C89.1966 38.4122 88.5677 38.9285 87.798 39.3227C87.0284 39.6981 86.1742 39.8859 85.2356 39.8859ZM85.9959 36C86.6154 36 87.1504 35.8686 87.6009 35.6058C88.0515 35.3242 88.4081 34.9393 88.6709 34.4513C88.9338 33.9632 89.0652 33.4 89.0652 32.7617C89.0652 32.1235 88.9338 31.5697 88.6709 31.1004C88.4269 30.6123 88.0702 30.2275 87.6009 29.9459C87.1504 29.6643 86.6248 29.5235 86.024 29.5235C85.4233 29.5235 84.8883 29.6643 84.419 29.9459C83.9685 30.2275 83.6024 30.6123 83.3208 31.1004C83.058 31.5885 82.9266 32.1422 82.9266 32.7617C82.9266 33.3812 83.058 33.935 83.3208 34.4231C83.5836 34.9112 83.9497 35.296 84.419 35.5776C84.8883 35.8592 85.4139 36 85.9959 36ZM93.12 39.6043H88.8962V35.9155L89.5439 32.5928L88.8117 29.2701V19.1611H93.12V39.6043Z" fill="white"/>
<path d="M70.7381 39.9139C69.2551 39.9139 67.9316 39.6136 66.7678 39.0129C65.6226 38.3934 64.7216 37.5392 64.0645 36.4504C63.4075 35.3616 63.079 34.132 63.079 32.7617C63.079 31.3913 63.3981 30.1711 64.0364 29.101C64.6934 28.0122 65.5757 27.1581 66.6833 26.5386C67.7909 25.9191 69.0392 25.6094 70.4284 25.6094C71.78 25.6094 72.972 25.9003 74.0045 26.4823C75.037 27.0642 75.8442 27.8714 76.4262 28.9039C77.0269 29.9364 77.3272 31.1191 77.3272 32.4519C77.3272 32.696 77.3085 32.9588 77.2709 33.2404C77.2521 33.5032 77.2052 33.8129 77.1301 34.1696L65.3317 34.1977V31.2411L75.2998 31.2129L73.4413 32.4519C73.4226 31.6635 73.3006 31.0158 73.0753 30.509C72.85 29.9833 72.5121 29.5891 72.0616 29.3263C71.6298 29.0447 71.0948 28.9039 70.4565 28.9039C69.7807 28.9039 69.1894 29.0635 68.6825 29.3826C68.1945 29.683 67.8096 30.1148 67.528 30.6779C67.2652 31.2411 67.1338 31.9263 67.1338 32.7335C67.1338 33.5407 67.2746 34.2353 67.5562 34.8172C67.8566 35.3804 68.2696 35.8216 68.7952 36.1407C69.3396 36.441 69.9778 36.5912 70.71 36.5912C71.3858 36.5912 71.9959 36.4786 72.5403 36.2533C73.0847 36.0093 73.5634 35.6526 73.9764 35.1833L76.3417 37.5486C75.6659 38.3371 74.8493 38.9284 73.8919 39.3226C72.9345 39.7168 71.8832 39.9139 70.7381 39.9139Z" fill="white"/>
<path d="M53.0621 39.8859C51.7668 39.8859 50.6123 39.5761 49.5986 38.9566C48.6037 38.3371 47.8153 37.4924 47.2333 36.4224C46.6701 35.3523 46.3885 34.1321 46.3885 32.7617C46.3885 31.3913 46.6701 30.1711 47.2333 29.1011C47.8153 28.0311 48.6037 27.1863 49.5986 26.5668C50.6123 25.9474 51.7668 25.6376 53.0621 25.6376C54.0008 25.6376 54.8455 25.8159 55.5964 26.1726C56.3661 26.5293 56.995 27.0268 57.483 27.665C57.9899 28.2845 58.2715 28.9979 58.3278 29.8051V35.5776C58.2715 36.3848 57.9993 37.1169 57.5112 37.774C57.0231 38.4122 56.3942 38.9285 55.6246 39.3227C54.8549 39.6981 54.0008 39.8859 53.0621 39.8859ZM53.8224 36C54.4419 36 54.9769 35.8686 55.4275 35.6058C55.878 35.3242 56.2347 34.9393 56.4975 34.4513C56.7603 33.9632 56.8917 33.4 56.8917 32.7617C56.8917 32.1235 56.7603 31.5697 56.4975 31.1004C56.2534 30.6123 55.8968 30.2275 55.4275 29.9459C54.9769 29.6643 54.4513 29.5235 53.8506 29.5235C53.2499 29.5235 52.7148 29.6643 52.2455 29.9459C51.795 30.2275 51.4289 30.6123 51.1474 31.1004C50.8845 31.5885 50.7531 32.1422 50.7531 32.7617C50.7531 33.3812 50.8845 33.935 51.1474 34.4231C51.4102 34.9112 51.7762 35.296 52.2455 35.5776C52.7148 35.8592 53.2405 36 53.8224 36ZM60.9465 39.6043H56.7228V35.9155L57.3704 32.5928L56.6383 29.2701V19.1611H60.9465V39.6043Z" fill="white"/>
<path d="M40.1582 39.6044V31.8044C40.1582 31.0911 39.9329 30.5185 39.4824 30.0868C39.0506 29.6362 38.4968 29.4109 37.821 29.4109C37.3517 29.4109 36.9387 29.5142 36.582 29.7207C36.2254 29.9084 35.9438 30.19 35.7373 30.5655C35.5308 30.9221 35.4275 31.3351 35.4275 31.8044L33.7662 30.9878C33.7662 29.9178 34.0008 28.9792 34.4701 28.172C34.9394 27.3648 35.5871 26.7453 36.4131 26.3135C37.2578 25.863 38.2058 25.6377 39.2571 25.6377C40.2708 25.6377 41.1625 25.8817 41.9322 26.3698C42.7206 26.8391 43.3401 27.468 43.7906 28.2564C44.2412 29.0449 44.4664 29.9084 44.4664 30.847V39.6044H40.1582ZM31.1193 39.6044V25.9193H35.4275V39.6044H31.1193Z" fill="white"/>
<path d="M23.7771 39.6041V25.919H28.0854V39.6041H23.7771ZM25.9453 24.0324C25.2695 24.0324 24.7063 23.8071 24.2558 23.3566C23.824 22.8873 23.6082 22.3241 23.6082 21.6671C23.6082 20.9913 23.824 20.4281 24.2558 19.9776C24.7063 19.527 25.2695 19.3018 25.9453 19.3018C26.6211 19.3018 27.1749 19.527 27.6067 19.9776C28.0384 20.4281 28.2543 20.9913 28.2543 21.6671C28.2543 22.3241 28.0384 22.8873 27.6067 23.3566C27.1749 23.8071 26.6211 24.0324 25.9453 24.0324Z" fill="white"/>
<path d="M0 39.6036V19.7236H3.15376L10.9819 31.9163H9.37681L17.1767 19.7236H20.3587V39.6036H15.9378V27.1857L16.7262 27.3828L11.6295 35.3235H8.70101L3.63246 27.3828L4.39274 27.1857V39.6036H0Z" fill="white"/>
<path d="M52.2697 22.2516V10.8965H54.1066V22.2516H52.2697ZM50.3494 15.9061V14.2362H56.0269V15.9061H50.3494Z" fill="white"/>
<path d="M46.0664 22.4187C45.2649 22.4187 44.5413 22.2406 43.8956 21.8843C43.261 21.517 42.7545 21.016 42.376 20.3814C42.0086 19.7469 41.825 19.0344 41.825 18.244C41.825 17.4536 42.0086 16.7467 42.376 16.1233C42.7434 15.4887 43.2388 14.9878 43.8622 14.6204C44.4967 14.253 45.1981 14.0693 45.9662 14.0693C46.7121 14.0693 47.3689 14.2419 47.9367 14.587C48.5156 14.9321 48.9664 15.4052 49.2893 16.0064C49.6232 16.6075 49.7902 17.2922 49.7902 18.0603C49.7902 18.1939 49.7791 18.3331 49.7568 18.4778C49.7457 18.6114 49.7234 18.7617 49.69 18.9287H43.1108V17.4258H48.7382L48.0536 18.0269C48.0313 17.5371 47.9367 17.1252 47.7697 16.7912C47.6027 16.4572 47.3634 16.2012 47.0516 16.0231C46.7511 15.845 46.3781 15.7559 45.9328 15.7559C45.4653 15.7559 45.0589 15.8561 44.7138 16.0565C44.3687 16.2569 44.1015 16.5407 43.9123 16.9081C43.723 17.2644 43.6284 17.693 43.6284 18.1939C43.6284 18.6949 43.7286 19.1346 43.929 19.5131C44.1294 19.8916 44.4133 20.1866 44.7806 20.3981C45.148 20.5985 45.571 20.6987 46.0497 20.6987C46.4616 20.6987 46.8401 20.6264 47.1852 20.4816C47.5415 20.3369 47.8421 20.1254 48.087 19.8471L49.2559 21.0327C48.8662 21.4891 48.3931 21.8342 47.8365 22.068C47.2799 22.3018 46.6898 22.4187 46.0664 22.4187Z" fill="white"/>
<path d="M30.6234 22.2516V10.5625H31.9593L32.5438 12.7667V22.2516H30.6234ZM38.7223 22.2516L31.7255 13.1174L31.9593 10.5625L38.9561 19.6967L38.7223 22.2516ZM38.7223 22.2516L38.1378 20.1977V10.5625H40.0582V22.2516H38.7223Z" fill="white"/>
<path fill-rule="evenodd" clip-rule="evenodd" d="M19.364 1.31337C19.364 1.58462 19.5847 1.80253 19.8552 1.82318C23.1402 2.07391 25.7277 4.81887 25.7277 8.16817C25.7277 11.6827 22.8786 14.5318 19.364 14.5318C19.0463 14.5318 18.7344 14.5086 18.43 14.4639C18.1616 14.4245 17.8986 14.5882 17.8385 14.8527L17.6533 15.6678C17.5932 15.9323 17.7587 16.197 18.0264 16.2411C18.4621 16.3128 18.909 16.35 19.364 16.35C23.8828 16.35 27.5459 12.6869 27.5459 8.16817C27.5459 3.81438 24.1453 0.254844 19.8553 0.000819314C19.5845 -0.015214 19.364 0.206208 19.364 0.477456V1.31337Z" fill="#77DF81"/>
<path fill-rule="evenodd" clip-rule="evenodd" d="M12.5093 8.16838C12.7805 8.16838 12.9985 7.94782 13.0191 7.67736C13.2345 4.85574 15.2904 2.54778 17.9885 1.9536C18.2534 1.89526 18.4415 1.64888 18.4039 1.38025L18.2879 0.552423C18.2503 0.283798 18.0013 0.0950834 17.7354 0.148814C14.1524 0.872906 11.4182 3.93638 11.1967 7.67713C11.1807 7.9479 11.4021 8.16838 11.6734 8.16838H12.5093Z" fill="#F3693D"/>
<path fill-rule="evenodd" clip-rule="evenodd" d="M16.9136 14.572C17.0106 14.3187 16.8828 14.0365 16.638 13.9196C14.8991 13.0898 13.5879 11.4695 13.1531 9.53858C13.0935 9.27396 12.8462 9.08726 12.5777 9.12625L11.7505 9.2464C11.4821 9.28539 11.2946 9.53515 11.3496 9.80076C11.885 12.3853 13.6382 14.5529 15.986 15.6217C16.2329 15.7341 16.5177 15.606 16.6147 15.3527L16.9136 14.572Z" fill="#FFB74D"/>
<path d="M27.2229 14.9196C27.3093 15.2601 27.0206 15.5786 26.6732 15.5259L23.2947 15.0137L26.3828 11.6073L27.2229 14.9196Z" fill="#77DF81"/>
<path fill-rule="evenodd" clip-rule="evenodd" d="M15.2365 8.16797C15.5078 8.16797 15.7242 8.38907 15.7604 8.65789C15.9996 10.4345 17.5218 11.8043 19.364 11.8043C21.2062 11.8043 22.7284 10.4345 22.9677 8.65789C23.0039 8.38907 23.2203 8.16797 23.4915 8.16797H24.3275C24.5987 8.16797 24.8209 8.38859 24.7968 8.65877C24.5487 11.4413 22.2111 13.6225 19.364 13.6225C16.517 13.6225 14.1794 11.4413 13.9312 8.65877C13.9071 8.38859 14.1293 8.16797 14.4006 8.16797H15.2365Z" fill="#77DF81"/>
</svg>
