<svg width="1156" height="796" viewBox="0 0 1156 796" fill="none" xmlns="http://www.w3.org/2000/svg">
<rect x="0.500488" y="0.628296" width="623.499" height="794.87" rx="25" fill="url(#paint0_linear_1334_149)"/>
<g filter="url(#filter0_i_1334_149)">
<rect x="218.558" y="105" width="837" height="590" rx="30" fill="#F5F5F5"/>
</g>
<rect x="244.558" y="129" width="785" height="517" rx="22" fill="white"/>
<rect x="244.558" y="129" width="785" height="517" rx="22" fill="#E4EEF5" fill-opacity="0.3"/>
<g filter="url(#filter1_di_1334_149)">
<rect x="180.558" y="661" width="913" height="40" rx="20" fill="#F5F5F5"/>
</g>
<g filter="url(#filter2_d_1334_149)">
<rect x="255.558" y="212" width="234" height="130" rx="10" fill="#E9EFF4"/>
</g>
<path d="M255.558 221C255.558 216.029 259.587 212 264.558 212H480.558C485.528 212 489.558 216.029 489.558 221V221H255.558V221Z" fill="#7EEA88"/>
<g filter="url(#filter3_d_1334_149)">
<rect x="520.558" y="212" width="234" height="130" rx="10" fill="#E9EFF4"/>
</g>
<path d="M520.558 221C520.558 216.029 524.587 212 529.558 212H745.558C750.528 212 754.558 216.029 754.558 221V221H520.558V221Z" fill="#7EEA88"/>
<g filter="url(#filter4_d_1334_149)">
<rect x="785.558" y="212" width="234" height="130" rx="10" fill="#E9EFF4"/>
</g>
<path d="M785.558 221C785.558 216.029 789.587 212 794.558 212H1010.56C1015.53 212 1019.56 216.029 1019.56 221V221H785.558V221Z" fill="#7EEA88"/>
<g filter="url(#filter5_d_1334_149)">
<rect x="255.558" y="392" width="234" height="130" rx="10" fill="#E9EFF4"/>
</g>
<path d="M255.558 401C255.558 396.029 259.587 392 264.558 392H480.558C485.528 392 489.558 396.029 489.558 401V401H255.558V401Z" fill="#7EEA88"/>
<g filter="url(#filter6_d_1334_149)">
<rect x="520.558" y="392" width="234" height="130" rx="10" fill="#E9EFF4"/>
</g>
<path d="M520.558 401C520.558 396.029 524.587 392 529.558 392H745.558C750.528 392 754.558 396.029 754.558 401V401H520.558V401Z" fill="#7EEA88"/>
<g filter="url(#filter7_d_1334_149)">
<rect x="785.558" y="392" width="234" height="130" rx="10" fill="#E9EFF4"/>
</g>
<path d="M785.558 401C785.558 396.029 789.587 392 794.558 392H1010.56C1015.53 392 1019.56 396.029 1019.56 401V401H785.558V401Z" fill="#7EEA88"/>
<rect x="244.558" y="129" width="785" height="517" rx="22" fill="url(#paint1_linear_1334_149)"/>
<g filter="url(#filter8_di_1334_149)">
<rect x="904.839" y="310.923" width="208.005" height="409.077" rx="30" fill="#F5F5F5"/>
</g>
<rect x="919.399" y="324.097" width="178.884" height="382.036" rx="22" fill="white"/>
<rect x="919.399" y="324.097" width="178.884" height="382.036" rx="22" fill="#E4EEF5" fill-opacity="0.4"/>
<g filter="url(#filter9_d_1334_149)">
<rect x="979.72" y="358.764" width="162.244" height="90.1356" rx="10" fill="#E9EFF4"/>
</g>
<path d="M979.72 365.004C979.72 361.558 982.514 358.764 985.96 358.764H1135.72C1139.17 358.764 1141.96 361.558 1141.96 365.004V365.004H979.72V365.004Z" fill="#7EEA88"/>
<g filter="url(#filter10_d_1334_149)">
<rect x="871.558" y="466.234" width="162.244" height="90.1356" rx="10" fill="#E9EFF4"/>
</g>
<path d="M871.558 472.474C871.558 469.027 874.351 466.234 877.798 466.234H1027.56C1031.01 466.234 1033.8 469.027 1033.8 472.474V472.474H871.558V472.474Z" fill="#7EEA88"/>
<g filter="url(#filter11_d_1334_149)">
<rect x="976.947" y="574.396" width="162.244" height="90.1356" rx="10" fill="#E9EFF4"/>
</g>
<path d="M976.947 580.637C976.947 577.19 979.741 574.396 983.187 574.396H1132.95C1136.4 574.396 1139.19 577.19 1139.19 580.637V580.637H976.947V580.637Z" fill="#7EEA88"/>
<g filter="url(#filter12_d_1334_149)">
<path d="M1105.56 197C1105.56 224.614 1083.17 247 1055.56 247C1027.94 247 1005.56 224.614 1005.56 197C1005.56 169.386 1027.94 147 1055.56 147C1083.17 147 1105.56 169.386 1105.56 197Z" fill="#2897F3"/>
</g>
<path d="M1056.57 224C1060.16 224 1063.03 221.047 1063.03 217.25H1050C1050 221.047 1052.87 224 1056.57 224ZM1078.63 208.285C1076.68 206.07 1072.89 202.801 1072.89 191.938C1072.89 183.816 1067.34 177.277 1059.75 175.59V173.375C1059.75 171.582 1058.31 170 1056.57 170C1054.72 170 1053.28 171.582 1053.28 173.375V175.59C1045.69 177.277 1040.15 183.816 1040.15 191.938C1040.15 202.801 1036.35 206.07 1034.4 208.285C1033.78 208.918 1033.47 209.762 1033.58 210.5C1033.58 212.293 1034.81 213.875 1036.86 213.875H1076.17C1078.22 213.875 1079.45 212.293 1079.56 210.5C1079.56 209.762 1079.25 208.918 1078.63 208.285Z" fill="white"/>
<g filter="url(#filter13_d_1334_149)">
<path d="M268.558 325C268.558 358.137 241.695 385 208.558 385C175.421 385 148.558 358.137 148.558 325C148.558 291.863 175.421 265 208.558 265C241.695 265 268.558 291.863 268.558 325Z" fill="#826EF5"/>
</g>
<path d="M222.808 332.875C219.91 332.875 217.265 333.883 215.249 335.521L202.273 327.458C202.525 326.702 202.525 325.82 202.525 324.812C202.525 323.931 202.525 323.049 202.273 322.293L215.249 314.23C217.265 315.868 219.91 316.75 222.808 316.75C229.484 316.75 234.901 311.459 234.901 304.656C234.901 297.979 229.484 292.562 222.808 292.562C216.005 292.562 210.714 297.979 210.714 304.656C210.714 305.664 210.714 306.546 210.966 307.302L197.99 315.364C195.975 313.727 193.329 312.719 190.558 312.719C183.755 312.719 178.464 318.136 178.464 324.812C178.464 331.615 183.755 336.906 190.558 336.906C193.329 336.906 195.975 336.024 197.99 334.387L210.966 342.449C210.714 343.205 210.714 344.087 210.714 345.095V344.969C210.714 351.771 216.005 357.062 222.808 357.062C229.484 357.062 234.901 351.771 234.901 344.969C234.901 338.292 229.484 332.875 222.808 332.875Z" fill="white"/>
<rect x="667.558" y="329" width="282" height="84" rx="20" fill="#C7C7C7" fill-opacity="0.6"/>
<path d="M684.558 355C684.558 346.716 691.273 340 699.558 340H731.558C739.842 340 746.558 346.716 746.558 355V387C746.558 395.284 739.842 402 731.558 402H699.558C691.273 402 684.558 395.284 684.558 387V355Z" fill="#E4EEF5"/>
<path d="M684.558 352.056C684.558 345.397 689.955 340 696.613 340H734.502C741.16 340 746.558 345.397 746.558 352.056V352.056H684.558V352.056Z" fill="#7EEA88"/>
<path fill-rule="evenodd" clip-rule="evenodd" d="M730.212 377.747C730.888 378.626 730.849 380.004 730.125 380.825C722.285 389.714 709.435 390.709 700.97 380.801C700.257 379.967 700.236 378.588 700.923 377.722C701.609 376.855 702.744 376.83 703.457 377.664C710.426 385.821 721.104 385.095 727.679 377.64C728.402 376.82 729.537 376.867 730.212 377.747Z" fill="#6F6C84"/>
<path d="M684.558 350.535H746.558V354.168H684.558V350.535Z" fill="#8A8EAC"/>
<rect x="759.558" y="356" width="121" height="8" rx="4" fill="#C4C4C4"/>
<rect x="759.558" y="377" width="172" height="8" rx="4" fill="#C4C4C4"/>
<path d="M385.558 88.7143C385.558 80.0355 392.607 73 401.302 73H591.813C600.508 73 607.558 80.0355 607.558 88.7143V123.286C607.558 131.964 600.508 139 591.813 139H401.302C392.607 139 385.558 131.964 385.558 123.286V88.7143Z" fill="#C7C7C7" fill-opacity="0.6"/>
<path d="M457.558 97.5C457.558 95.567 458.964 94 460.698 94H549.417C551.152 94 552.558 95.567 552.558 97.5V97.5C552.558 99.433 551.152 101 549.417 101H460.698C458.964 101 457.558 99.433 457.558 97.5V97.5Z" fill="#C4C4C4"/>
<path d="M457.558 114C457.558 112.343 458.963 111 460.697 111H589.418C591.152 111 592.558 112.343 592.558 114V114C592.558 115.657 591.152 117 589.418 117H460.697C458.963 117 457.558 115.657 457.558 114V114Z" fill="#C4C4C4"/>
<path d="M398.558 89.7419C398.558 85.4662 402.096 82 406.461 82H439.654C444.019 82 447.558 85.4662 447.558 89.7419V122.258C447.558 126.534 444.019 130 439.654 130H406.461C402.096 130 398.558 126.534 398.558 122.258V89.7419Z" fill="#826EF5"/>
<path d="M431.058 98H416.058C414.651 98 413.558 99.1319 413.558 100.498V111.739C413.558 113.145 414.651 114.238 416.058 114.238H419.808V117.516C419.808 117.907 420.237 118.141 420.55 117.907L425.433 114.238H431.058C432.425 114.238 433.558 113.145 433.558 111.739V100.498C433.558 99.1319 432.425 98 431.058 98Z" fill="white"/>
<path d="M677.558 557.667C677.558 551.223 682.765 546 689.189 546H829.926C836.35 546 841.558 551.223 841.558 557.667V583.333C841.558 589.777 836.35 595 829.926 595H689.189C682.765 595 677.558 589.777 677.558 583.333V557.667Z" fill="#C7C7C7" fill-opacity="0.6"/>
<path d="M730.558 564C730.558 562.895 731.608 562 732.905 562H799.211C800.507 562 801.558 562.895 801.558 564V564C801.558 565.105 800.507 566 799.211 566H732.905C731.608 566 730.558 565.105 730.558 564V564Z" fill="#C4C4C4"/>
<path d="M730.558 576.5C730.558 575.119 731.599 574 732.883 574H828.232C829.516 574 830.558 575.119 830.558 576.5V576.5C830.558 577.881 829.516 579 828.232 579H732.883C731.599 579 730.558 577.881 730.558 576.5V576.5Z" fill="#C4C4C4"/>
<path d="M686.558 557.968C686.558 554.672 689.229 552 692.525 552H717.59C720.886 552 723.558 554.672 723.558 557.968V583.032C723.558 586.328 720.886 589 717.59 589H692.525C689.229 589 686.558 586.328 686.558 583.032V557.968Z" fill="#826EF5"/>
<path d="M710.683 564H699.433C698.378 564 697.558 564.849 697.558 565.874V574.305C697.558 575.358 698.378 576.178 699.433 576.178H702.245V578.637C702.245 578.93 702.567 579.106 702.802 578.93L706.464 576.178H710.683C711.708 576.178 712.558 575.358 712.558 574.305V565.874C712.558 564.849 711.708 564 710.683 564Z" fill="white"/>
<rect x="72.5576" y="539" width="282" height="84" rx="20" fill="#C7C7C7" fill-opacity="0.6"/>
<rect x="164.558" y="566" width="121" height="8" rx="4" fill="#C4C4C4"/>
<rect x="164.558" y="587" width="172" height="8" rx="4" fill="#C4C4C4"/>
<rect x="89.5576" y="550" width="62" height="62" rx="10" fill="#2897F3"/>
<path d="M133.05 578.949C131.882 579.863 130.409 580.98 125.229 584.738C124.214 585.5 122.335 587.176 120.558 587.176C118.729 587.176 116.901 585.5 115.835 584.738C110.655 580.98 109.183 579.863 108.015 578.949C107.812 578.797 107.558 578.949 107.558 579.203V589.562C107.558 590.934 108.624 592 109.995 592H131.12C132.44 592 133.558 590.934 133.558 589.562V579.203C133.558 578.949 133.253 578.797 133.05 578.949ZM120.558 585.5C121.726 585.551 123.401 584.027 124.265 583.418C131.019 578.543 131.526 578.086 133.05 576.867C133.354 576.664 133.558 576.309 133.558 575.902V574.938C133.558 573.617 132.44 572.5 131.12 572.5H109.995C108.624 572.5 107.558 573.617 107.558 574.938V575.902C107.558 576.309 107.71 576.664 108.015 576.867C109.538 578.086 110.046 578.543 116.8 583.418C117.663 584.027 119.339 585.551 120.558 585.5Z" fill="white"/>
<g filter="url(#filter14_d_1334_149)">
<path d="M562.558 515.5C562.558 535.658 546.216 552 526.058 552C505.899 552 489.558 535.658 489.558 515.5C489.558 495.342 505.899 479 526.058 479C546.216 479 562.558 495.342 562.558 515.5Z" fill="#2897F3"/>
</g>
<path d="M507.558 497.25C507.558 495.455 508.986 494 510.747 494H541.368C543.13 494 544.558 495.455 544.558 497.25V503.75C544.558 505.545 543.13 507 541.368 507H510.747C508.986 507 507.558 505.545 507.558 503.75V497.25Z" fill="white"/>
<path d="M507.558 528C507.558 526.343 508.986 525 510.747 525H541.368C543.13 525 544.558 526.343 544.558 528V534C544.558 535.657 543.13 537 541.368 537H510.747C508.986 537 507.558 535.657 507.558 534V528Z" fill="white"/>
<path fill-rule="evenodd" clip-rule="evenodd" d="M531.558 513.429L526.058 522L520.558 513.429L525.105 513.429L525.105 510L527.01 510L527.01 513.429L531.558 513.429Z" fill="white"/>
<defs>
<filter id="filter0_i_1334_149" x="218.558" y="105" width="837" height="590" filterUnits="userSpaceOnUse" color-interpolation-filters="sRGB">
<feFlood flood-opacity="0" result="BackgroundImageFix"/>
<feBlend mode="normal" in="SourceGraphic" in2="BackgroundImageFix" result="shape"/>
<feColorMatrix in="SourceAlpha" type="matrix" values="0 0 0 0 0 0 0 0 0 0 0 0 0 0 0 0 0 0 127 0" result="hardAlpha"/>
<feMorphology radius="10" operator="erode" in="SourceAlpha" result="effect1_innerShadow_1334_149"/>
<feOffset/>
<feGaussianBlur stdDeviation="5.5"/>
<feComposite in2="hardAlpha" operator="arithmetic" k2="-1" k3="1"/>
<feColorMatrix type="matrix" values="0 0 0 0 0.675 0 0 0 0 0.632812 0 0 0 0 0.632812 0 0 0 0.25 0"/>
<feBlend mode="normal" in2="shape" result="effect1_innerShadow_1334_149"/>
</filter>
<filter id="filter1_di_1334_149" x="164.558" y="655" width="945" height="72" filterUnits="userSpaceOnUse" color-interpolation-filters="sRGB">
<feFlood flood-opacity="0" result="BackgroundImageFix"/>
<feColorMatrix in="SourceAlpha" type="matrix" values="0 0 0 0 0 0 0 0 0 0 0 0 0 0 0 0 0 0 127 0" result="hardAlpha"/>
<feOffset dy="10"/>
<feGaussianBlur stdDeviation="8"/>
<feComposite in2="hardAlpha" operator="out"/>
<feColorMatrix type="matrix" values="0 0 0 0 0.156863 0 0 0 0 0.592157 0 0 0 0 0.952941 0 0 0 0.25 0"/>
<feBlend mode="normal" in2="BackgroundImageFix" result="effect1_dropShadow_1334_149"/>
<feBlend mode="normal" in="SourceGraphic" in2="effect1_dropShadow_1334_149" result="shape"/>
<feColorMatrix in="SourceAlpha" type="matrix" values="0 0 0 0 0 0 0 0 0 0 0 0 0 0 0 0 0 0 127 0" result="hardAlpha"/>
<feMorphology radius="10" operator="erode" in="SourceAlpha" result="effect2_innerShadow_1334_149"/>
<feOffset/>
<feGaussianBlur stdDeviation="5.5"/>
<feComposite in2="hardAlpha" operator="arithmetic" k2="-1" k3="1"/>
<feColorMatrix type="matrix" values="0 0 0 0 0.675 0 0 0 0 0.632812 0 0 0 0 0.632812 0 0 0 0.25 0"/>
<feBlend mode="normal" in2="shape" result="effect2_innerShadow_1334_149"/>
</filter>
<filter id="filter2_d_1334_149" x="241.558" y="202" width="262" height="158" filterUnits="userSpaceOnUse" color-interpolation-filters="sRGB">
<feFlood flood-opacity="0" result="BackgroundImageFix"/>
<feColorMatrix in="SourceAlpha" type="matrix" values="0 0 0 0 0 0 0 0 0 0 0 0 0 0 0 0 0 0 127 0" result="hardAlpha"/>
<feOffset dy="4"/>
<feGaussianBlur stdDeviation="7"/>
<feComposite in2="hardAlpha" operator="out"/>
<feColorMatrix type="matrix" values="0 0 0 0 0.788235 0 0 0 0 0.858824 0 0 0 0 0.913725 0 0 0 1 0"/>
<feBlend mode="normal" in2="BackgroundImageFix" result="effect1_dropShadow_1334_149"/>
<feBlend mode="normal" in="SourceGraphic" in2="effect1_dropShadow_1334_149" result="shape"/>
</filter>
<filter id="filter3_d_1334_149" x="506.558" y="202" width="262" height="158" filterUnits="userSpaceOnUse" color-interpolation-filters="sRGB">
<feFlood flood-opacity="0" result="BackgroundImageFix"/>
<feColorMatrix in="SourceAlpha" type="matrix" values="0 0 0 0 0 0 0 0 0 0 0 0 0 0 0 0 0 0 127 0" result="hardAlpha"/>
<feOffset dy="4"/>
<feGaussianBlur stdDeviation="7"/>
<feComposite in2="hardAlpha" operator="out"/>
<feColorMatrix type="matrix" values="0 0 0 0 0.788235 0 0 0 0 0.858824 0 0 0 0 0.913725 0 0 0 1 0"/>
<feBlend mode="normal" in2="BackgroundImageFix" result="effect1_dropShadow_1334_149"/>
<feBlend mode="normal" in="SourceGraphic" in2="effect1_dropShadow_1334_149" result="shape"/>
</filter>
<filter id="filter4_d_1334_149" x="771.558" y="202" width="262" height="158" filterUnits="userSpaceOnUse" color-interpolation-filters="sRGB">
<feFlood flood-opacity="0" result="BackgroundImageFix"/>
<feColorMatrix in="SourceAlpha" type="matrix" values="0 0 0 0 0 0 0 0 0 0 0 0 0 0 0 0 0 0 127 0" result="hardAlpha"/>
<feOffset dy="4"/>
<feGaussianBlur stdDeviation="7"/>
<feComposite in2="hardAlpha" operator="out"/>
<feColorMatrix type="matrix" values="0 0 0 0 0.788235 0 0 0 0 0.858824 0 0 0 0 0.913725 0 0 0 1 0"/>
<feBlend mode="normal" in2="BackgroundImageFix" result="effect1_dropShadow_1334_149"/>
<feBlend mode="normal" in="SourceGraphic" in2="effect1_dropShadow_1334_149" result="shape"/>
</filter>
<filter id="filter5_d_1334_149" x="241.558" y="382" width="262" height="158" filterUnits="userSpaceOnUse" color-interpolation-filters="sRGB">
<feFlood flood-opacity="0" result="BackgroundImageFix"/>
<feColorMatrix in="SourceAlpha" type="matrix" values="0 0 0 0 0 0 0 0 0 0 0 0 0 0 0 0 0 0 127 0" result="hardAlpha"/>
<feOffset dy="4"/>
<feGaussianBlur stdDeviation="7"/>
<feComposite in2="hardAlpha" operator="out"/>
<feColorMatrix type="matrix" values="0 0 0 0 0.788235 0 0 0 0 0.858824 0 0 0 0 0.913725 0 0 0 1 0"/>
<feBlend mode="normal" in2="BackgroundImageFix" result="effect1_dropShadow_1334_149"/>
<feBlend mode="normal" in="SourceGraphic" in2="effect1_dropShadow_1334_149" result="shape"/>
</filter>
<filter id="filter6_d_1334_149" x="506.558" y="382" width="262" height="158" filterUnits="userSpaceOnUse" color-interpolation-filters="sRGB">
<feFlood flood-opacity="0" result="BackgroundImageFix"/>
<feColorMatrix in="SourceAlpha" type="matrix" values="0 0 0 0 0 0 0 0 0 0 0 0 0 0 0 0 0 0 127 0" result="hardAlpha"/>
<feOffset dy="4"/>
<feGaussianBlur stdDeviation="7"/>
<feComposite in2="hardAlpha" operator="out"/>
<feColorMatrix type="matrix" values="0 0 0 0 0.788235 0 0 0 0 0.858824 0 0 0 0 0.913725 0 0 0 1 0"/>
<feBlend mode="normal" in2="BackgroundImageFix" result="effect1_dropShadow_1334_149"/>
<feBlend mode="normal" in="SourceGraphic" in2="effect1_dropShadow_1334_149" result="shape"/>
</filter>
<filter id="filter7_d_1334_149" x="771.558" y="382" width="262" height="158" filterUnits="userSpaceOnUse" color-interpolation-filters="sRGB">
<feFlood flood-opacity="0" result="BackgroundImageFix"/>
<feColorMatrix in="SourceAlpha" type="matrix" values="0 0 0 0 0 0 0 0 0 0 0 0 0 0 0 0 0 0 127 0" result="hardAlpha"/>
<feOffset dy="4"/>
<feGaussianBlur stdDeviation="7"/>
<feComposite in2="hardAlpha" operator="out"/>
<feColorMatrix type="matrix" values="0 0 0 0 0.788235 0 0 0 0 0.858824 0 0 0 0 0.913725 0 0 0 1 0"/>
<feBlend mode="normal" in2="BackgroundImageFix" result="effect1_dropShadow_1334_149"/>
<feBlend mode="normal" in="SourceGraphic" in2="effect1_dropShadow_1334_149" result="shape"/>
</filter>
<filter id="filter8_di_1334_149" x="888.839" y="304.923" width="240.005" height="441.077" filterUnits="userSpaceOnUse" color-interpolation-filters="sRGB">
<feFlood flood-opacity="0" result="BackgroundImageFix"/>
<feColorMatrix in="SourceAlpha" type="matrix" values="0 0 0 0 0 0 0 0 0 0 0 0 0 0 0 0 0 0 127 0" result="hardAlpha"/>
<feOffset dy="10"/>
<feGaussianBlur stdDeviation="8"/>
<feComposite in2="hardAlpha" operator="out"/>
<feColorMatrix type="matrix" values="0 0 0 0 0.156863 0 0 0 0 0.592157 0 0 0 0 0.952941 0 0 0 0.25 0"/>
<feBlend mode="normal" in2="BackgroundImageFix" result="effect1_dropShadow_1334_149"/>
<feBlend mode="normal" in="SourceGraphic" in2="effect1_dropShadow_1334_149" result="shape"/>
<feColorMatrix in="SourceAlpha" type="matrix" values="0 0 0 0 0 0 0 0 0 0 0 0 0 0 0 0 0 0 127 0" result="hardAlpha"/>
<feMorphology radius="10" operator="erode" in="SourceAlpha" result="effect2_innerShadow_1334_149"/>
<feOffset/>
<feGaussianBlur stdDeviation="5.5"/>
<feComposite in2="hardAlpha" operator="arithmetic" k2="-1" k3="1"/>
<feColorMatrix type="matrix" values="0 0 0 0 0.675 0 0 0 0 0.632812 0 0 0 0 0.632812 0 0 0 0.25 0"/>
<feBlend mode="normal" in2="shape" result="effect2_innerShadow_1334_149"/>
</filter>
<filter id="filter9_d_1334_149" x="965.72" y="348.764" width="190.244" height="118.136" filterUnits="userSpaceOnUse" color-interpolation-filters="sRGB">
<feFlood flood-opacity="0" result="BackgroundImageFix"/>
<feColorMatrix in="SourceAlpha" type="matrix" values="0 0 0 0 0 0 0 0 0 0 0 0 0 0 0 0 0 0 127 0" result="hardAlpha"/>
<feOffset dy="4"/>
<feGaussianBlur stdDeviation="7"/>
<feComposite in2="hardAlpha" operator="out"/>
<feColorMatrix type="matrix" values="0 0 0 0 0.788235 0 0 0 0 0.858824 0 0 0 0 0.913725 0 0 0 1 0"/>
<feBlend mode="normal" in2="BackgroundImageFix" result="effect1_dropShadow_1334_149"/>
<feBlend mode="normal" in="SourceGraphic" in2="effect1_dropShadow_1334_149" result="shape"/>
</filter>
<filter id="filter10_d_1334_149" x="857.558" y="456.234" width="190.244" height="118.136" filterUnits="userSpaceOnUse" color-interpolation-filters="sRGB">
<feFlood flood-opacity="0" result="BackgroundImageFix"/>
<feColorMatrix in="SourceAlpha" type="matrix" values="0 0 0 0 0 0 0 0 0 0 0 0 0 0 0 0 0 0 127 0" result="hardAlpha"/>
<feOffset dy="4"/>
<feGaussianBlur stdDeviation="7"/>
<feComposite in2="hardAlpha" operator="out"/>
<feColorMatrix type="matrix" values="0 0 0 0 0.788235 0 0 0 0 0.858824 0 0 0 0 0.913725 0 0 0 1 0"/>
<feBlend mode="normal" in2="BackgroundImageFix" result="effect1_dropShadow_1334_149"/>
<feBlend mode="normal" in="SourceGraphic" in2="effect1_dropShadow_1334_149" result="shape"/>
</filter>
<filter id="filter11_d_1334_149" x="962.947" y="564.396" width="190.244" height="118.136" filterUnits="userSpaceOnUse" color-interpolation-filters="sRGB">
<feFlood flood-opacity="0" result="BackgroundImageFix"/>
<feColorMatrix in="SourceAlpha" type="matrix" values="0 0 0 0 0 0 0 0 0 0 0 0 0 0 0 0 0 0 127 0" result="hardAlpha"/>
<feOffset dy="4"/>
<feGaussianBlur stdDeviation="7"/>
<feComposite in2="hardAlpha" operator="out"/>
<feColorMatrix type="matrix" values="0 0 0 0 0.788235 0 0 0 0 0.858824 0 0 0 0 0.913725 0 0 0 1 0"/>
<feBlend mode="normal" in2="BackgroundImageFix" result="effect1_dropShadow_1334_149"/>
<feBlend mode="normal" in="SourceGraphic" in2="effect1_dropShadow_1334_149" result="shape"/>
</filter>
<filter id="filter12_d_1334_149" x="991.558" y="137" width="128" height="128" filterUnits="userSpaceOnUse" color-interpolation-filters="sRGB">
<feFlood flood-opacity="0" result="BackgroundImageFix"/>
<feColorMatrix in="SourceAlpha" type="matrix" values="0 0 0 0 0 0 0 0 0 0 0 0 0 0 0 0 0 0 127 0" result="hardAlpha"/>
<feOffset dy="4"/>
<feGaussianBlur stdDeviation="7"/>
<feComposite in2="hardAlpha" operator="out"/>
<feColorMatrix type="matrix" values="0 0 0 0 0.156759 0 0 0 0 0.590805 0 0 0 0 0.952511 0 0 0 0.5 0"/>
<feBlend mode="normal" in2="BackgroundImageFix" result="effect1_dropShadow_1334_149"/>
<feBlend mode="normal" in="SourceGraphic" in2="effect1_dropShadow_1334_149" result="shape"/>
</filter>
<filter id="filter13_d_1334_149" x="134.558" y="255" width="148" height="148" filterUnits="userSpaceOnUse" color-interpolation-filters="sRGB">
<feFlood flood-opacity="0" result="BackgroundImageFix"/>
<feColorMatrix in="SourceAlpha" type="matrix" values="0 0 0 0 0 0 0 0 0 0 0 0 0 0 0 0 0 0 127 0" result="hardAlpha"/>
<feOffset dy="4"/>
<feGaussianBlur stdDeviation="7"/>
<feComposite in2="hardAlpha" operator="out"/>
<feColorMatrix type="matrix" values="0 0 0 0 0.509804 0 0 0 0 0.431373 0 0 0 0 0.960784 0 0 0 0.5 0"/>
<feBlend mode="normal" in2="BackgroundImageFix" result="effect1_dropShadow_1334_149"/>
<feBlend mode="normal" in="SourceGraphic" in2="effect1_dropShadow_1334_149" result="shape"/>
</filter>
<filter id="filter14_d_1334_149" x="475.558" y="469" width="101" height="101" filterUnits="userSpaceOnUse" color-interpolation-filters="sRGB">
<feFlood flood-opacity="0" result="BackgroundImageFix"/>
<feColorMatrix in="SourceAlpha" type="matrix" values="0 0 0 0 0 0 0 0 0 0 0 0 0 0 0 0 0 0 127 0" result="hardAlpha"/>
<feOffset dy="4"/>
<feGaussianBlur stdDeviation="7"/>
<feComposite in2="hardAlpha" operator="out"/>
<feColorMatrix type="matrix" values="0 0 0 0 0.156759 0 0 0 0 0.590805 0 0 0 0 0.952511 0 0 0 0.5 0"/>
<feBlend mode="normal" in2="BackgroundImageFix" result="effect1_dropShadow_1334_149"/>
<feBlend mode="normal" in="SourceGraphic" in2="effect1_dropShadow_1334_149" result="shape"/>
</filter>
<linearGradient id="paint0_linear_1334_149" x1="24.2008" y1="27.9748" x2="496.383" y2="552.115" gradientUnits="userSpaceOnUse">
<stop stop-color="#2897F3"/>
<stop offset="1" stop-color="#826EF5"/>
</linearGradient>
<linearGradient id="paint1_linear_1334_149" x1="760.058" y1="603" x2="331.558" y2="188.5" gradientUnits="userSpaceOnUse">
<stop stop-color="#CFE8F9"/>
<stop offset="1" stop-color="#E4EEF5" stop-opacity="0"/>
</linearGradient>
</defs>
</svg>
