<svg width="789" height="496" viewBox="0 0 789 496" fill="none" xmlns="http://www.w3.org/2000/svg">
<line x1="249.659" y1="367.622" x2="305.691" y2="394.163" stroke="#AFB1C0" stroke-width="10" stroke-linecap="round" stroke-dasharray="20 20"/>
<line x1="5" y1="-5" x2="67" y2="-5" transform="matrix(-0.903738 0.428086 0.428086 0.903738 547.069 370)" stroke="#AFB1C0" stroke-width="10" stroke-linecap="round" stroke-dasharray="20 20"/>
<line x1="397" y1="260" x2="397" y2="322" stroke="#AFB1C0" stroke-width="10" stroke-linecap="round" stroke-dasharray="20 20"/>
<path d="M124.836 437C190.292 437 243.776 386.401 243.776 323.478C243.776 260.554 190.292 209.955 124.836 209.955C59.3792 209.955 5.89551 260.554 5.89551 323.478C5.89551 386.401 59.3792 437 124.836 437Z" fill="#DBD9E4" stroke="#7EEA88" stroke-width="10"/>
<mask id="mask0_1516_153" style="mask-type:alpha" maskUnits="userSpaceOnUse" x="4" y="190" width="242" height="242">
<path d="M245.889 310.945C245.889 377.741 191.742 431.89 124.943 431.89C58.1491 431.89 4 377.741 4 310.945C4 244.149 58.1491 190 124.943 190C191.742 190 245.889 244.149 245.889 310.945Z" fill="white"/>
</mask>
<g mask="url(#mask0_1516_153)">
<path d="M37.1406 610.057C38.2591 608.525 39.4455 607.316 40.69 606.295C40.3438 606.122 39.9776 605.995 39.6359 605.813C40.1326 605.572 40.5431 605.199 40.8712 604.729C41.1105 605.055 41.3933 605.305 41.6788 605.545C43.7753 604.045 46.052 603.048 48.5337 602.264C48.7802 597.36 48.5364 592.466 48.0243 587.585C48.7494 586.825 49.2832 585.861 49.4002 584.826C50.05 579.081 50.2893 573.474 50.1325 567.695C50.0419 564.364 46.7445 563.123 44.3472 563.984C44.184 563.024 44.0172 562.063 43.8632 561.105C41.241 544.86 38.6207 528.616 36.0004 512.37C35.5998 509.895 33.0837 509.079 30.9547 509.59C30.9547 508.007 30.9374 506.422 30.9365 504.839C31.4396 485.605 33.0021 466.438 35.7348 447.321C35.8835 446.284 35.6904 445.367 35.317 444.585C35.7874 443.533 36.3149 442.523 36.9856 441.632C39.2207 438.664 36.3856 435.769 33.4001 435.73C40.0564 422.112 49.6222 410.229 63.6691 401.576C68.1792 398.798 64.0416 391.662 59.5071 394.455C11.3654 424.109 9.47379 489.568 6.98762 539.991C5.84197 563.257 6.3894 588.61 24.9835 605.365C26.7555 606.962 28.609 608.377 30.5015 609.7C30.5713 609.819 30.6338 609.939 30.7036 610.057C31.5203 611.442 32.82 612.038 34.1224 612.033C34.7415 612.399 35.375 612.723 36.004 613.063C36.1219 611.991 36.4817 610.958 37.1406 610.057Z" fill="#5D5E75"/>
<path d="M251.157 519.852C245.601 469.757 226.332 421.915 190.413 385.934C186.651 382.174 180.823 388.004 184.576 391.766C196.685 403.894 206.827 417.465 215.166 432.049C214.74 432.847 214.604 433.835 214.984 434.983C216.861 440.602 218.411 446.328 219.725 452.122C219.353 452.874 219.181 453.763 219.326 454.763C221.474 469.105 223.613 483.449 225.752 497.791C226.722 508.044 227.547 518.319 228.68 528.557C228.091 529.041 227.646 529.748 227.474 530.733C226.078 538.556 224.891 546.402 223.794 554.262C220.713 563.191 215.936 571.581 210.706 579.88C209.329 582.058 210.507 584.61 212.555 585.622C209.428 586.827 209.329 590.546 211.123 592.465C201.026 595.024 190.087 595.719 180.434 596.138C175.15 596.368 175.122 604.615 180.434 604.384C201.806 603.455 226.033 601.74 241.369 584.738C256.813 567.618 253.487 540.877 251.157 519.852Z" fill="#8A8EAC"/>
<path d="M229.056 496.682C229.237 495.801 229.283 494.842 229.138 493.807C229.047 493.187 228.957 492.563 228.866 491.942C228.812 490.736 228.766 489.519 228.712 488.324C228.648 487.056 228.322 485.991 227.842 485.086C222.494 450.066 214.482 414.417 192.167 387.956C181.952 375.841 169.943 368.307 156.148 362.577C149.749 359.92 143.695 354.296 137.16 352.462C131.631 350.91 127.353 354.418 122.504 356.412C120.319 354.183 116.204 350.97 112.987 353.303C91.6845 368.765 63.1231 384.083 43.745 407.742C42.9745 408.682 37.3469 413.432 30.0452 423.227C27.1657 432.678 32.6238 442.431 30.4776 452.013C28.6784 476.826 23.7541 581.356 27.5672 608.551C29.4597 622.038 31.3785 635.814 35.2994 648.884C35.8514 650.724 36.427 652.537 37.0052 654.341C40.0262 657.051 51.7174 664.7 54.3957 666.903C62.621 673.664 80.3214 686.752 87.9249 672.975C92.7849 664.166 122.395 595.381 125.014 571.142C125.014 571.142 137.386 616.844 157.29 666.114C158.351 668.743 160.562 671.299 163.172 671.154C176.714 670.41 185.949 652.31 194.333 641.95C203.778 630.276 213.675 619.092 218.542 603.961C229.092 571.11 230.334 531.845 229.056 496.682Z" fill="#8A8EAC"/>
<path d="M129.079 371.824H125.435C116.054 371.824 108.457 364.223 108.457 354.847V309.951H146.055V354.847C146.055 364.223 138.451 371.824 129.079 371.824Z" fill="#DFAE8A"/>
<path d="M144.504 321.769C138.658 320.34 131.417 320.763 127.963 320.978C122.126 321.34 116.18 322.232 110.834 324.92C110.75 324.961 110.644 325.012 110.555 325.055V339.516C117.105 345.411 124.302 349.348 133.565 347.003C136.256 346.32 140.598 344.605 144.504 342.117V321.769Z" fill="#E0585E"/>
<path d="M127.464 242.164C86.0248 242.789 89.4944 278.382 89.6058 279.94C90.8204 296.926 90.8956 310.791 97.9299 322.368C102.292 329.549 111.152 343.038 127.545 343.272C137.76 343.419 143.371 336.988 149.217 330.504C160.401 318.087 164.525 296.427 164.172 280.378C163.737 260.24 158.951 241.688 127.464 242.164Z" fill="#DFAE8A"/>
<path d="M167.124 288.379C162.229 284.383 157.589 294.259 155.957 297.397C154.942 299.352 157.779 301.146 158.867 299.323C158.522 299.892 158.187 300.462 157.842 301.031C156.673 302.986 154.453 305.682 155.776 308.076C158.359 312.744 165.601 306.739 167.55 303.893C171.964 297.442 171.094 291.615 167.124 288.379Z" fill="#DFAE8A"/>
<path d="M161.305 296.623C161.151 298.393 160.471 300.051 159.329 301.421C158.042 302.977 160.272 305.227 161.568 303.657C163.281 301.592 164.233 299.295 164.468 296.623C164.659 294.596 161.486 294.608 161.305 296.623Z" fill="#B78E85"/>
<path d="M86.5047 304.203C88.4524 307.05 95.688 313.054 98.2739 308.386C99.5999 305.992 97.3811 303.296 96.2092 301.342C95.8675 300.772 95.5257 300.203 95.185 299.633C96.2753 301.457 99.1122 299.662 98.0953 297.708C96.4638 294.57 91.826 284.693 86.9261 288.689C82.9572 291.925 82.0916 297.752 86.5047 304.203Z" fill="#DFAE8A"/>
<path d="M92.3369 296.002C92.4973 297.772 93.179 299.431 94.3137 300.801C95.6035 302.357 93.3775 304.606 92.0777 303.037C90.3656 300.972 89.4166 298.675 89.1746 296.002C88.9915 293.976 92.1565 293.987 92.3369 296.002Z" fill="#B78E85"/>
<path d="M110.833 294.493C110.833 296.494 109.772 298.116 108.463 298.116C107.155 298.116 106.094 296.494 106.094 294.493C106.094 292.49 107.155 290.868 108.463 290.868C109.772 290.868 110.833 292.49 110.833 294.493Z" fill="#4C4D55"/>
<path d="M148.292 294.921C148.292 296.922 147.232 298.544 145.917 298.544C144.612 298.544 143.552 296.922 143.552 294.921C143.552 292.92 144.612 291.296 145.917 291.296C147.232 291.296 148.292 292.92 148.292 294.921Z" fill="#4C4D55"/>
<path d="M136.45 318.628C129.081 318.675 126.76 318.384 118.114 318.689C116.455 318.748 115.694 320.374 116.917 320.926C116.926 320.935 116.926 320.946 116.935 320.955C122.183 326.405 133.078 326.704 137.854 320.726C137.918 320.653 137.927 320.583 137.963 320.51C138.697 319.79 137.945 318.618 136.45 318.628Z" fill="white"/>
<path d="M92.4925 367.173C91.6795 367.716 90.8655 368.264 90.0471 368.811C94.2227 407.47 98.9268 446.318 99.6138 485.096C100.457 532.628 94.6207 579.99 86.4788 626.739C83.8421 641.875 79.3919 663.945 76.4054 679.018C77.348 679.163 78.5943 678.71 79.4979 678.673C86.3654 643.978 93.901 602.699 97.9452 567.551C103.347 520.605 102.99 474.386 98.3912 427.411C96.4261 407.332 94.4593 387.253 92.4925 367.173ZM125.532 366.927C124.572 366.879 123.647 366.784 122.786 366.612C122.315 406.521 122.142 446.308 126.094 486.148C128.496 510.344 129.665 534.393 128.641 558.704C128.514 561.884 128.351 565.06 128.17 568.237C128.714 570.165 129.466 572.758 130.409 575.94C130.798 570.199 131.152 564.455 131.396 558.704C132.421 534.393 131.242 510.343 128.841 486.148C124.907 446.412 125.061 406.73 125.532 366.927ZM69.1345 383.647C68.1665 384.394 67.2112 385.158 66.2532 385.922C63.728 434.275 70.1288 482.71 67.2266 531.097C64.7042 573.123 57.4695 622.442 50.6364 664.135C51.551 664.77 52.4338 665.214 53.1562 665.74C59.9367 624.328 67.0816 575.452 69.8107 533.718C73.0799 483.704 66.2169 433.625 69.1345 383.647ZM218.97 545.1C217.257 505.746 214.71 466.384 214.202 427C213.341 424.645 212.408 422.325 211.438 420.025C211.682 459.928 214.166 499.811 215.979 539.679C216.958 561.26 217.719 584.118 217.737 605.721C218.716 603.592 219.577 600.144 220.338 597.85C220.356 597.792 220.375 597.737 220.393 597.679C220.257 580.147 219.731 562.615 218.97 545.1ZM36.3866 415.302C36.4663 480.619 35.3832 545.957 27.8984 610.782C28.3997 614.345 28.9163 617.92 29.4737 621.5C30.177 616.179 30.8596 610.864 31.4569 605.531C36.7437 558.338 38.5083 510.828 39.005 463.366C39.1836 446.34 39.1781 429.314 39.1301 412.287C38.3062 413.154 37.3754 414.179 36.3866 415.302ZM187.827 426.585C187.618 412.349 187.863 398.118 188.615 383.916C187.772 383.035 186.911 382.211 186.041 381.381C181.419 462.322 195.087 543.422 193.356 624.473C193.247 629.585 193.184 638.53 193.002 643.633C193.891 642.392 194.878 641.313 195.748 640.198C196.483 616.161 196.329 588.179 195.205 564.065C193.075 518.221 188.488 472.495 187.827 426.585ZM158.361 502.498C156.711 477.64 154.319 452.594 154.699 427.662C155.016 406.653 158.461 385.965 162.73 365.448C161.887 365.036 161.026 364.626 160.165 364.233C156.766 380.433 153.883 396.736 152.615 413.254C150.684 438.423 153.086 463.806 154.717 488.928C158.035 540.006 161.941 591.101 162.095 642.31C162.113 649.226 162.204 664.326 162.077 671.232C162.866 671.921 163.971 670.888 164.941 671.006C165.512 642.419 164.424 607.099 163.02 578.534C161.769 553.171 160.038 527.835 158.361 502.498Z" fill="#B78E85"/>
<path d="M155.372 283.497C155.036 282.787 154.502 282.238 154.121 282.033C150.949 280.308 147.405 279.742 143.97 280.789C142.673 281.183 138.894 283.235 141.35 285.195C142.456 286.077 150.795 285.822 153.414 285.957C155.453 286.061 156.124 285.074 155.372 283.497Z" fill="#40A0F0"/>
<path d="M102.761 285.499C105.303 285.365 113.386 285.619 114.464 284.738C116.848 282.777 113.177 280.726 111.926 280.331C108.589 279.285 105.15 279.849 102.072 281.575C101.704 281.781 101.188 282.329 100.86 283.04C100.13 284.617 100.781 285.604 102.761 285.499Z" fill="#40A0F0"/>
<path d="M129.642 308.603C124.567 310.287 124.213 303.447 124.775 300.169C125.201 297.64 125.808 295.128 126.325 292.617C126.679 290.891 124.032 290.153 123.669 291.886C122.691 296.638 120.416 302.679 122.455 307.429C123.824 310.604 127.023 312.365 130.377 311.254C132.044 310.699 131.328 308.043 129.642 308.603Z" fill="#B78E85"/>
<path d="M163.448 308.135C163.212 306.93 162.052 305.846 161.554 306.017C156.949 305.759 156.351 309.725 155.118 313.732C152.155 323.437 140.299 332.81 127.094 332.609C121.057 332.517 104.646 331.21 100.947 317.619C98.2266 307.624 98.9988 307.868 96.151 305.67C94.9854 304.771 94.0809 304.796 92.6225 305.542C92.1675 305.775 91.7461 306.18 91.64 306.856C89.7403 318.982 93.3712 331.594 101.639 340.882C108.44 348.523 117.241 350.518 126.622 350.654C136.565 350.798 146.173 349.05 153.333 341.006C161.336 332.012 164.943 319.903 163.448 308.135Z" fill="#40A0F0"/>
<path d="M152.973 363.632C151.704 360.614 150.544 356.948 148.106 354.629C147.761 354.3 147.19 354.119 146.719 354.276C143.32 355.395 140.311 357.825 136.985 359.235C134.501 360.285 130.196 360.622 128.229 362.372C127.667 362.878 127.323 363.374 127.096 363.889C126.879 363.374 126.534 362.878 125.963 362.372C123.996 360.622 119.691 360.285 117.217 359.235C113.881 357.825 110.881 355.395 107.482 354.276C107.007 354.119 106.436 354.3 106.089 354.629C103.651 356.948 102.49 360.614 101.223 363.632C100.533 365.272 103.88 378.454 105.7 379.017C109.754 380.273 113.9 381.345 117.996 382.467C122.655 383.741 125.374 383.696 126.362 378.533C126.688 376.816 126.924 375.058 127.096 373.296C127.278 375.058 127.513 376.816 127.839 378.533C128.827 383.696 131.547 383.741 136.205 382.467C140.302 381.345 144.444 380.273 148.496 379.017C150.317 378.454 153.662 365.272 152.973 363.632Z" fill="#8A8EAC"/>
<path d="M148.645 363.128C147.212 369.033 145.092 377.469 140.569 381.887C133.046 389.24 128.913 372.43 128.215 367.801C128.215 367.79 128.206 367.777 128.206 367.766V367.761C128.115 367.173 127.753 366.889 127.327 366.806C126.62 366.491 125.741 366.67 125.587 367.645C124.907 372.221 120.765 389.145 113.224 381.773C108.705 377.355 106.583 368.919 105.154 363.013C104.739 361.295 102.088 362.023 102.504 363.744C103.829 369.225 105.759 374.519 108.469 379.474C110.156 382.556 112.363 386.293 116.197 386.847C121.925 387.675 125.179 380.764 126.883 374.693C128.578 380.792 131.831 387.793 137.596 386.961C141.43 386.407 143.641 382.67 145.327 379.588C148.037 374.633 149.968 369.341 151.291 363.859C151.708 362.137 149.061 361.409 148.645 363.128Z" fill="#AFB1C0"/>
<path d="M127.92 391.957C124.385 391.957 124.376 397.454 127.92 397.454C131.455 397.454 131.464 391.957 127.92 391.957Z" fill="#AFB1C0"/>
<path d="M128.954 420.819C125.419 420.819 125.41 426.316 128.954 426.316C132.489 426.316 132.498 420.819 128.954 420.819Z" fill="#AFB1C0"/>
<path d="M197.979 460.976C197.907 460.8 197.852 460.624 197.789 460.449C198.496 460.773 199.42 460.599 199.629 459.625C200.762 454.303 202.348 449.135 204.378 444.087C205.04 442.447 202.384 441.734 201.732 443.355C199.756 448.263 198.206 453.286 197.082 458.453C192.45 445.439 189.242 432.304 188.045 418.458C187.891 416.71 185.145 416.694 185.299 418.458C186.441 431.72 189.151 444.693 193.665 457.229C195.849 463.293 198.278 469.243 199.629 475.567C201.278 483.303 201.614 491.24 201.967 499.118C202.049 500.88 204.795 500.89 204.714 499.118C204.124 485.792 202.638 473.55 197.979 460.976Z" fill="#494B5E"/>
<path d="M157.079 246.542C154.976 243.463 151.251 238.457 146.982 238.591C144.852 238.656 144.19 239.457 143.9 240.661C139.024 233.199 132.598 226.079 123.307 224.891C116.981 224.081 110.944 226.897 111.285 233.238C106.413 232.598 102.65 230.41 97.6881 233.045C93.8061 235.106 91.3154 239.069 90.5821 243.336C90.1253 245.996 90.8296 248.272 88.7767 250.486C87.7733 251.566 86.8407 251.069 85.9126 252.526C83.9503 255.607 85.7929 260.991 86.3703 264.285C85.1467 270.465 84.9627 276.812 86.1799 283.079C86.6775 285.642 88.0017 290.076 91.2465 287.504C93.6412 285.606 93.4227 279.52 94.0599 276.734C95.7892 269.177 98.1041 264.494 105.973 262.232C115.54 259.482 122.963 253.716 133.468 254.563C133.495 254.572 133.513 254.591 133.54 254.597C139.504 255.927 145.849 257.6 150.326 262.043C154.514 266.189 155.873 271.948 157.224 277.472C158.049 280.836 159.027 288.785 164.384 286.789C164.991 286.564 165.934 284.982 165.952 284.457C166.514 271.668 164.438 257.351 157.079 246.542Z" fill="#40A0F0"/>
<path d="M48.5062 432.986C45.5025 439.943 43.6372 447.113 42.884 454.654C42.709 456.412 45.459 456.4 45.633 454.654C46.3345 447.622 48.0775 440.861 50.88 434.374C51.5742 432.767 49.2068 431.365 48.5062 432.986Z" fill="#494B5E"/>
</g>
<path d="M664.836 437C730.292 437 783.776 386.401 783.776 323.478C783.776 260.554 730.292 209.955 664.836 209.955C599.379 209.955 545.896 260.554 545.896 323.478C545.896 386.401 599.379 437 664.836 437Z" fill="#DBD9E4" stroke="#7EEA88" stroke-width="10"/>
<mask id="mask1_1516_153" style="mask-type:alpha" maskUnits="userSpaceOnUse" x="544" y="190" width="242" height="242">
<path d="M785.562 310.782C785.562 377.487 731.487 431.562 664.782 431.562C598.076 431.562 544 377.487 544 310.782C544 244.076 598.076 190 664.782 190C731.487 190 785.562 244.076 785.562 310.782Z" fill="white"/>
</mask>
<g mask="url(#mask1_1516_153)">
<path d="M762.396 441.784C759.905 425.074 759.472 401.03 749.729 387.006C745.507 380.93 738.805 377.458 732.801 373.782C723.615 368.156 714.475 362.396 705.184 356.967C690.098 348.155 674.672 341.219 657.363 344.934C656.53 343.846 655.211 343.207 653.55 343.69C632.812 349.716 609.784 356.64 591.388 368.952C576.694 378.784 570.987 392.751 566.797 410.084C561.439 432.256 558.763 455.298 556.455 478.031C554.361 498.649 553.743 518.537 560.58 537.977C558.908 540.355 559.874 544.727 563.514 544.711C586.102 544.61 607.24 550.635 629.487 553.105C649.296 555.304 669.217 552.865 688.736 549.192C716.221 544.021 765.391 540.258 768.489 502.013C770.073 482.472 765.267 461.041 762.396 441.784Z" fill="#8A8EAC"/>
<path d="M664.744 363.686L661.11 363.554C651.753 363.212 644.445 355.35 644.787 345.992L646.423 301.187L683.942 302.558L682.306 347.363C681.964 356.719 674.102 364.028 664.744 363.686Z" fill="#EFC3BA"/>
<path d="M683.024 327.813C683.26 332.562 682.429 337.313 682.62 342.063C666.232 353.431 652.041 347.156 644.858 340.794C644.695 335.82 645.419 333.803 645.41 328.829C645.981 329.082 648.531 329.317 649.129 329.527C660.395 333.452 672.32 332.136 683.024 327.813Z" fill="#DFAE8A"/>
<path d="M666.978 241.32C625.597 240.435 627.763 276.082 627.817 277.642C628.409 294.637 630.235 310.649 636.833 322.459C640.924 329.786 653.877 342.066 663.372 342.228C671.146 342.362 682.4 335.819 687.501 328.751C699.511 312.108 701.981 296.826 702.218 280.796C702.515 260.683 698.413 241.994 666.978 241.32Z" fill="#EFC3BA"/>
<path d="M704.55 287.865C699.806 283.699 694.817 293.386 693.073 296.458C691.988 298.372 694.753 300.266 695.908 298.485C695.547 299.041 695.186 299.598 694.824 300.154C693.583 302.061 691.27 304.671 692.506 307.109C694.917 311.861 702.357 306.133 704.405 303.362C709.044 297.086 708.393 291.239 704.55 287.865Z" fill="#EFC3BA"/>
<path d="M699.272 294.416C699.155 296.188 698.515 297.861 697.414 299.254C696.164 300.839 698.44 303.032 699.701 301.434C701.361 299.331 702.253 297.016 702.43 294.341C702.565 292.314 699.406 292.402 699.272 294.416Z" fill="#DFAE8A"/>
<path d="M623.822 301.752C625.662 304.664 632.664 310.92 635.415 306.356C636.826 304.015 634.71 301.243 633.611 299.251C633.292 298.67 632.972 298.089 632.652 297.508C633.674 299.368 636.57 297.68 635.627 295.693C634.113 292.501 629.844 282.476 624.808 286.285C620.729 289.369 619.653 295.154 623.822 301.752Z" fill="#EFC3BA"/>
<path d="M629.94 293.768C630.035 295.54 630.654 297.22 631.736 298.628C632.967 300.229 630.664 302.392 629.423 300.779C627.79 298.656 626.926 296.328 626.783 293.652C626.674 291.623 629.831 291.751 629.94 293.768Z" fill="#DFAE8A"/>
<path d="M648.447 292.936C648.374 294.934 647.256 296.514 645.95 296.467C644.644 296.419 643.645 294.761 643.717 292.763C643.79 290.766 644.908 289.185 646.214 289.233C647.52 289.281 648.52 290.938 648.447 292.936Z" fill="#4C4D55"/>
<path d="M685.795 294.735C685.722 296.734 684.604 298.314 683.298 298.266C681.992 298.219 680.992 296.561 681.065 294.564C681.139 292.566 682.256 290.985 683.563 291.033C684.869 291.081 685.868 292.738 685.795 294.735Z" fill="#4C4D55"/>
<path d="M672.974 313.937C665.616 313.737 663.315 313.226 654.669 313.36C653.012 313.385 652.168 315.749 653.355 316.605C653.364 316.62 657.403 322.66 663.236 323.141C667.377 323.483 671.606 321.579 674.266 317.076C674.329 316.971 674.343 316.866 674.384 316.761C675.156 315.73 674.465 313.977 672.974 313.937Z" fill="white"/>
<path d="M668.915 306.352C666.9 309.057 662.764 308.699 661.54 305.403C660.994 303.933 661.376 301.119 661.505 299.506C661.8 295.827 662.506 292.241 663.446 288.679C663.896 286.969 661.25 286.24 660.799 287.949C659.727 292.01 658.985 296.124 658.706 300.318C658.517 303.145 658.275 306.267 660.211 308.585C663.38 312.375 668.57 311.383 671.286 307.738C672.341 306.32 669.96 304.95 668.915 306.352Z" fill="#DFAE8A"/>
<path d="M649.06 244.311C649.425 243.338 655.619 240.885 654.323 241.024C643.225 242.205 633.735 245.255 627.742 258.859C625.067 264.93 624.013 281.055 627.272 285.084C627.873 285.826 629.335 285.57 629.566 284.478C631.339 276.069 632.556 265.226 638.167 258.409C644.944 250.174 651.12 250.174 653.522 249.259C654.289 248.966 649.655 244.537 649.06 244.311Z" fill="#40A0F0"/>
<path d="M676.081 250.516C678.483 251.431 684.659 251.431 691.436 259.666C697.047 266.485 698.265 277.327 700.037 285.735C700.267 286.828 701.73 287.084 702.331 286.342C705.59 282.313 704.536 266.188 701.861 260.116C695.868 246.513 686.378 243.462 675.28 242.281C673.984 242.143 680.178 244.596 680.543 245.569C679.948 245.794 675.314 250.224 676.081 250.516Z" fill="#40A0F0"/>
<path d="M655.308 275.948C651.885 274.456 648.291 273.811 644.57 274.421C642.659 274.734 638.002 275.837 638.712 278.725C639.355 281.341 644.907 280.366 646.736 280.431C649.323 280.524 654.162 281.413 655.948 278.973C656.087 278.782 656.315 278.118 656.215 277.454C656.114 276.781 655.681 276.11 655.308 275.948Z" fill="#40A0F0"/>
<path d="M690.922 277.833C687.683 275.976 684.181 274.942 680.416 275.142C678.482 275.244 673.732 275.833 674.122 278.782C674.476 281.452 680.101 281.088 681.912 281.353C684.473 281.728 689.187 283.14 691.227 280.912C691.386 280.737 691.687 280.1 691.66 279.429C691.632 278.75 691.275 278.035 690.922 277.833Z" fill="#40A0F0"/>
<path d="M701.669 253.401C700.634 251.051 699.413 250.324 699.321 247.396C699.247 245.027 699.842 242.792 699.129 240.435C697.648 235.546 691.149 232.741 688.139 236.395C686.524 233.471 684.275 230.934 680.855 230.1C676.618 229.065 675.261 231.195 672.648 232.961C668.784 231.826 667.414 228.025 663.292 227.688C659.098 227.345 656.562 231.647 652.366 231.35C650.43 231.213 649.989 229.459 647.448 230.151C643.95 231.106 642.601 237.048 639.557 237.675C637.931 236.447 635.865 236.236 634.177 237.635C633.159 238.479 632.602 239.759 632.4 241.037C632.277 241.816 632.274 242.595 632.398 243.342C632.696 245.14 631.25 244.681 630.007 245.77C628.08 247.458 627.231 248.986 627.88 251.9C628.735 255.747 632.704 253.985 634.541 256.625C632.644 258.824 631.396 261.523 630.838 264.526C630.517 266.253 633.162 266.993 633.485 265.256C634.938 257.433 640.778 254.079 648.231 254.157C653.756 254.216 657.691 253.584 663.125 252.582C671.013 251.124 678.662 251.662 685.471 256.186C689.898 259.127 692.943 261.378 698.294 262.489C698.561 262.544 698.793 262.51 699.006 262.441C699.373 262.505 699.76 262.409 700.086 262.018C702.117 259.58 703.016 256.461 701.669 253.401Z" fill="#40A0F0"/>
<path d="M685.434 241.835C684.252 240.517 682.315 242.464 683.492 243.776C685.5 246.011 686.274 248.817 685.909 251.776C685.693 253.525 688.44 253.508 688.653 251.776C689.107 248.107 687.888 244.568 685.434 241.835Z" fill="#40A0F0"/>
<path d="M696.116 250.61C695.754 248.883 693.107 249.613 693.469 251.34C693.668 252.288 694.277 254.452 693.212 255.113C691.715 256.042 693.092 258.418 694.598 257.483C696.974 256.008 696.611 252.97 696.116 250.61Z" fill="#40A0F0"/>
<path d="M641.605 250.624C640.242 250.461 639.12 249.757 638.227 248.746C637.054 247.421 635.118 249.368 636.286 250.687C637.7 252.286 639.507 253.118 641.605 253.369C643.354 253.579 643.339 250.832 641.605 250.624Z" fill="#40A0F0"/>
<path d="M648.587 368.287C642.894 365.797 639.01 360.866 637.946 354.738C637.645 353.002 634.999 353.738 635.3 355.469C636.468 362.203 640.937 367.919 647.202 370.658C648.805 371.358 650.204 368.994 648.587 368.287Z" fill="#AFB1C0"/>
<path d="M688.752 356.325C686.686 360.602 683.361 363.87 679.056 365.872C677.455 366.616 678.848 368.983 680.442 368.242C685.121 366.067 688.878 362.356 691.121 357.711C691.886 356.127 689.52 354.733 688.752 356.325Z" fill="#AFB1C0"/>
<path d="M733.096 388.624C733.733 386.975 731.081 386.261 730.45 387.894C725.467 400.802 718.258 414.512 715.962 428.419C714.386 423.009 712.707 417.633 710.817 412.32C710.231 410.667 707.577 411.379 708.17 413.049C710.682 420.116 712.916 427.262 714.875 434.501C714.95 434.777 715.094 434.969 715.262 435.124C714.314 450.956 716.24 467.33 718.411 482.956C718.653 484.698 721.298 483.957 721.058 482.226C718.851 466.344 716.75 449.408 718.095 433.357C719.377 418.067 727.62 402.81 733.096 388.624Z" fill="#AFB1C0"/>
<path d="M584.898 390.647C584.63 388.906 581.985 389.645 582.252 391.377C585.676 413.536 587.946 435.826 589.084 458.219C589.174 459.976 591.918 459.987 591.829 458.219C590.679 435.581 588.36 413.047 584.898 390.647Z" fill="#AFB1C0"/>
</g>
<path d="M394.836 247C460.292 247 513.776 196.401 513.776 133.478C513.776 70.5542 460.292 19.9552 394.836 19.9552C329.379 19.9552 275.896 70.5542 275.896 133.478C275.896 196.401 329.379 247 394.836 247Z" fill="#DBD9E4" stroke="#7EEA88" stroke-width="10"/>
<mask id="mask2_1516_153" style="mask-type:alpha" maskUnits="userSpaceOnUse" x="274" y="0" width="242" height="242">
<path d="M515.891 120.946C515.891 187.745 461.736 241.891 394.946 241.891C328.146 241.891 274 187.745 274 120.946C274 54.1554 328.146 0 394.946 0C461.736 0 515.891 54.1554 515.891 120.946Z" fill="white"/>
</mask>
<g mask="url(#mask2_1516_153)">
<path d="M442.165 129.479C440.652 124.14 440.661 121.312 443.38 116.21C445.12 112.947 445.818 110.608 444.685 106.847C442.818 100.638 438.186 96.0067 437.978 89.1636C437.788 82.7375 439.401 76.9911 438.295 70.5015C438.06 69.0966 436.319 69.3142 435.794 70.3475C426.449 70.429 416.95 70.6012 408.032 73.7191C399.467 76.7011 380.134 68.7341 372.221 73.0847C353.296 83.4989 344.613 108.868 322.09 104.409C321.619 104.318 321.229 104.454 320.939 104.699C320.803 104.699 320.667 104.708 320.513 104.762C317.005 106.085 314.585 108.66 313.86 112.457C312.827 117.959 316.425 119.645 318.247 124.131C321.039 130.974 310.28 138.071 308.576 144.488C306.881 150.833 310.352 153.497 312.908 158.754C316.606 166.377 308.875 176.519 307.18 184.441C305.775 190.976 305.531 197.692 306.446 204.308C307.67 213.191 313.96 222.98 323.54 217.242C328.289 223.741 336.338 226.007 344.242 224.675C355.426 222.78 363.91 214.714 370.907 206.348C374.442 202.115 377.986 197.801 381.049 193.205C384.348 188.239 386.27 182.701 389.08 177.471C393.874 168.561 404.551 166.241 409.563 157.902C414.304 158.745 419.307 159.335 424.047 158.573C428.071 157.921 429.114 156.434 431.896 154.041C435.105 151.277 439.628 152.736 442.501 149.392C445.247 146.21 444.522 141.361 443.969 137.591C443.561 134.826 442.927 132.162 442.165 129.479Z" fill="#40A0F0"/>
<path d="M388.514 120.111C386.701 114.591 381.372 106.705 375.707 104.485C375.852 103.868 375.979 103.234 376.051 102.545C376.223 100.787 373.468 100.796 373.296 102.545C372.698 108.708 367.051 110.711 363.988 115.116C362.184 117.718 361.577 120.5 361.368 123.6C361.024 128.821 361.722 133.643 358.867 138.328C356.737 141.8 353.492 144.492 350.954 147.646C344.265 155.957 343.096 174.619 357.652 175.208C364.985 175.508 371.238 170.042 375.861 164.958C381.19 159.093 386.692 152.413 388.65 144.591C390.598 136.824 391.043 127.787 388.514 120.111Z" fill="#40A0F0"/>
<path d="M442.565 149.223C445.311 146.041 444.577 141.192 444.024 137.422C443.616 134.657 442.981 131.992 442.229 129.31C440.716 123.971 440.716 121.143 443.435 116.04C445.184 112.777 445.873 110.439 444.74 106.678C442.9 100.56 438.404 95.9643 438.069 89.3025C433.147 90.0457 428.625 93.1184 425.416 97.1879C425.063 97.623 425.044 98.1124 425.189 98.5475C417.503 104.249 411.349 114.237 406.065 121.995C401.289 129.01 396.222 137.032 398.742 145.878C400.292 151.334 403.781 156.038 408.249 159.582C408.721 158.984 409.219 158.404 409.627 157.733C414.358 158.576 419.362 159.165 424.102 158.404C428.135 157.751 429.168 156.265 431.951 153.872C435.16 151.108 439.682 152.567 442.565 149.223Z" fill="#40A0F0"/>
<path d="M476.367 189.193C469.751 162.799 434.104 159.663 415.867 143.213C413.293 140.892 409.405 144.59 411.979 146.911C411.997 146.929 412.024 146.947 412.052 146.974C405.263 146.394 398.483 145.823 391.704 145.243C391.767 143.249 389.012 141.409 387.018 143.213C368.773 159.663 333.125 162.799 326.518 189.193C323.699 200.423 342.352 221.332 344.6 232.399C347.763 247.943 355.431 290.062 358.685 305.588C361.658 319.746 364.921 309.948 368.764 323.915C370.812 331.329 385.287 307.682 393.208 310.474C404.792 314.561 387.598 331.084 399.598 330.423C400.215 330.387 400.822 330.323 401.438 330.287C402.054 330.323 402.671 330.387 403.287 330.423C415.278 331.084 442.306 315.622 445.27 301.464C447.382 291.413 436.587 340.919 444.355 321.622C448.587 311.126 453.781 246.122 454.896 240.647C457.143 229.571 479.177 200.423 476.367 189.193Z" fill="#EFC3BA"/>
<path d="M401.932 163.363C392.56 163.363 384.956 155.758 384.956 146.386V107.485H418.909V146.386C418.909 155.758 411.304 163.363 401.932 163.363Z" fill="#EFC3BA"/>
<path d="M418.909 120.529C413.063 119.097 405.812 119.523 402.367 119.74C396.53 120.103 390.585 120.991 385.237 123.683C385.156 123.719 385.047 123.774 384.956 123.819V138.276C391.509 144.167 398.706 148.11 407.96 145.762C410.661 145.082 414.993 143.369 418.909 140.877V120.529Z" fill="#DFAE8A"/>
<path d="M402.113 46.2628C364.689 46.8429 367.825 78.9736 367.925 80.3784C369.022 95.7232 369.085 108.24 375.439 118.7C379.382 125.189 387.385 137.362 402.186 137.579C411.413 137.706 416.479 131.905 421.763 126.05C431.86 114.829 435.585 95.2701 435.268 80.7773C434.869 62.5865 442.447 45.6464 402.113 46.2628Z" fill="#EFC3BA"/>
<path d="M437.938 88.007C433.515 84.3997 429.328 93.3183 427.85 96.1462C426.935 97.9136 429.5 99.536 430.479 97.8864C430.171 98.4031 429.862 98.9196 429.554 99.4272C428.494 101.195 426.491 103.633 427.687 105.79C430.025 110.005 436.56 104.584 438.319 102.01C442.307 96.1915 441.527 90.9255 437.938 88.007Z" fill="#EFC3BA"/>
<path d="M433.348 93.8873C433.185 95.6637 432.505 97.3224 431.372 98.691C430.076 100.25 432.306 102.498 433.611 100.93C435.315 98.8632 436.267 96.561 436.511 93.8873C436.693 91.8661 433.529 91.8751 433.348 93.8873Z" fill="#DFAE8A"/>
<path d="M411.975 116.228C413.351 117.364 414.337 118.861 414.829 120.568C415.386 122.517 418.499 121.943 417.94 119.981C417.194 117.409 415.829 115.325 413.759 113.615C412.192 112.326 410.416 114.944 411.975 116.228Z" fill="#DFAE8A" fill-opacity="0.3"/>
<path d="M391.495 115.571C390.12 116.707 389.133 118.204 388.641 119.911C388.085 121.861 384.971 121.287 385.53 119.325C386.276 116.752 387.641 114.668 389.711 112.958C391.278 111.669 393.054 114.287 391.495 115.571Z" fill="#DFAE8A" fill-opacity="0.3"/>
<path d="M365.11 102.3C366.869 104.874 373.404 110.294 375.742 106.08C376.938 103.913 374.935 101.484 373.875 99.717C373.567 99.2004 373.259 98.6837 372.95 98.1761C373.938 99.8166 376.494 98.2032 375.579 96.4358C374.111 93.5989 369.914 84.6803 365.491 88.2876C361.911 91.2152 361.122 96.4722 365.11 102.3Z" fill="#EFC3BA"/>
<path d="M370.107 94.1787C370.262 95.9462 370.941 97.6048 372.083 98.9735C373.37 100.532 371.141 102.78 369.845 101.212C368.132 99.1456 367.18 96.8525 366.944 94.1787C366.754 92.1485 369.917 92.1666 370.107 94.1787Z" fill="#E0585E"/>
<path d="M387.333 95.1288C387.333 97.1318 386.273 98.7542 384.958 98.7542C383.653 98.7542 382.593 97.1318 382.593 95.1288C382.593 93.1257 383.653 91.5033 384.958 91.5033C386.273 91.5033 387.333 93.1257 387.333 95.1288Z" fill="#4C4D55"/>
<path d="M421.01 95.3946C421.01 97.3977 419.949 99.0201 418.644 99.0201C417.33 99.0201 416.27 97.3977 416.27 95.3946C416.27 93.3916 417.33 91.7692 418.644 91.7692C419.949 91.7692 421.01 93.3916 421.01 95.3946Z" fill="#4C4D55"/>
<path d="M405.439 108.962C403.363 109.298 401.288 109.688 400.707 106.715C400.481 105.555 400.998 103.832 401.161 102.681C401.505 100.225 401.732 99.509 402.112 97.0528C402.421 95.0588 399.375 94.1977 399.067 96.2098C398.614 99.0739 398.342 100.198 397.934 103.071C397.662 105.011 397.209 107.122 397.925 109.026C399.266 112.57 403.137 112.524 406.273 112.017C408.276 111.691 407.433 108.636 405.439 108.962Z" fill="#DFAE8A"/>
<path d="M408.49 119.216C403.958 119.905 399.445 119.914 394.913 119.262C393.698 119.08 393.118 120.585 394.025 121.02C394.034 121.029 394.034 121.038 394.043 121.047C397.931 125.343 405.989 125.579 409.532 120.866C409.569 120.812 409.578 120.757 409.605 120.694C410.149 120.132 409.578 119.044 408.49 119.216Z" fill="white"/>
<path d="M429.008 83.0033C428.546 82.5048 427.829 82.1242 427.313 81.9791C423.008 80.7646 418.204 80.3749 413.536 81.1C411.778 81.381 406.657 82.8221 409.983 84.1907C411.488 84.8071 422.79 84.6348 426.352 84.7255C429.117 84.807 430.032 84.1091 429.008 83.0033Z" fill="#40A0F0"/>
<path d="M377.134 84.3469C380.56 84.2925 391.437 84.6097 392.887 83.9934C396.104 82.6338 391.192 81.1111 389.506 80.812C385.029 80.0054 380.406 80.3498 376.246 81.5372C375.747 81.6731 375.05 82.0538 374.605 82.5614C373.608 83.6671 374.469 84.3832 377.134 84.3469Z" fill="#40A0F0"/>
<path d="M438.077 64.8402C438.639 59.0847 440.243 55.8944 435.213 51.5348C432.902 49.5317 430.11 48.2537 427.826 46.2053C424.844 43.5225 422.913 39.9242 419.941 37.2413C416.007 33.6793 412.155 33.4618 407.433 34.7125C399.738 36.0721 394.272 32.1567 388.299 33.0812C383.042 33.8878 380.949 37.042 377.35 40.4318C373.281 44.2657 367.199 44.0209 362.604 47.2929C358.797 50.012 357.736 53.3475 357.011 57.7978C355.797 65.2753 352.28 68.0669 346.833 72.6803C343.207 75.7529 341.177 79.1155 339.836 83.6473C337.497 91.5689 335.186 96.0284 327.736 100.053C323.422 102.373 319.27 104.43 316.007 108.192C315.174 109.153 315.953 110.412 316.877 110.557C316.995 110.648 317.104 110.73 317.249 110.793C336.582 118.443 349.797 89.2668 368.305 87.9435C368.93 88.2879 369.809 88.1429 370.199 87.4994C370.643 87.0643 370.716 86.3392 370.435 85.8045C370.607 77.3752 372.773 72.9341 379.362 66.943C385.68 61.1876 398.079 61.4414 402.257 61.387C410.714 61.2692 419.741 61.1241 425.397 68.1666C430.219 74.1667 432.793 79.3603 434.107 86.9103C434.297 88.007 435.575 87.0553 436.309 86.5568C436.899 86.6112 436.554 85.886 436.736 85.1428C437.542 81.8074 439.038 78.0097 439.228 74.6018C439.409 71.2845 437.751 68.1937 438.077 64.8402Z" fill="#40A0F0"/>
<path d="M435.73 82.9843C434.524 79.3407 432.612 77.5643 433.473 73.3044C433.772 71.8361 431.905 71.1019 431.126 71.981C431.089 71.8088 431.062 71.6004 431.035 71.4554C430.319 68.3647 429.077 65.6908 426.92 63.3615C425.715 62.0563 423.775 64.005 424.98 65.3011C428.579 69.1985 428.669 74.383 429.548 79.3227C430.11 82.5312 430.799 86.1023 433.854 87.7609C434.633 88.1778 436.12 87.0812 436.364 86.202C436.772 84.7427 436.201 84.4255 435.73 82.9843Z" fill="#40A0F0"/>
<path d="M403.349 49.9963C395.854 48.6277 386.02 51.3469 379.512 54.9995C371.21 59.6582 366.107 68.3685 361.067 76.1451C355.683 84.4384 350.68 93.4839 349.158 103.39C348.442 108.031 347.644 116.759 353.934 117.176C360.433 117.611 367.956 115.645 370.584 109.218C372.324 104.959 372.098 100.236 372.56 95.7499C373.312 88.517 376.494 83.9942 381.95 79.399C384.778 77.0152 387.696 74.7674 389.881 71.7401C391.974 68.8578 393.017 65.4227 396.216 63.3562C399.552 61.19 403.703 61.1085 407.491 61.6251C407.936 61.6886 408.316 61.5525 408.606 61.3259C409.078 61.3894 409.567 61.2172 409.857 60.6643C412.63 55.3439 408.688 50.9662 403.349 49.9963Z" fill="#40A0F0"/>
<path d="M402.759 52.3408C398.454 51.0628 393.84 51.1171 390.106 53.8725C386.163 56.7729 385.765 61.8666 382.094 65.057C380.762 66.2263 382.71 68.1568 384.034 67.0057C386.49 64.8758 387.514 62.5646 388.919 59.7186C391.484 54.5251 396.75 53.4284 402.025 54.9873C403.729 55.4949 404.454 52.8393 402.759 52.3408Z" fill="#AFB1C0"/>
<path d="M377.732 71.7901C375.865 74.2735 372.883 75.3612 370.735 77.5093C368.904 79.3311 367.626 81.6242 366.566 83.9445C363.52 90.5882 361.363 101.184 351.882 100.277C350.124 100.114 350.142 102.86 351.882 103.033C358.825 103.694 363.23 98.6367 365.913 92.7907C367.807 88.6848 368.84 84.1257 371.777 80.5818C374.206 77.627 377.786 76.2585 380.107 73.1859C381.167 71.772 378.783 70.3943 377.732 71.7901Z" fill="#AFB1C0"/>
<path d="M430.67 58.2072C429.419 56.9564 427.47 58.9051 428.73 60.1559C430.126 61.5427 430.833 63.2829 430.814 65.2497C430.796 67.0171 433.543 67.0262 433.561 65.2497C433.588 62.5759 432.564 60.0925 430.67 58.2072Z" fill="#AFB1C0"/>
<path d="M432.466 52.2888C430.807 51.6544 430.091 54.3101 431.732 54.9355C432.955 55.4068 433.726 56.576 433.78 57.863C433.853 59.6214 436.599 59.6304 436.527 57.863C436.427 55.2618 434.877 53.2043 432.466 52.2888Z" fill="#AFB1C0"/>
<path d="M448.323 190.872C447.77 181.256 448.958 171.693 449.873 162.122C448.486 161.415 447.082 160.735 445.668 160.056C444.68 169.282 443.665 178.545 441.353 187.301C437.302 202.582 423.897 210.876 408.869 212.779C392.391 214.855 374.844 210.096 368.608 193.22C364.53 182.153 363.107 169.908 361.838 157.889C360.904 158.334 359.98 158.769 359.046 159.204C359.826 169.591 359.844 179.95 357.832 190.337C356.59 196.736 354.75 203.026 352.339 209.081C351.242 211.836 347.173 222.74 343.067 227.743C343.801 229.411 344.345 230.97 344.626 232.366C347.789 247.901 353.327 281.663 356.581 297.189C359.554 311.346 356.11 326.582 364.022 329.374C375.615 333.462 387.624 331.042 399.624 330.38C400.241 330.344 438.254 336.806 444.381 321.579C448.613 311.084 453.807 246.088 454.922 240.604C455.484 237.849 457.269 233.961 459.599 229.52C455.321 216.74 449.112 204.404 448.323 190.872Z" fill="#A194EE"/>
<path d="M353.927 91.2896C350.972 92.9936 347.256 93.8275 344.718 90.9452C343.549 89.6129 341.609 91.5616 342.779 92.8939C346.123 96.7007 351.317 95.9665 355.314 93.6643C356.845 92.7761 355.459 90.4014 353.927 91.2896Z" fill="#AFB1C0"/>
<path d="M352.533 127.492C352.687 132.722 346.977 134.707 343.914 137.997C341.603 140.471 340.515 143.535 340.18 146.861C340.007 148.619 342.763 148.601 342.935 146.861C343.524 140.897 347.802 138.749 351.745 135.096C353.956 133.048 355.37 130.555 355.289 127.492C355.234 125.733 352.488 125.724 352.533 127.492Z" fill="#AFB1C0"/>
<path d="M333.567 136.467C330.313 139.929 329.805 144.47 329.715 149.029C329.678 150.797 332.434 150.797 332.461 149.029C332.533 145.25 332.787 141.307 335.506 138.416C336.721 137.12 334.781 135.18 333.567 136.467Z" fill="#AFB1C0"/>
<path d="M314.786 203.061C311.296 199.517 310.48 194.605 312.692 190.127C313.481 188.541 311.106 187.145 310.317 188.741C307.553 194.333 308.441 200.532 312.837 205.01C314.079 206.27 316.027 204.321 314.786 203.061Z" fill="#AFB1C0"/>
<path d="M323.994 203.565C321.982 202.442 320.622 200.475 320.423 198.154C320.268 196.405 317.522 196.396 317.667 198.154C317.957 201.445 319.716 204.318 322.607 205.94C324.157 206.801 325.544 204.427 323.994 203.565Z" fill="#AFB1C0"/>
<path d="M341.987 174.182C341.887 174.137 341.805 174.137 341.706 174.101C341.262 172.179 338.388 170.801 336.739 172.687C327.548 183.182 323.433 195.337 321.276 208.769C318.285 227.368 318.312 246.583 316.527 265.336C314.904 282.321 312.856 299.569 315.122 316.572C317.143 331.618 318.086 352.41 326.143 365.48C326.497 366.042 327.068 366.513 327.72 366.722C328.455 368.797 329.524 370.556 331.183 372.577C332.47 374.154 335.37 373.284 335.769 371.362C338.959 356.099 340.836 340.655 340.79 325.047C340.754 312.258 338.443 299.651 337.564 286.971C340.999 273.937 342.694 260.514 344.18 247.145C346.156 229.425 350.679 211.407 351.848 193.714C352.419 185.113 349.872 178.17 341.987 174.182Z" fill="#EFC3BA"/>
<path d="M452.268 194.871C453.446 212.554 457.96 230.572 459.936 248.301C461.422 261.67 463.126 275.084 466.552 288.118C465.673 300.798 463.371 313.414 463.326 326.194C463.28 341.811 465.157 357.246 468.347 372.519C468.746 374.431 471.646 375.301 472.942 373.724C474.601 371.712 475.67 369.944 476.395 367.869C477.048 367.66 477.619 367.198 477.973 366.627C486.039 353.557 486.982 332.765 488.994 317.72C491.269 300.725 489.212 283.468 487.598 266.492C485.804 247.739 485.831 228.515 482.849 209.916C480.692 196.484 476.568 184.339 467.386 173.843C465.728 171.948 462.863 173.335 462.41 175.257C462.32 175.293 462.229 175.284 462.138 175.329C454.253 179.317 451.697 186.269 452.268 194.871Z" fill="#EFC3BA"/>
<path d="M418.158 144.077C414.859 151.011 410.309 158.897 401.961 160.156C392.2 161.634 386.879 152.325 385.384 143.996C385.076 142.256 382.42 142.99 382.737 144.721C384.251 153.159 389.653 162.993 399.297 163.184C409.983 163.41 416.427 154.102 420.533 145.464C421.285 143.878 418.919 142.482 418.158 144.077Z" fill="white"/>
</g>
<circle cx="395" cy="413" r="78" fill="#DBD9E4" stroke="#7EEA88" stroke-width="10"/>
<g filter="url(#filter0_d_1516_153)">
<path d="M394.837 428.884C388.975 428.884 384.415 433.444 384.415 439.306C384.415 445.006 388.975 449.728 394.837 449.728C400.537 449.728 405.259 445.006 405.259 439.306C405.259 433.444 400.7 428.884 394.837 428.884ZM395 402.829C383.438 402.829 372.527 406.9 363.897 414.554C361.78 416.508 361.617 419.765 363.408 422.045C365.362 424.162 368.619 424.325 370.736 422.37C377.413 416.508 386.044 413.251 395 413.251C403.794 413.251 412.424 416.508 419.101 422.37C420.078 423.348 421.218 423.673 422.521 423.673C423.986 423.673 425.289 423.185 426.429 422.045C428.383 419.765 428.058 416.508 425.941 414.554C417.31 407.063 406.399 402.829 395 402.829ZM445.482 397.129C431.803 384.102 413.89 376.774 395 376.774C375.947 376.774 358.034 384.102 344.355 397.129C342.401 399.084 342.238 402.503 344.192 404.457C346.309 406.574 349.566 406.737 351.683 404.62C363.245 393.384 378.716 387.196 395 387.196C411.122 387.196 426.429 393.384 438.154 404.62C439.294 405.597 440.597 406.086 441.899 406.086C443.202 406.086 444.505 405.597 445.645 404.457C447.599 402.503 447.436 399.084 445.482 397.129Z" fill="#40A0F0"/>
</g>
<defs>
<filter id="filter0_d_1516_153" x="328.806" y="366.774" width="132.226" height="100.955" filterUnits="userSpaceOnUse" color-interpolation-filters="sRGB">
<feFlood flood-opacity="0" result="BackgroundImageFix"/>
<feColorMatrix in="SourceAlpha" type="matrix" values="0 0 0 0 0 0 0 0 0 0 0 0 0 0 0 0 0 0 127 0" result="hardAlpha"/>
<feOffset dy="4"/>
<feGaussianBlur stdDeviation="7"/>
<feComposite in2="hardAlpha" operator="out"/>
<feColorMatrix type="matrix" values="0 0 0 0 0.25098 0 0 0 0 0.627451 0 0 0 0 0.941176 0 0 0 0.5 0"/>
<feBlend mode="normal" in2="BackgroundImageFix" result="effect1_dropShadow_1516_153"/>
<feBlend mode="normal" in="SourceGraphic" in2="effect1_dropShadow_1516_153" result="shape"/>
</filter>
</defs>
</svg>
