<svg width="284" height="440" viewBox="0 0 284 440" fill="none" xmlns="http://www.w3.org/2000/svg">
<circle cx="10" cy="10" r="10" fill="#E9EFF4"/>
<circle cx="10" cy="430" r="10" fill="#E9EFF4"/>
<circle cx="10" cy="220" r="10" fill="#E9EFF4"/>
<circle cx="10" cy="255" r="10" fill="#E9EFF4"/>
<circle cx="10" cy="290" r="10" fill="#E9EFF4"/>
<circle cx="10" cy="325" r="10" fill="#E9EFF4"/>
<circle cx="10" cy="360" r="10" fill="#E9EFF4"/>
<circle cx="10" cy="395" r="10" fill="#E9EFF4"/>
<circle cx="10" cy="185" r="10" fill="#E9EFF4"/>
<circle cx="10" cy="150" r="10" fill="#E9EFF4"/>
<circle cx="10" cy="115" r="10" fill="#E9EFF4"/>
<circle cx="10" cy="80" r="10" fill="#E9EFF4"/>
<circle cx="10" cy="45" r="10" fill="#E9EFF4"/>
<circle cx="43" cy="10" r="10" fill="#E9EFF4"/>
<circle cx="43" cy="430" r="10" fill="#E9EFF4"/>
<circle cx="43" cy="220" r="10" fill="#E9EFF4"/>
<circle cx="43" cy="255" r="10" fill="#E9EFF4"/>
<circle cx="43" cy="290" r="10" fill="#E9EFF4"/>
<circle cx="43" cy="325" r="10" fill="#E9EFF4"/>
<circle cx="43" cy="360" r="10" fill="#E9EFF4"/>
<circle cx="43" cy="395" r="10" fill="#E9EFF4"/>
<circle cx="43" cy="185" r="10" fill="#E9EFF4"/>
<circle cx="43" cy="150" r="10" fill="#E9EFF4"/>
<circle cx="43" cy="115" r="10" fill="#E9EFF4"/>
<circle cx="43" cy="80" r="10" fill="#E9EFF4"/>
<circle cx="43" cy="45" r="10" fill="#E9EFF4"/>
<circle cx="76" cy="10" r="10" fill="#E9EFF4"/>
<circle cx="76" cy="430" r="10" fill="#E9EFF4"/>
<circle cx="76" cy="220" r="10" fill="#E9EFF4"/>
<circle cx="76" cy="255" r="10" fill="#E9EFF4"/>
<circle cx="76" cy="290" r="10" fill="#E9EFF4"/>
<circle cx="76" cy="325" r="10" fill="#E9EFF4"/>
<circle cx="76" cy="360" r="10" fill="#E9EFF4"/>
<circle cx="76" cy="395" r="10" fill="#E9EFF4"/>
<circle cx="76" cy="185" r="10" fill="#E9EFF4"/>
<circle cx="76" cy="150" r="10" fill="#E9EFF4"/>
<circle cx="76" cy="115" r="10" fill="#E9EFF4"/>
<circle cx="76" cy="80" r="10" fill="#E9EFF4"/>
<circle cx="76" cy="45" r="10" fill="#E9EFF4"/>
<circle cx="109" cy="10" r="10" fill="#E9EFF4"/>
<circle cx="109" cy="430" r="10" fill="#E9EFF4"/>
<circle cx="109" cy="220" r="10" fill="#E9EFF4"/>
<circle cx="109" cy="255" r="10" fill="#E9EFF4"/>
<circle cx="109" cy="290" r="10" fill="#E9EFF4"/>
<circle cx="109" cy="325" r="10" fill="#E9EFF4"/>
<circle cx="109" cy="360" r="10" fill="#E9EFF4"/>
<circle cx="109" cy="395" r="10" fill="#E9EFF4"/>
<circle cx="109" cy="185" r="10" fill="#E9EFF4"/>
<circle cx="109" cy="150" r="10" fill="#E9EFF4"/>
<circle cx="109" cy="115" r="10" fill="#E9EFF4"/>
<circle cx="109" cy="80" r="10" fill="#E9EFF4"/>
<circle cx="109" cy="45" r="10" fill="#E9EFF4"/>
<circle cx="142" cy="10" r="10" fill="#E9EFF4"/>
<circle cx="142" cy="430" r="10" fill="#E9EFF4"/>
<circle cx="142" cy="220" r="10" fill="#E9EFF4"/>
<circle cx="142" cy="255" r="10" fill="#E9EFF4"/>
<circle cx="142" cy="290" r="10" fill="#E9EFF4"/>
<circle cx="142" cy="325" r="10" fill="#E9EFF4"/>
<circle cx="142" cy="360" r="10" fill="#E9EFF4"/>
<circle cx="142" cy="395" r="10" fill="#E9EFF4"/>
<circle cx="142" cy="185" r="10" fill="#E9EFF4"/>
<circle cx="142" cy="150" r="10" fill="#E9EFF4"/>
<circle cx="142" cy="115" r="10" fill="#E9EFF4"/>
<circle cx="142" cy="80" r="10" fill="#E9EFF4"/>
<circle cx="142" cy="45" r="10" fill="#E9EFF4"/>
<circle cx="175" cy="10" r="10" fill="#E9EFF4"/>
<circle cx="175" cy="430" r="10" fill="#E9EFF4"/>
<circle cx="175" cy="220" r="10" fill="#E9EFF4"/>
<circle cx="175" cy="255" r="10" fill="#E9EFF4"/>
<circle cx="175" cy="290" r="10" fill="#E9EFF4"/>
<circle cx="175" cy="325" r="10" fill="#E9EFF4"/>
<circle cx="175" cy="360" r="10" fill="#E9EFF4"/>
<circle cx="175" cy="395" r="10" fill="#E9EFF4"/>
<circle cx="175" cy="185" r="10" fill="#E9EFF4"/>
<circle cx="175" cy="150" r="10" fill="#E9EFF4"/>
<circle cx="175" cy="115" r="10" fill="#E9EFF4"/>
<circle cx="175" cy="80" r="10" fill="#E9EFF4"/>
<circle cx="175" cy="45" r="10" fill="#E9EFF4"/>
<circle cx="208" cy="10" r="10" fill="#E9EFF4"/>
<circle cx="208" cy="430" r="10" fill="#E9EFF4"/>
<circle cx="208" cy="220" r="10" fill="#E9EFF4"/>
<circle cx="208" cy="255" r="10" fill="#E9EFF4"/>
<circle cx="208" cy="290" r="10" fill="#E9EFF4"/>
<circle cx="208" cy="325" r="10" fill="#E9EFF4"/>
<circle cx="208" cy="360" r="10" fill="#E9EFF4"/>
<circle cx="208" cy="395" r="10" fill="#E9EFF4"/>
<circle cx="208" cy="185" r="10" fill="#E9EFF4"/>
<circle cx="208" cy="150" r="10" fill="#E9EFF4"/>
<circle cx="208" cy="115" r="10" fill="#E9EFF4"/>
<circle cx="208" cy="80" r="10" fill="#E9EFF4"/>
<circle cx="208" cy="45" r="10" fill="#E9EFF4"/>
<circle cx="241" cy="10" r="10" fill="#E9EFF4"/>
<circle cx="241" cy="430" r="10" fill="#E9EFF4"/>
<circle cx="241" cy="220" r="10" fill="#E9EFF4"/>
<circle cx="241" cy="255" r="10" fill="#E9EFF4"/>
<circle cx="241" cy="290" r="10" fill="#E9EFF4"/>
<circle cx="241" cy="325" r="10" fill="#E9EFF4"/>
<circle cx="241" cy="360" r="10" fill="#E9EFF4"/>
<circle cx="241" cy="395" r="10" fill="#E9EFF4"/>
<circle cx="241" cy="185" r="10" fill="#E9EFF4"/>
<circle cx="241" cy="150" r="10" fill="#E9EFF4"/>
<circle cx="241" cy="115" r="10" fill="#E9EFF4"/>
<circle cx="241" cy="80" r="10" fill="#E9EFF4"/>
<circle cx="241" cy="45" r="10" fill="#E9EFF4"/>
<circle cx="274" cy="10" r="10" fill="#E9EFF4"/>
<circle cx="274" cy="430" r="10" fill="#E9EFF4"/>
<circle cx="274" cy="220" r="10" fill="#E9EFF4"/>
<circle cx="274" cy="255" r="10" fill="#E9EFF4"/>
<circle cx="274" cy="290" r="10" fill="#E9EFF4"/>
<circle cx="274" cy="325" r="10" fill="#E9EFF4"/>
<circle cx="274" cy="360" r="10" fill="#E9EFF4"/>
<circle cx="274" cy="395" r="10" fill="#E9EFF4"/>
<circle cx="274" cy="185" r="10" fill="#E9EFF4"/>
<circle cx="274" cy="150" r="10" fill="#E9EFF4"/>
<circle cx="274" cy="115" r="10" fill="#E9EFF4"/>
<circle cx="274" cy="80" r="10" fill="#E9EFF4"/>
<circle cx="274" cy="45" r="10" fill="#E9EFF4"/>
</svg>
