<svg width="512" height="512" viewBox="0 0 512 512" fill="none" xmlns="http://www.w3.org/2000/svg">
<rect width="512" height="512" fill="url(#paint0_linear_633_102)"/>
<rect width="512" height="512" fill="#122C54"/>
<path fill-rule="evenodd" clip-rule="evenodd" d="M255.719 123.114C255.719 129.266 260.722 134.2 266.849 134.755C328.858 140.376 377.441 192.502 377.441 255.975C377.441 323.2 322.944 377.697 255.719 377.697C250.241 377.697 244.854 377.336 239.58 376.638C233.481 375.831 227.515 379.536 226.152 385.535L223.382 397.724C222.019 403.723 225.774 409.733 231.855 410.664C239.644 411.857 247.614 412.474 255.719 412.474C342.151 412.474 412.219 342.407 412.219 255.975C412.219 173.288 348.093 105.579 266.859 99.8657C260.723 99.4341 255.719 104.462 255.719 110.614V123.114Z" fill="#77DF81"/>
<path fill-rule="evenodd" clip-rule="evenodd" d="M122.859 255.974C129.01 255.974 133.944 250.975 134.499 244.848C139.266 192.258 177.49 149.307 227.711 137.486C233.699 136.077 237.964 130.498 237.111 124.406L235.376 112.026C234.523 105.934 228.874 101.648 222.858 102.934C155.719 117.287 104.543 174.67 99.6098 244.835C99.1783 250.971 104.207 255.974 110.358 255.974H122.859Z" fill="#F3693D"/>
<path fill-rule="evenodd" clip-rule="evenodd" d="M208.222 380.095C210.422 374.35 207.518 367.955 202.005 365.224C170.033 349.385 145.866 319.491 137.311 283.887C135.874 277.905 130.273 273.667 124.185 274.551L111.814 276.348C105.726 277.232 101.468 282.898 102.783 288.907C113.308 337.01 145.923 377.362 189.52 397.811C195.09 400.424 201.552 397.514 203.752 391.769L208.222 380.095Z" fill="#FFB74D"/>
<path d="M405.394 382.563C407.353 390.286 400.806 397.508 392.928 396.314L330.902 386.911L389.97 321.754L405.394 382.563Z" fill="#77DF81"/>
<path fill-rule="evenodd" clip-rule="evenodd" d="M175.025 255.975C181.177 255.975 186.07 260.995 187.044 267.07C192.356 300.21 221.081 325.53 255.719 325.53C290.357 325.53 319.082 300.21 324.394 267.07C325.368 260.995 330.261 255.975 336.413 255.975H348.913C355.065 255.975 360.114 260.978 359.466 267.096C353.915 319.488 309.584 360.308 255.719 360.308C201.854 360.308 157.523 319.488 151.972 267.096C151.324 260.978 156.373 255.975 162.525 255.975H175.025Z" fill="#77DF81"/>
<defs>
<linearGradient id="paint0_linear_633_102" x1="43.264" y1="52.224" x2="444.672" y2="450.816" gradientUnits="userSpaceOnUse">
<stop stop-color="#092943"/>
<stop offset="1" stop-color="#371F6E"/>
</linearGradient>
</defs>
</svg>
