<svg width="789" height="482" viewBox="0 0 789 482" fill="none" xmlns="http://www.w3.org/2000/svg">
<line x1="249.659" y1="353.622" x2="305.691" y2="380.163" stroke="#AFB1C0" stroke-width="10" stroke-linecap="round" stroke-dasharray="20 20"/>
<line x1="5" y1="-5" x2="67" y2="-5" transform="matrix(-0.903738 0.428086 0.428086 0.903738 547.069 356)" stroke="#AFB1C0" stroke-width="10" stroke-linecap="round" stroke-dasharray="20 20"/>
<line x1="397" y1="246" x2="397" y2="308" stroke="#AFB1C0" stroke-width="10" stroke-linecap="round" stroke-dasharray="20 20"/>
<path d="M124.836 423C190.292 423 243.776 372.401 243.776 309.478C243.776 246.554 190.292 195.955 124.836 195.955C59.3792 195.955 5.89551 246.554 5.89551 309.478C5.89551 372.401 59.3792 423 124.836 423Z" fill="#DBD9E4" stroke="#7EEA88" stroke-width="10"/>
<path d="M189.012 284.688C188.546 284.084 187.586 284.088 186.878 284.697L180.495 290.194C179.787 290.803 179.591 291.796 180.06 292.4C180.527 293.005 181.487 293 182.194 292.392L188.578 286.895C189.285 286.286 189.481 285.293 189.012 284.688Z" fill="#EFC3BA"/>
<path d="M121.272 310.289C129.885 331.802 132.515 336.01 143.199 352.911C144.537 355.024 147.321 355.698 149.482 354.434L170.846 341.934C172.932 340.713 173.752 338.115 172.732 335.928C165.629 320.701 157.995 307.329 153.181 296.971C145.441 280.319 114.313 292.914 121.272 310.289Z" fill="#A194EE"/>
<path d="M171.626 288.823C169.879 303.671 167.544 317.866 164.672 335.431C162.465 342.021 159.766 356.237 158.814 361.285C158.814 361.285 158.283 361.638 162.079 363.538C169.654 367.329 174.055 365.882 175.629 362.608C183.144 346.959 182.585 310.771 181.148 288.832L171.626 288.823Z" fill="#EFC3BA"/>
<path d="M57.4732 322.247C57.0664 327.11 57.0323 331.99 57.5093 336.852C57.5454 337.258 57.5975 337.647 57.6335 338.054C58.4633 346.116 59.5074 353.525 60.5676 360.809C60.6217 361.11 60.6558 361.41 60.6918 361.711C60.7439 362.011 60.7981 362.312 60.8341 362.595C61.1167 364.522 61.3993 366.449 61.6819 368.377C61.9645 370.357 62.2471 372.355 62.5296 374.354C62.9725 377.552 63.3974 380.789 63.7862 384.112C63.9265 385.28 64.0688 386.465 64.1931 387.667C64.2111 387.895 64.2452 388.126 64.2632 388.356C64.2993 388.657 64.3153 388.94 64.3514 389.24C65.111 396.419 65.8184 404.075 66.2092 412.578C79.7171 421.419 95.8584 426.547 113.186 426.547C130.053 426.547 145.789 421.701 159.051 413.304C158.538 406.019 157.53 401.315 156.522 397.373C156.045 395.429 155.55 393.677 155.125 391.874C154.79 390.461 154.489 389.01 154.259 387.437C153.764 384.042 153.569 380.027 154.01 374.354C154.171 372.089 154.471 369.579 154.824 366.75C155.161 364.08 155.55 361.11 155.938 357.768C156.203 355.452 156.469 352.924 156.716 350.201C156.804 349.193 156.894 348.167 156.983 347.124C157.017 346.594 157.071 346.046 157.105 345.498C157.141 345.02 157.177 344.543 157.211 344.065C157.265 343.075 157.335 342.085 157.405 341.06C157.423 340.582 157.46 340.105 157.478 339.628C157.548 338.46 157.6 337.294 157.654 336.109C157.973 329.002 158.043 321.593 157.688 315.688C157.423 311.409 156.928 307.926 156.133 305.928C152.95 298.042 151.006 294.365 148.459 291.465C147.541 290.404 146.533 289.467 145.365 288.459C143.773 287.098 142.094 286.037 140.22 285.171C138.911 284.534 137.496 284.021 135.977 283.544C132.935 282.607 129.452 281.864 125.297 281.033C123.441 280.662 121.143 280.45 118.631 280.362H118.225C112.849 280.202 106.52 280.627 101.145 281.263C101.039 281.263 100.933 281.281 100.827 281.299C100.756 281.299 100.686 281.316 100.632 281.316C96.636 281.794 93.225 282.395 91.1727 282.961C90.6617 283.102 90.2007 283.261 89.8821 283.385C88.8219 283.827 87.7076 284.251 86.5592 284.64C85.7976 284.906 85.0381 285.171 84.2605 285.418C74.5705 288.548 60.0906 295.496 54.3267 303.435C54.1844 303.647 54.1323 304.001 54.1684 304.46C54.2906 307.661 57.9863 316.324 57.4732 322.247Z" fill="#A194EE"/>
<path d="M126.18 261.684C126.18 261.684 129.611 262.479 129.575 260.092L123.422 258.801C123.422 259.809 123.865 261.082 126.18 261.684ZM98.21 245.824C98.6509 245.205 99.1279 244.586 99.5007 243.914C98.9175 241.103 97.3422 238.027 98.6169 235.516C99.0578 234.65 99.7832 233.978 100.172 233.094C100.507 232.368 100.579 231.555 100.773 230.777C102.028 226.021 106.677 225.102 110.197 223.068C112.389 221.778 114.017 219.55 116.049 218.065C116.881 217.446 117.8 216.969 118.843 216.739C118.931 216.721 119.003 216.704 119.091 216.686C119.356 216.527 119.656 216.421 119.975 216.421C120.239 216.438 120.488 216.509 120.734 216.615C121.688 216.686 122.662 216.969 123.598 217.393C124.129 217.163 124.254 218.825 124.819 218.684C126.641 218.259 126.923 220.187 128.691 220.611C128.727 220.629 128.761 220.646 128.797 220.646C129.116 220.717 129.398 220.77 129.663 220.823C130.406 221.018 130.972 221.177 131.873 221.46C133.128 221.884 135.004 221.742 135.268 223.068C135.533 224.394 136.471 225.031 137.443 225.951C138.026 226.499 138.84 226.764 139.493 227.259C141.084 228.443 141.473 230.671 141.563 232.669C141.616 233.712 141.616 234.756 141.563 235.799C141.509 237.284 141.369 238.734 141.173 240.183C141.05 241.085 140.996 241.757 140.167 242.288C139.866 242.464 139.511 242.57 139.177 242.588C139.247 239.494 138.433 236.559 136.966 234.084C133.783 236.011 124.731 240.891 113.415 241.492L114.211 246.637C115.007 251.853 115.341 252.985 120.151 254.894C120.169 254.894 120.187 254.912 120.205 254.912C124.977 256.786 132.332 257.281 135.074 257.422C135.657 257.44 136.046 257.458 136.134 257.458H136.188L136.134 257.705L134.367 267.306C133.465 270.117 130.088 272.823 127.17 272.54C125.456 272.38 122.414 272.221 119.568 271.744C117.287 271.337 115.129 270.736 113.91 269.728C112.477 268.544 109.844 265.768 108.782 264.212C106.996 261.577 106.501 258.094 106.82 254.841C106.874 254.258 106.962 253.692 107.068 253.126L108.253 244.851C106.112 244.657 104.132 246.584 103.832 249.218C103.655 250.81 104.114 252.259 104.982 253.25L104.697 255.018L103.938 259.809C103.319 259.279 102.399 259.261 101.727 258.784C100.737 258.094 100.703 256.821 100.631 255.531C100.579 254.611 100.507 253.692 100.084 252.949C99.3764 251.729 97.8032 251.217 97.22 249.926C97.1318 249.749 97.0957 249.59 97.0596 249.413C96.8131 248.193 97.4665 246.867 98.21 245.824Z" fill="#0D6AF6"/>
<path d="M136.318 247.206C136.409 246.322 136.018 245.544 135.453 245.473C134.869 245.403 134.322 246.092 134.232 246.976C134.126 247.878 134.517 248.656 135.082 248.726C135.665 248.779 136.212 248.108 136.318 247.206ZM131.528 251.944L131.422 251.626C131.244 252.316 130.733 252.881 129.971 253.005L128.152 253.323C127.532 253.43 127.001 253.076 126.737 252.581L126.682 252.758C126.348 253.783 127.196 254.791 128.24 254.614L130.059 254.314C131.156 254.137 131.845 253.023 131.528 251.944ZM121.45 245.844C121.361 246.746 121.75 247.524 122.315 247.577C122.899 247.648 123.448 246.976 123.536 246.074C123.642 245.172 123.253 244.395 122.688 244.324C122.103 244.271 121.556 244.943 121.45 245.844ZM125.692 241.778L122.297 241.406C121.802 241.354 121.361 241.725 121.291 242.22C121.237 242.733 121.608 243.175 122.103 243.228L125.498 243.599C125.993 243.652 126.454 243.298 126.506 242.786C126.558 242.291 126.187 241.831 125.692 241.778ZM136.974 234.087C138.441 236.562 139.254 239.497 139.184 242.591C139.166 242.804 139.148 243.033 139.096 243.228L138.583 243.175L138.034 243.122C137.01 242.998 135.683 242.856 135.683 242.856C135.188 242.804 134.745 243.175 134.693 243.687C134.639 244.182 134.994 244.642 135.489 244.695L138.866 245.066L136.266 256.7C136.248 256.966 136.196 257.213 136.142 257.461C136.054 257.461 135.665 257.443 135.082 257.425C132.34 257.284 124.985 256.789 120.213 254.915C120.195 254.915 120.177 254.897 120.159 254.897C115.349 252.988 115.014 251.856 114.219 246.64L113.423 241.495C124.738 240.894 133.791 236.014 136.974 234.087Z" fill="#EFC3BA"/>
<path d="M108.806 264.189C106.693 261.071 106.391 256.817 107.092 253.092L108.272 244.816C106.122 244.623 104.15 246.557 103.847 249.188C103.665 250.771 104.138 252.236 105.002 253.225L103.962 259.778L100.943 282.896C100.274 287.215 103.288 288.124 107.637 288.547L111.357 292.91C115.924 293.354 117.367 290.165 118.063 285.627L119.592 271.709C117.299 271.315 115.141 270.707 113.924 269.703C112.489 268.518 109.852 265.735 108.806 264.189Z" fill="#EFC3BA"/>
<path d="M125.687 241.751L122.29 241.381C121.793 241.327 121.342 241.694 121.286 242.198C121.23 242.701 121.59 243.157 122.087 243.211L125.486 243.581C125.981 243.635 126.432 243.268 126.488 242.764C126.545 242.261 126.184 241.805 125.687 241.751Z" fill="#0D6AF6"/>
<path d="M135.684 242.877C135.187 242.823 134.736 243.191 134.68 243.694C134.626 244.197 134.987 244.653 135.482 244.707L138.857 245.075C139.378 245.132 139.829 244.764 139.883 244.261C139.937 243.776 139.6 243.345 139.133 243.264C139.081 243.247 135.684 242.877 135.684 242.877Z" fill="#0D6AF6"/>
<path d="M135.08 248.733C135.655 248.796 136.202 248.119 136.301 247.221C136.401 246.324 136.014 245.545 135.437 245.482C134.862 245.419 134.316 246.096 134.216 246.994C134.118 247.892 134.505 248.67 135.08 248.733Z" fill="#4C4D55"/>
<path d="M122.673 244.324C122.096 244.261 121.548 244.938 121.45 245.836C121.352 246.733 121.739 247.512 122.314 247.574C122.889 247.637 123.436 246.96 123.535 246.063C123.633 245.165 123.248 244.386 122.673 244.324Z" fill="#4C4D55"/>
<path d="M131.436 251.608C131.261 252.293 130.734 252.867 129.987 252.992L128.167 253.3C127.538 253.406 127.016 253.065 126.74 252.572L126.686 252.742C126.349 253.766 127.205 254.781 128.255 254.604L130.077 254.296C131.167 254.112 131.85 252.998 131.532 251.928L131.436 251.608Z" fill="#FA694F"/>
<path d="M126.2 261.693C126.2 261.693 129.621 262.477 129.583 260.097L123.438 258.8C123.434 259.805 123.873 261.077 126.2 261.693Z" fill="white"/>
<path d="M97.2929 249.107C112.697 227.162 125.732 224.276 132.938 223.978C129.423 220.314 117.917 208.139 102.684 219.261C89.9919 228.53 91.8998 244.608 97.0564 249.416C97.0665 249.426 97.1426 249.31 97.2929 249.107Z" fill="#A194EE"/>
<path d="M146.51 218.18C146.51 218.18 142.997 217.441 138.987 217.602C131.273 217.913 112.837 226.268 97.0603 249.392C103.696 239.666 121.513 225.984 136.977 227.83C136.977 227.83 141.51 228.705 141.49 234.863C141.488 235.204 141.482 235.552 141.45 235.926C141.45 235.926 154.637 221.064 146.51 218.18Z" fill="#826EF5"/>
<path d="M100.711 281.197L113.196 292.722L105.769 300.785C105.769 300.785 95.2573 290.272 100.711 281.197Z" fill="#EFE4DD"/>
<path d="M118.246 280.328L112.887 292.944L119.631 299.157C119.631 299.157 128.872 287.144 118.246 280.328Z" fill="#EFE4DD"/>
<path d="M122.274 220.326C122.791 222.129 121.843 223.385 120.156 223.131C118.47 222.876 116.682 221.207 116.163 219.403C115.644 217.599 116.592 216.344 118.28 216.598C119.967 216.853 121.755 218.522 122.274 220.326Z" fill="white"/>
<path d="M200.885 239.638H176.309C174.858 239.638 173.425 240.814 173.108 242.265L164.264 282.723C163.947 284.174 164.867 285.349 166.316 285.349H190.893C192.344 285.349 193.777 284.174 194.093 282.723L202.938 242.265C203.254 240.814 202.334 239.638 200.885 239.638Z" fill="#8A8EAC"/>
<path d="M173.411 281.652C174.096 280.452 174.9 279.285 175.846 278.696C176.577 278.24 177.329 278.173 178.05 278.159C179.906 278.124 181.71 278.392 183.417 278.958C184.987 279.478 186.644 280.558 186.75 282.972C186.857 285.306 185.814 287.719 184.391 289.553C181.696 293.028 180.708 294.248 177.491 295.611C173.463 297.317 170.633 296.127 171.479 290.247C171.914 287.221 171.92 284.261 173.411 281.652Z" fill="#EFC3BA"/>
<path d="M184.162 283.136L185.651 271.681C185.751 270.905 186.448 270.256 187.202 270.24C187.953 270.224 188.487 270.845 188.386 271.622L186.897 283.076C186.797 283.851 186.1 284.5 185.348 284.517C184.594 284.533 184.061 283.911 184.162 283.136Z" fill="#EFC3BA"/>
<path d="M180.616 282.074L182.103 270.619C182.206 269.843 182.903 269.195 183.655 269.178C184.408 269.162 184.941 269.784 184.839 270.56L183.352 282.014C183.252 282.79 182.552 283.438 181.801 283.455C181.049 283.471 180.516 282.85 180.616 282.074Z" fill="#EFC3BA"/>
<path d="M176.585 283.618L178.073 272.164C178.173 271.388 178.872 270.739 179.624 270.723C180.377 270.706 180.908 271.328 180.808 272.104L179.321 283.558C179.221 284.334 178.521 284.983 177.77 284.999C177.018 285.015 176.485 284.394 176.585 283.618Z" fill="#EFC3BA"/>
<path d="M172.724 286.659L174.211 275.205C174.311 274.429 175.011 273.78 175.762 273.764C176.514 273.747 177.047 274.369 176.947 275.145L175.46 286.599C175.358 287.375 174.66 288.024 173.909 288.04C173.155 288.056 172.622 287.435 172.724 286.659Z" fill="#EFC3BA"/>
<path d="M115.527 333.781H93.0106C92.0746 333.781 91.311 333.017 91.311 332.082C91.311 331.147 92.0746 330.383 93.0106 330.383H115.527C116.461 330.383 117.227 331.147 117.227 332.082C117.227 333.017 116.461 333.781 115.527 333.781Z" fill="white"/>
<path d="M125.725 336.126H181.304V391.887H125.725V336.126Z" fill="#EFE4DD"/>
<path d="M86.131 336.126H134.048V391.887H86.131V336.126Z" fill="#DFAE8A"/>
<path d="M142.558 344.088H158.028V341.082H142.558V344.088ZM159.461 339.65V345.52H141.125V339.65H159.461Z" fill="#DFAE8A"/>
<path d="M141.723 347.373H153.259V348.803H141.723V347.373Z" fill="#DFAE8A"/>
<path d="M141.934 350.269H148.963V351.699H141.934V350.269Z" fill="#DFAE8A"/>
<path d="M91.2587 344.809H97.0407V340.407H91.2587V344.809ZM98.4736 338.974V346.241H89.8278V338.974H98.4736Z" fill="#EFE4DD"/>
<path d="M140.454 376.496C141.058 377.097 140.919 378.157 140.148 378.855L133.187 385.14C132.416 385.837 131.291 385.915 130.69 385.314C130.087 384.715 130.225 383.654 130.997 382.957L137.957 376.67C138.729 375.975 139.853 375.896 140.454 376.496Z" fill="#EFC3BA"/>
<path d="M138.472 396.153C139.895 395.564 141.296 394.838 142.078 393.874C142.683 393.129 142.861 392.309 142.978 391.516C143.274 389.471 143.23 387.441 142.841 385.475C142.485 383.669 141.523 381.689 138.871 381.232C136.308 380.793 133.496 381.607 131.273 382.924C127.061 385.417 125.574 386.339 123.62 389.704C121.175 393.917 122.096 397.207 128.708 397.093C132.111 397.033 135.384 397.438 138.472 396.153Z" fill="#EFC3BA"/>
<path d="M138.335 384.079L151.195 384.028C152.067 384.026 152.881 383.345 153.003 382.515C153.125 381.688 152.514 381.012 151.642 381.016L138.782 381.064C137.91 381.068 137.096 381.748 136.974 382.577C136.852 383.405 137.463 384.081 138.335 384.079Z" fill="#EFC3BA"/>
<path d="M139.009 388.135L151.87 388.085C152.741 388.083 153.555 387.402 153.677 386.572C153.802 385.744 153.188 385.069 152.317 385.071L139.456 385.121C138.586 385.123 137.773 385.804 137.648 386.634C137.526 387.462 138.139 388.137 139.009 388.135Z" fill="#EFC3BA"/>
<path d="M136.716 392.332L149.577 392.284C150.448 392.28 151.262 391.599 151.384 390.771C151.509 389.942 150.895 389.266 150.024 389.27L137.163 389.318C136.291 389.322 135.48 390.004 135.355 390.831C135.233 391.661 135.844 392.336 136.716 392.332Z" fill="#EFC3BA"/>
<path d="M132.806 396.194L145.667 396.146C146.538 396.142 147.352 395.46 147.474 394.633C147.598 393.803 146.985 393.128 146.113 393.132L133.253 393.18C132.383 393.184 131.569 393.863 131.445 394.693C131.323 395.523 131.934 396.196 132.806 396.194Z" fill="#EFC3BA"/>
<path d="M84.0858 375.508C77.4221 372.684 62.9763 368.734 57.8457 367.34C57.8457 367.34 57.503 366.758 55.4287 370.559C51.2862 378.141 52.6129 382.841 55.9057 384.741C71.6482 393.817 108.683 396.13 131.173 396.389L131.514 386.476C116.388 383.468 101.951 379.903 84.0858 375.508Z" fill="#EFC3BA"/>
<path d="M56.161 337.912L52.5114 378.28C52.2168 381.533 54.4975 384.469 57.7102 384.98C64.7006 385.587 71.0196 380.9 72.4886 374.018L79.6494 340.476L56.161 337.912Z" fill="#EFC3BA"/>
<path d="M52.5884 308.195C46.7304 330.617 46.3436 335.563 44.8906 355.505C44.7122 358 46.548 360.197 49.0371 360.464L73.6479 363.109C76.0529 363.367 78.2554 361.765 78.7344 359.4C82.0733 342.932 83.883 327.642 86.1677 316.451C89.8393 298.459 57.3202 290.087 52.5884 308.195Z" fill="#A194EE"/>
<path d="M77.3094 363.036C76.2493 363.768 74.9285 364.13 73.5477 363.98L48.9369 361.337C45.9628 361.015 43.8003 358.429 44.0148 355.45C45.2914 337.937 46.4758 331.502 50.5041 315.213C50.6224 314.743 51.0934 314.463 51.5603 314.575C52.0253 314.692 52.3099 315.164 52.1977 315.63C48.1954 331.807 47.019 338.194 45.7524 355.572C45.604 357.613 47.0831 359.384 49.1213 359.605L73.7321 362.249C75.7021 362.463 77.4798 361.17 77.8746 359.231C79.6824 350.316 81.0572 341.633 82.2717 333.972C82.907 329.945 83.5102 326.134 84.1235 322.612C84.2137 322.132 84.6646 321.816 85.1296 321.901C85.6046 321.985 85.9232 322.435 85.8391 322.906C85.2278 326.424 84.6245 330.225 83.9872 334.244C82.7747 341.923 81.3979 350.627 79.5821 359.577C79.2855 361.038 78.4438 362.251 77.3094 363.036Z" fill="#826EF5"/>
<path d="M124.836 423C190.292 423 243.776 372.401 243.776 309.478C243.776 246.554 190.292 195.955 124.836 195.955C59.3792 195.955 5.89551 246.554 5.89551 309.478C5.89551 372.401 59.3792 423 124.836 423Z" stroke="#7EEA88" stroke-width="10"/>
<path d="M664.836 423C730.292 423 783.776 372.401 783.776 309.478C783.776 246.554 730.292 195.955 664.836 195.955C599.379 195.955 545.896 246.554 545.896 309.478C545.896 372.401 599.379 423 664.836 423Z" fill="#DBD9E4" stroke="#7EEA88" stroke-width="10"/>
<path d="M650.312 236.845C651.824 236.845 653.422 238.071 653.879 239.583L654.968 243.182C663.915 240.545 660.278 229.982 669.6 228.19C675.964 226.967 680.054 228.097 682.147 229.039C683.706 231.421 684.785 234.119 685.223 237.007H681.489C680.899 237.007 680.467 237.489 680.529 238.079C680.591 238.669 681.123 239.151 681.713 239.151H685.75C686.339 239.151 686.771 238.669 686.71 238.079C686.649 237.501 686.135 237.032 685.559 237.014C686.391 236.178 686.428 235.384 686.51 234.316C686.743 231.26 686.736 228.205 686.41 225.268C686.149 222.916 685.524 220.394 683.555 219.472C682.747 219.094 681.775 219.025 681.031 218.544C679.807 217.752 679.481 216.065 679.063 214.574C678.644 213.083 677.852 211.513 676.318 211.412C674.854 211.316 673.333 212.622 671.838 212.689C669.624 212.79 667.985 210.19 665.833 211.258C664.942 211.7 664.268 212.692 663.348 212.996C663.205 213.043 663.066 213.065 662.927 213.078C662.726 213.061 662.515 213.064 662.312 213.052C661.435 212.905 660.599 212.389 659.662 212.618C659.345 212.695 659.059 212.875 658.792 213.091C658.406 213.121 658.035 213.12 657.64 213.17C641.883 215.124 640.521 230.46 640.521 230.46C639.256 232.309 638.14 234.55 638.614 236.845H650.312Z" fill="#0D6AF6"/>
<path d="M671.247 257.026C671.494 258.19 672.322 259.608 675.176 260.028C675.176 260.028 679.345 260.504 678.703 257.753L671.247 257.026Z" fill="white"/>
<path d="M670.794 238.073C670.732 237.484 670.199 237.001 669.61 237.001H665.573C664.983 237.001 664.551 237.484 664.612 238.073C664.675 238.663 665.207 239.146 665.797 239.146H669.834C670.424 239.146 670.856 238.663 670.794 238.073Z" fill="#0D6AF6"/>
<path d="M682.253 243.875C682.937 243.875 683.402 243.022 683.292 241.97C683.182 240.919 682.538 240.066 681.855 240.066C681.171 240.066 680.706 240.919 680.816 241.97C680.926 243.022 681.569 243.875 682.253 243.875Z" fill="#4C4D55"/>
<path d="M668.197 242.226C668.087 241.174 667.443 240.322 666.76 240.322C666.076 240.322 665.611 241.174 665.721 242.226C665.831 243.277 666.475 244.13 667.158 244.13C667.842 244.13 668.307 243.277 668.197 242.226Z" fill="#4C4D55"/>
<path d="M678.736 247.678C678.705 248.493 678.237 249.224 677.401 249.463L675.364 250.049C674.662 250.251 673.971 249.923 673.527 249.386L673.505 249.59C673.371 250.818 674.619 251.886 675.792 251.548L677.831 250.962C679.05 250.611 679.566 249.235 678.927 248.036L678.736 247.678Z" fill="#B78E85"/>
<path d="M670.363 313.259C670.677 313.538 671.011 313.64 671.34 313.664C670.714 315.706 670.206 317.791 669.905 319.931C669.388 323.553 669.466 327.342 670.369 330.979C671.25 334.609 672.898 338.091 675.19 341.087C677.442 344.048 679.996 346.523 681.695 349.177C683.462 351.818 684.009 354.437 683.856 357.638C683.702 360.791 683.024 364.223 682.173 367.469C680.704 372.972 678.511 378.356 676.144 383.838C675.392 385.582 676.222 387.573 677.957 388.197L681.146 389.342C682.894 389.968 684.833 388.952 685.378 387.122C687.125 381.257 688.813 375.185 689.722 368.859C690.234 365.057 690.554 361.328 690.275 357.316C690.121 355.315 689.753 353.234 688.992 351.232C688.217 349.217 687.074 347.433 685.811 345.952C683.277 342.962 680.434 340.87 678.127 338.481C675.832 336.151 674.016 333.312 672.822 330.148C670.851 325.062 670.84 319.266 671.88 313.604C672.276 313.457 672.629 313.138 672.841 312.613L673.933 309.919C674.692 308.049 673.318 305.55 671.757 305.957L668.575 306.786C667.014 307.193 666.824 310.1 668.274 311.394L670.363 313.259Z" fill="#A194EE"/>
<path d="M641.748 258.254C642.21 259.298 643.724 259.192 644.037 258.094L645.544 252.803C646.255 250.309 647.92 248.194 650.178 246.918L651.399 246.227C652.963 245.342 654.875 245.667 656.08 246.895L654.957 243.185L653.868 239.586C653.411 238.074 651.814 236.848 650.302 236.848H636.832C635.319 236.848 634.464 238.074 634.922 239.586L638.198 250.412C638.258 250.378 641.748 258.254 641.748 258.254Z" fill="#8A8EAC"/>
<path d="M655.853 273.855H661.521C663.033 273.855 663.888 272.629 663.431 271.117L659.739 258.916C658.941 259.44 657.698 260.421 656.955 261.836L654.951 269.459C654.804 270.016 654.587 270.525 654.339 271.01C655.011 271.901 655.537 272.844 655.853 273.855Z" fill="#8A8EAC"/>
<path d="M656.201 275.696C656.14 275.068 656.015 274.458 655.831 273.868C655.515 272.857 654.989 271.914 654.317 271.023C653.976 271.69 653.551 272.285 653.056 272.806C653.662 273.77 654.051 274.803 654.159 275.916L663.3 353.52C663.438 360.76 658.874 367.017 651.94 369.092C650.939 369.393 649.904 369.598 648.865 369.702C642.873 370.299 637.143 367.471 633.901 362.321L607.751 320.912L606.014 322.009L632.162 363.416C635.498 368.715 641.174 371.835 647.278 371.835C647.871 371.835 648.469 371.806 649.069 371.745C650.24 371.629 651.405 371.398 652.53 371.058C660.356 368.718 665.509 361.653 665.346 353.38L658.475 295.008L656.201 275.696Z" fill="#AFB1C0"/>
<path d="M656.972 345.553L656.331 346.366L657.087 345.657L656.972 345.553Z" fill="#F6C19A"/>
<path d="M671.243 256.997L678.709 257.727C679.345 260.478 675.172 260.01 675.172 260.01C672.328 259.579 671.486 258.176 671.243 256.997ZM665.573 237.013H669.615C670.195 237.013 670.738 237.48 670.794 238.08C670.85 238.659 670.42 239.146 669.84 239.146H665.798C665.218 239.146 664.675 238.659 664.619 238.08C664.544 237.48 664.993 237.013 665.573 237.013ZM681.853 240.063C682.545 240.063 683.181 240.905 683.293 241.953C683.406 243.019 682.938 243.862 682.246 243.862C681.572 243.862 680.917 243.019 680.823 241.953C680.711 240.905 681.16 240.063 681.853 240.063ZM665.704 242.252C665.592 241.204 666.06 240.344 666.752 240.344C667.426 240.344 668.081 241.204 668.193 242.252C668.286 243.3 667.837 244.161 667.145 244.161C666.453 244.161 665.816 243.3 665.704 242.252ZM677.83 250.972L675.79 251.552C674.611 251.889 673.357 250.822 673.488 249.606L673.526 249.4C673.956 249.924 674.649 250.261 675.36 250.055L677.399 249.475C678.222 249.232 678.69 248.502 678.728 247.697L678.915 248.053C679.551 249.25 679.046 250.616 677.83 250.972ZM686.849 252.731L686.4 248.221L685.483 239.146H681.703C681.123 239.146 680.58 238.659 680.524 238.08C680.468 237.48 680.898 237.013 681.478 237.013H685.221C684.772 234.112 683.705 231.418 682.133 229.042C680.056 228.106 675.959 226.965 669.596 228.181C660.278 229.977 663.908 240.549 654.964 243.188L655.619 245.34L656.086 246.893C654.889 245.658 652.962 245.34 651.408 246.219L650.173 246.911C647.928 248.184 646.263 250.298 645.552 252.806L644.036 258.082C643.737 259.187 642.221 259.299 641.753 258.251C641.753 258.251 641.079 256.754 640.331 255.051C640.237 254.808 640.125 254.565 640.013 254.321C639.115 252.375 638.235 250.411 638.198 250.411L637.749 250.654C635.428 251.777 635.484 254.228 636.701 256.511L639.115 266.072L639.264 266.652C638.946 267.532 638.984 268.561 639.564 269.403L641.454 272.191C641.472 272.229 641.51 272.266 641.529 272.303C644.354 276.345 649.986 276.027 653.055 272.79C653.561 272.266 653.972 271.667 654.327 271.012C654.571 270.526 654.795 270.002 654.926 269.459L656.947 261.825C657.677 260.421 658.93 259.43 659.717 258.906L663.421 271.106C663.87 272.622 663.01 273.856 661.513 273.856H655.843C656.012 274.437 656.142 275.054 656.199 275.672L658.481 294.982L666.49 303.197C668.38 305.143 671.486 304.45 671.973 301.98L674.798 287.479C674.948 286.693 674.798 285.907 674.424 285.215C674.05 284.541 673.451 283.961 672.74 283.624L671.412 270.226C671.748 270.245 672.066 270.282 672.403 270.282C682.208 270.339 687.841 262.817 686.849 252.731Z" fill="#DFAE8A"/>
<path d="M636.179 336.913L638.232 336.919L638.403 272.05L637.575 272.048L636.349 272.044L636.314 285.45L636.179 336.913Z" fill="#AFB1C0"/>
<path d="M689.707 368.871C688.809 375.194 687.125 381.277 685.366 387.133C684.823 388.968 682.877 389.978 681.137 389.36L677.956 388.2C676.216 387.583 675.393 385.6 676.141 383.84C678.499 378.357 680.688 372.986 682.166 367.486C683.008 364.23 683.701 360.806 683.85 357.643C684 354.444 683.458 351.824 681.68 349.186C679.996 346.529 677.432 344.059 675.187 341.102C672.885 338.108 671.239 334.628 670.359 330.998C669.461 327.349 669.386 323.569 669.891 319.939C670.191 317.806 670.715 315.71 671.332 313.671C670.995 313.652 670.677 313.54 670.359 313.278L668.263 311.406C666.822 310.115 667.01 307.196 668.563 306.803L671.744 305.961C673.316 305.569 674.681 308.057 673.933 309.928L672.829 312.623C672.623 313.147 672.268 313.465 671.875 313.614C670.827 319.284 670.846 325.066 672.81 330.156C674.008 333.318 675.823 336.162 678.124 338.483C680.426 340.878 683.27 342.974 685.796 345.968C687.069 347.445 688.21 349.223 688.977 351.244C689.744 353.246 690.119 355.323 690.268 357.325C690.549 361.33 690.231 365.072 689.707 368.871ZM638.661 402.477C640.214 402.383 641.749 402.309 643.208 402.252L638.661 402.477ZM656.962 345.537L657.092 345.63L656.325 346.341L656.962 345.537ZM712.872 398.922H712.723C712.648 403.151 712.517 407.68 712.405 412.208C717.682 408.746 722.565 404.759 727 400.326C727 399.633 727 398.96 726.981 398.248C726.364 369.731 722.49 337.117 715.885 309.067C713.078 298.402 701.982 293.443 691.747 290.842C690.849 290.543 689.558 290.094 688.192 289.626C686.077 288.896 683.775 288.11 682.391 287.624C682.353 287.605 682.316 287.586 682.278 287.586C679.64 286.651 677.058 285.865 674.42 285.21C674.794 285.902 674.944 286.688 674.794 287.474L671.968 301.976C671.482 304.445 668.375 305.138 666.486 303.192L658.477 294.978L665.344 353.358C665.512 361.629 660.348 368.702 652.527 371.041C651.404 371.378 650.244 371.602 649.065 371.715C648.466 371.79 647.868 371.809 647.287 371.809C641.169 371.809 635.499 368.684 632.168 363.388L606.009 321.979L607.749 320.893L633.909 362.303C637.146 367.449 642.871 370.274 648.859 369.675C649.907 369.582 650.936 369.376 651.947 369.077C658.87 366.999 663.436 360.731 663.305 353.489L654.155 275.891C654.061 274.787 653.668 273.74 653.051 272.785C649.982 276.022 644.35 276.34 641.524 272.299C641.505 272.261 641.468 272.224 641.449 272.186L639.56 269.398C638.979 268.556 638.942 267.527 639.26 266.648L639.11 266.068C638.137 267.658 637.707 269.754 637.557 272.056H638.399L638.212 336.911H636.173L636.303 285.453C636.004 285.491 635.724 285.546 635.424 285.603C634.395 285.771 633.366 285.958 632.337 286.145C625.133 287.455 606.795 294.004 604.325 301.564C603.82 303.098 603.483 304.633 603.277 306.186C603.221 306.485 603.184 306.803 603.165 307.103C600.994 327.518 620.997 349.841 619.8 380.902C619.613 385.468 619.669 393.963 619.631 403.376H619.482C619.444 407.529 619.407 411.871 619.313 416.117C632.187 423.097 646.932 427.046 662.594 427.046C680.538 427.046 697.248 421.863 711.338 412.899C711.469 408.146 711.581 403.395 711.675 398.977L711.824 398.96C712.012 390.913 712.143 383.952 712.217 380.247C712.629 360.862 710.141 341.663 704.808 323.195C704.733 322.914 704.882 322.634 705.163 322.559C705.444 322.465 705.724 322.634 705.818 322.914C711.17 341.477 713.677 360.769 713.247 380.266C713.172 383.971 713.041 390.894 712.872 398.922Z" fill="#EFE4DD"/>
<path d="M713.267 380.248C713.192 383.953 713.061 390.876 712.893 398.904H712.743C712.668 403.133 712.537 407.662 712.425 412.19C712.07 412.432 711.714 412.656 711.358 412.881C711.489 408.128 711.602 403.377 711.695 398.959L711.845 398.942C712.032 390.895 712.163 383.934 712.237 380.228C712.649 360.844 710.161 341.645 704.828 323.177C704.753 322.896 704.903 322.615 705.183 322.541C705.464 322.447 705.745 322.615 705.838 322.896C711.19 341.458 713.697 360.75 713.267 380.248Z" fill="#AFB1C0"/>
<path d="M712.768 380.248C712.693 383.953 712.562 390.876 712.394 398.904H712.244C712.169 403.133 712.038 407.662 711.926 412.19C711.57 412.432 711.215 412.656 710.859 412.881C710.99 408.128 711.103 403.377 711.196 398.959L711.346 398.942C711.533 390.895 711.664 383.934 711.738 380.228C712.15 360.844 709.662 341.645 704.329 323.177C704.254 322.896 704.404 322.615 704.684 322.541C704.965 322.447 705.246 322.615 705.339 322.896C710.691 341.458 713.198 360.75 712.768 380.248Z" fill="#AFB1C0"/>
<path d="M664.836 423C730.292 423 783.776 372.401 783.776 309.478C783.776 246.554 730.292 195.955 664.836 195.955C599.379 195.955 545.896 246.554 545.896 309.478C545.896 372.401 599.379 423 664.836 423Z" stroke="#7EEA88" stroke-width="10"/>
<path d="M394.836 233C460.292 233 513.776 182.401 513.776 119.478C513.776 56.5542 460.292 5.9552 394.836 5.9552C329.379 5.9552 275.896 56.5542 275.896 119.478C275.896 182.401 329.379 233 394.836 233Z" fill="#DBD9E4" stroke="#7EEA88" stroke-width="10"/>
<path d="M411.823 149.956C409.578 148.37 407.498 146.821 405.547 145.273C405.206 147.714 404.701 149.85 404.084 151.791C406.062 154.304 408.281 157.557 408.414 157.77C408.553 157.991 409.686 159.923 409.827 160.811C410.926 160.218 412.216 159.839 413.532 159.55C417.396 158.703 421.511 158.283 425.459 157.587C421.14 154.719 417.231 151.755 413.822 148.933L411.823 149.956Z" fill="#0D6AF6"/>
<path d="M339.058 172.345L338.129 172.331C338.046 172.329 337.97 172.308 337.889 172.304C338.595 172.941 339.32 173.554 340.058 174.147C340.374 173.499 340.657 172.875 340.952 172.243C340.317 172.278 339.67 172.318 339.058 172.345Z" fill="#0D6AF6"/>
<path d="M460.407 94.6423C470.419 81.0994 459.412 53.5287 444.881 35.4147C437.218 25.863 431.742 20.2533 423.215 22.3814C416.714 24.0049 416.669 24.6917 408.716 22.5136C403.331 21.0395 399.211 19.4328 394.056 19.7222C379.53 20.5401 368.257 28.4689 364.065 40.8083C361.496 48.3792 361.472 57.4328 358.09 64.4796C352.723 75.6642 339.783 80.2585 330.851 88.4939C311.686 106.164 313.785 139.52 328.737 161.707C328.632 156.874 328.711 152.155 329.035 147.698L329.106 146.715L329.666 146.88C327.724 146.003 326.565 143.943 326.874 141.778C328.787 128.353 333.538 112.652 342.248 102.602L342.661 102.039C343.239 101.497 343.964 101.075 344.788 100.76C347.153 99.0181 350.604 98.5878 354.105 98.075C354.128 98.0702 362.208 96.519 369.635 95.4777L381.715 74.1483C381.561 72.8715 381.637 71.3137 381.948 69.3015C378.602 68.6582 376.55 64.9124 377.322 60.9326C378.068 57.0908 381.171 54.4645 384.358 54.8614L388.617 56.6596C403.104 56.9085 401.646 41.3334 414.841 41.3386C423.414 41.3413 428.21 43.7386 430.528 45.4209C431.745 49.144 432.106 53.2124 431.303 57.3522L429.178 64.0113L434.455 72.6392C437.04 73.3574 439.871 74.9853 441.145 76.8669C443.686 80.6242 443.66 90.3759 441.969 96.4458C443.084 99.5652 444.212 102.795 445.334 106.139C450.556 102.571 456.786 99.5396 460.407 94.6423Z" fill="#0D6AF6"/>
<path d="M346.02 151.677C346.109 151.704 345.781 152.517 345.781 152.517C345.159 154.067 344.494 155.742 343.843 157.395C344.761 157.646 345.873 157.611 345.873 157.611C345.954 157.61 346.04 157.613 346.122 157.612C346.593 155.524 346.914 153.541 347.118 151.638C346.76 151.7 346.391 151.722 346.02 151.677Z" fill="#0D6AF6"/>
<path d="M418.164 93.6281L415.31 88.9598C409.467 92.2637 402.414 92.7106 397.38 88.4318C397.142 88.2283 396.927 88.0622 396.694 87.8683L391.671 97.0367C394.92 98.1811 397.542 99.4934 398.547 100.476C402.102 100.865 405.804 102.749 408.897 106.654C415.875 115.469 421.738 123.966 430.547 135.638C430.845 136.035 431.044 136.477 431.164 136.934L439.906 145.687C438.163 135.805 437.541 129.918 436.805 123.874C436.604 123.035 436.45 122.222 436.376 121.451C436.337 121.05 436.368 120.693 436.358 120.311C435.662 115.002 434.707 108.983 432.758 99.7546C430.892 97.3855 430.626 97.9354 428.737 95.4431C428.242 94.7911 427.808 94.0831 427.402 93.3479L423.449 95.3829C421.678 96.2929 419.313 95.5067 418.164 93.6281Z" fill="#0D6AF6"/>
<path d="M397.452 167.466C396.094 171.308 395.032 175.92 394.697 182.209C394.676 184.715 394.818 188.1 395.085 192.111C402.418 190.72 408.08 185.901 407.978 178.234C407.912 173.325 405.655 167.26 407.308 163.421C405.019 163.729 403.297 164.009 402.756 164.377C401.458 165.421 399.36 166.805 397.452 167.466Z" fill="#0D6AF6"/>
<path d="M441.148 76.8468C439.874 74.9651 437.043 73.3372 434.458 72.619L440.324 82.2157C441.472 84.0948 440.97 86.3556 439.199 87.2661L427.394 93.338C427.799 94.0732 428.234 94.7812 428.728 95.4332C430.617 97.9255 430.884 97.3756 432.75 99.7447C434.699 108.973 435.654 114.992 436.35 120.301C436.509 121.515 436.656 122.693 436.797 123.864C437.532 129.908 438.155 135.795 439.897 145.677L431.156 136.924C431.496 138.193 431.172 139.59 430.186 140.555L413.82 148.935C417.229 151.757 421.138 154.721 425.458 157.589C434.06 163.298 444.272 168.574 455.415 171.314C455.679 171.379 455.949 171.412 456.218 171.412C457.246 171.412 458.28 170.922 458.916 170.134C459.418 169.512 459.588 168.824 459.428 168.087L459.381 167.86L459.355 167.629C456.532 142.851 451.001 122.976 445.337 106.119C444.214 102.775 443.087 99.5451 441.972 96.4256C443.662 90.3557 443.688 80.6041 441.148 76.8468Z" fill="#DFAE8A"/>
<path d="M415.301 88.9451L418.155 93.6135C419.304 95.492 421.669 96.2782 423.44 95.3683L427.393 93.3333L439.198 87.2613C440.97 86.3508 441.472 84.09 440.323 82.211L434.458 72.6142L429.18 63.9863L425.593 75.2371C424.442 81.1764 420.316 86.1096 415.301 88.9451Z" fill="white"/>
<path d="M408.889 106.649C405.797 102.744 402.095 100.86 398.539 100.471C398.764 100.692 398.937 100.902 398.984 101.083C400.329 106.281 406.516 124.724 405.959 140.729C405.888 142.371 405.742 143.873 405.546 145.28C407.497 146.827 409.577 148.376 411.822 149.963L413.821 148.94L430.186 140.56C431.173 139.595 431.497 138.198 431.157 136.929C431.037 136.472 430.838 136.03 430.54 135.633C421.73 123.961 415.867 115.464 408.889 106.649Z" fill="#EFE4DD"/>
<path d="M333.057 186.555C329.894 191.494 328.415 200.196 327.4 207.744C327.382 207.754 326.976 210.408 326.555 215C337.831 223.167 368.196 238.7 399.443 235.5C398.316 225.937 397.247 216.338 396.414 207.768C396.414 207.559 396.393 207.352 396.346 207.143C395.815 201.604 395.375 196.503 395.101 192.141C394.823 188.148 394.685 184.754 394.708 182.239C395.03 175.96 396.092 171.344 397.453 167.512C396.739 167.743 396.022 167.905 395.423 167.882C394.201 167.858 392.929 167.789 391.938 167.097C391.176 166.589 390.669 165.781 390.138 164.996C389.491 165.227 388.822 165.458 388.013 165.689C381.182 167.674 357.614 171.344 340.95 172.29C340.649 172.913 340.372 173.537 340.05 174.183C338.18 178.014 335.872 182.123 333.057 186.555Z" fill="#8A8EAC"/>
<path d="M362.7 118.789C360.997 123.232 359.21 127.537 357.269 132.124C355.145 137.136 352.353 143.611 349.985 149.323C349.472 150.557 348.376 151.369 347.136 151.587C346.932 153.489 346.61 155.473 346.139 157.561C351.921 157.491 358.185 157.875 364.412 158.261C370.908 158.667 377.043 159.05 382.124 158.842C384.092 158.763 385.805 158.816 387.307 158.95C390.172 156.379 394.505 152.491 395.711 151.419C396.551 150.671 397.325 149.823 398.28 149.245C399.235 148.668 400.446 148.402 401.412 148.912C401.961 149.202 402.984 150.371 404.08 151.765C404.698 149.824 405.203 147.689 405.543 145.247C405.739 143.84 405.886 142.338 405.956 140.696C406.514 124.691 400.326 106.249 398.981 101.051C398.934 100.87 398.761 100.66 398.536 100.439C397.532 99.4559 394.91 98.1436 391.661 96.9992L391.028 98.1548C392.085 99.3424 392.694 100.709 392.694 102.166C392.694 106.707 386.844 110.388 379.631 110.388C372.418 110.388 366.57 106.707 366.57 102.166C366.57 100.957 366.994 99.8118 367.74 98.7778L369.636 95.4299C362.209 96.4712 354.129 98.0225 354.106 98.0272C350.605 98.54 347.154 98.9704 344.789 100.712C352.264 97.865 368.239 104.334 362.7 118.789Z" fill="#8A8EAC"/>
<path d="M404.075 151.757C402.978 150.363 401.955 149.194 401.406 148.904C400.441 148.394 399.229 148.66 398.274 149.237C397.319 149.815 396.545 150.663 395.705 151.411C394.499 152.484 390.166 156.371 387.301 158.942C385.8 158.808 384.086 158.755 382.118 158.834C377.037 159.042 370.902 158.659 364.406 158.253C358.179 157.867 351.915 157.483 346.133 157.553C346.052 157.553 345.966 157.551 345.885 157.552C345.885 157.552 344.773 157.587 343.854 157.336C344.506 155.683 345.17 154.008 345.793 152.458L346.12 151.644C345.819 151.594 345.61 151.557 345.401 151.496L330.283 147.071C330.066 147.006 329.862 146.915 329.661 146.824L329.101 146.66L329.03 147.643C328.706 152.099 328.627 156.818 328.732 161.651C328.745 162.181 328.727 162.693 328.745 163.227C328.742 163.294 328.745 163.394 328.753 163.521C329.056 168.353 333.08 172.083 337.897 172.281C337.978 172.284 338.054 172.306 338.138 172.307L339.067 172.322C339.679 172.295 340.325 172.255 340.961 172.219C357.632 171.287 381.197 167.622 388.026 165.631C388.819 165.401 389.499 165.17 390.132 164.942C390.666 165.722 391.171 166.528 391.932 167.047C392.934 167.73 394.211 167.789 395.422 167.829C396.037 167.849 396.736 167.694 397.463 167.442C399.37 166.782 401.469 165.398 402.766 164.354C403.308 163.986 405.03 163.705 407.319 163.398C408.588 163.227 409.65 162.285 409.836 161.031C409.846 160.964 409.831 160.871 409.817 160.777C409.676 159.889 408.543 157.957 408.405 157.736C408.271 157.523 406.053 154.27 404.075 151.757Z" fill="#DFAE8A"/>
<path d="M429.226 58.3362L424.702 57.482C424.056 57.3663 423.617 56.7204 423.732 56.0741C423.87 55.4049 424.493 54.9661 425.163 55.0812L429.687 55.9355C430.333 56.0741 430.772 56.6973 430.657 57.3663C430.519 58.0359 429.896 58.4746 429.226 58.3362ZM425.254 62.2832C425.325 62.6291 425.349 62.9985 425.278 63.391C425.048 64.5681 424.239 65.4223 423.478 65.2609C422.717 65.1222 422.277 64.0605 422.51 62.8834C422.717 61.7754 423.431 60.9905 424.148 61.0135C424.148 61.0135 424.354 61.0135 424.655 61.0365L426.662 61.1982L425.254 62.2832ZM416.207 72.1159L413.737 72.3237C412.306 72.4621 411.268 71.0312 411.822 69.7155L411.914 69.4844C412.215 70.177 412.884 70.6845 413.737 70.5924L416.207 70.3847C417.222 70.2924 417.984 69.5998 418.285 68.7231L418.376 69.1383C418.701 70.5925 417.685 72.0006 416.207 72.1159ZM411.545 80.7253C408.659 79.6638 408.267 77.8633 408.382 76.4551L416.045 78.7863C415.815 82.1103 411.545 80.7253 411.545 80.7253ZM406.835 60.5057C406.605 61.683 405.797 62.514 405.035 62.3756C404.274 62.2136 403.834 61.1522 404.067 59.9748C404.274 58.7977 405.082 57.9665 405.844 58.1052L408.382 58.3132L406.835 59.4903C406.883 59.7901 406.906 60.1363 406.835 60.5057ZM402.775 52.3116C402.89 51.6653 403.536 51.2269 404.182 51.3425L408.706 52.1962C409.376 52.3116 409.789 52.9578 409.674 53.6276C409.559 54.2738 408.913 54.7123 408.243 54.5967L403.743 53.7427C403.073 53.6043 402.636 52.9811 402.775 52.3116ZM431.442 49.2188C431.233 47.9033 430.935 46.6336 430.519 45.3872C428.211 43.7023 423.41 41.3015 414.847 41.3015C412.699 41.3015 410.946 41.7173 409.444 42.4095C401.689 45.9411 400.742 56.8125 388.623 56.6278L384.353 54.8277C381.169 54.4353 378.077 57.0435 377.315 60.8981C376.551 64.8679 378.608 68.6074 381.907 69.2539C381.768 70.2463 381.677 71.1003 381.653 71.8849C381.609 72.7161 381.63 73.4547 381.724 74.1007L369.629 95.4285L367.734 98.7754C366.996 99.814 366.56 100.968 366.56 102.168C366.56 106.715 372.42 110.386 379.623 110.386C386.847 110.386 392.686 106.715 392.686 102.168C392.686 100.714 392.087 99.3523 391.025 98.1521L391.671 96.9983L396.679 87.8346C396.912 88.0421 397.142 88.2038 397.372 88.4115C402.403 92.6817 409.467 92.2432 415.307 88.9196C420.315 86.1034 424.449 81.164 425.602 75.232L429.179 63.9681L431.303 57.3206C431.835 54.5504 431.855 51.827 431.442 49.2188Z" fill="#DFAE8A"/>
<path d="M345.411 151.542C345.62 151.603 345.83 151.64 346.042 151.664C346.413 151.709 346.782 151.687 347.141 151.625C348.381 151.407 349.477 150.595 349.99 149.361C352.357 143.649 355.149 137.174 357.274 132.162C359.215 127.575 361.002 123.27 362.705 118.827C368.244 104.372 352.269 97.903 344.794 100.75C343.97 101.065 343.245 101.487 342.667 102.03L342.253 102.593C333.543 112.642 328.792 128.343 326.88 141.769C326.571 143.933 327.73 145.993 329.671 146.87C329.873 146.961 330.077 147.053 330.294 147.117L345.411 151.542Z" fill="#EFE4DD"/>
<path d="M409.663 53.6189C409.788 52.9596 409.349 52.3186 408.689 52.1938L404.176 51.3419C403.517 51.2171 402.876 51.6551 402.75 52.3144C402.627 52.9737 403.064 53.615 403.723 53.7395L408.237 54.5917C408.896 54.7162 409.54 54.2782 409.663 53.6189Z" fill="#0D6AF6"/>
<path d="M423.734 56.0953C423.609 56.7546 424.046 57.3958 424.708 57.5204L429.221 58.3717C429.88 58.4968 430.521 58.0591 430.644 57.3995C430.77 56.7399 430.333 56.0992 429.674 55.9747L425.16 55.1228C424.498 54.998 423.857 55.436 423.734 56.0953Z" fill="#0D6AF6"/>
<path d="M418.271 68.7123C417.97 69.599 417.206 70.3007 416.194 70.3875L413.724 70.5994C412.874 70.6724 412.209 70.1667 411.887 69.4851L411.796 69.7041C411.244 71.022 412.288 72.4552 413.711 72.333L416.183 72.1208C417.662 71.9942 418.69 70.5939 418.368 69.1453L418.271 68.7123Z" fill="#B3774B"/>
<path d="M411.55 80.7419C411.55 80.7419 415.812 82.1304 416.052 78.8003L408.389 76.4629C408.263 77.8668 408.666 79.6823 411.55 80.7419Z" fill="white"/>
<path d="M405.834 58.1423C405.07 57.9979 404.269 58.8343 404.047 60.0098C403.824 61.1864 404.267 62.2565 405.03 62.4009C405.794 62.5451 406.595 61.7089 406.815 60.5326C406.883 60.1726 406.872 59.8351 406.825 59.5185L408.366 58.3503L405.834 58.1423Z" fill="#4C4D55"/>
<path d="M424.159 61.0588C423.44 61.0316 422.72 61.8058 422.511 62.9104C422.288 64.087 422.728 65.1573 423.492 65.3015C424.259 65.4456 425.057 64.6094 425.279 63.4334C425.355 63.0286 425.329 62.6548 425.263 62.3086L426.684 61.2323L424.149 61.0248L424.159 61.0588Z" fill="#4C4D55"/>
<path d="M388.743 31.0085C399.315 29.5401 407.145 31.5955 411.432 33.6168C412.321 34.0363 411.958 35.153 410.974 35.152C391.576 35.1325 377.809 45.8027 371.208 53.6898C370.517 54.5156 369.194 53.9344 369.517 52.907C372.131 44.5951 378.905 33.3696 388.743 31.0085Z" fill="#AFB1C0" stroke="#AFB1C0"/>
<path d="M394.836 233C460.292 233 513.776 182.401 513.776 119.478C513.776 56.5542 460.292 5.9552 394.836 5.9552C329.379 5.9552 275.896 56.5542 275.896 119.478C275.896 182.401 329.379 233 394.836 233Z" stroke="#7EEA88" stroke-width="10"/>
<circle cx="395" cy="399" r="78" fill="#DBD9E4" stroke="#7EEA88" stroke-width="10"/>
<g filter="url(#filter0_d_1603_45)">
<path d="M420 385.5C426.188 385.5 431.25 380.578 431.25 374.25C431.25 368.062 426.188 363 420 363C413.672 363 408.75 368.062 408.75 374.25C408.75 380.578 413.672 385.5 420 385.5ZM366 385.5C372.188 385.5 377.25 380.578 377.25 374.25C377.25 368.062 372.188 363 366 363C359.672 363 354.75 368.062 354.75 374.25C354.75 380.578 359.672 385.5 366 385.5ZM392.859 408C401.016 408 407.484 401.531 407.484 393.375C407.484 385.359 400.875 378.75 392.859 378.75C384.844 378.75 378.375 385.359 378.375 393.375C378.234 401.531 384.844 408 392.859 408ZM399.75 419.25C399.75 417 400.172 414.75 400.875 412.641C400.594 412.641 400.312 412.5 399.891 412.5H385.969C374.859 412.5 366 420.938 366 431.344C366 433.453 367.688 435 369.938 435H407.344C402.703 431.344 399.75 425.719 399.75 419.25ZM373.734 393.375C373.734 392.672 373.875 391.969 374.016 391.266C372.469 390.422 370.781 390 368.953 390H360.375C353.484 390 348 395.906 348 403.219C348 404.625 348.984 405.75 350.391 405.75H378.516C375.562 402.516 373.734 398.156 373.734 393.375ZM425.484 390H416.906C415.078 390 413.391 390.562 411.844 391.266C411.844 391.969 411.984 392.672 411.984 393.375C411.984 396.469 411.281 399.281 410.016 401.812C412.969 400.125 416.344 399 420 399C425.906 399 431.25 401.672 434.906 405.75H435.469C436.875 405.75 438 404.625 438 403.219C438 395.906 432.375 390 425.484 390ZM434.906 414.609C434.203 412.359 432.938 410.391 431.391 408.562C431.109 408.422 430.688 408.281 430.406 408.422L427.734 410.109C426.609 409.125 425.344 408.281 423.938 407.859V404.625C423.938 404.203 423.656 403.922 423.234 403.781C420.984 403.359 418.594 403.359 416.344 403.781C416.062 404.062 415.922 404.344 415.922 404.625V407.719C414.516 408.141 413.109 408.984 411.984 409.969L409.312 408.422C409.031 408.141 408.609 408.281 408.328 408.562C406.781 410.25 405.516 412.219 404.953 414.469C404.812 414.891 404.953 415.172 405.234 415.453L407.906 417C407.625 418.406 407.625 419.953 407.906 421.359L405.234 423.047C404.953 423.188 404.812 423.469 404.953 423.891C405.516 426.141 406.781 428.109 408.328 429.938C408.609 430.219 409.031 430.219 409.312 430.078L411.984 428.531C413.109 429.516 414.516 430.219 415.922 430.641V433.875C415.922 434.156 416.062 434.438 416.484 434.578C418.734 435.141 421.125 435.141 423.375 434.578C423.797 434.438 423.938 434.156 423.938 433.875V430.641C425.344 430.219 426.75 429.516 427.875 428.531L430.547 430.078C430.828 430.219 431.25 430.219 431.531 429.938C433.078 428.25 434.203 426.141 434.906 423.891C435.047 423.469 434.906 423.188 434.625 423.047L431.953 421.359C432.234 419.953 432.234 418.406 431.953 417L434.625 415.453C434.906 415.312 435.047 415.031 434.906 414.609ZM420 423.75C417.469 423.75 415.5 421.781 415.5 419.25C415.5 416.859 417.469 414.75 420 414.75C422.391 414.75 424.5 416.859 424.5 419.25C424.5 421.781 422.391 423.75 420 423.75Z" fill="#0D6AF6"/>
</g>
<defs>
<filter id="filter0_d_1603_45" x="334" y="353" width="118" height="100" filterUnits="userSpaceOnUse" color-interpolation-filters="sRGB">
<feFlood flood-opacity="0" result="BackgroundImageFix"/>
<feColorMatrix in="SourceAlpha" type="matrix" values="0 0 0 0 0 0 0 0 0 0 0 0 0 0 0 0 0 0 127 0" result="hardAlpha"/>
<feOffset dy="4"/>
<feGaussianBlur stdDeviation="7"/>
<feComposite in2="hardAlpha" operator="out"/>
<feColorMatrix type="matrix" values="0 0 0 0 0.156759 0 0 0 0 0.590805 0 0 0 0 0.952511 0 0 0 0.5 0"/>
<feBlend mode="normal" in2="BackgroundImageFix" result="effect1_dropShadow_1603_45"/>
<feBlend mode="normal" in="SourceGraphic" in2="effect1_dropShadow_1603_45" result="shape"/>
</filter>
</defs>
</svg>
