<svg width="1274" height="914" viewBox="0 0 1274 914" fill="none" xmlns="http://www.w3.org/2000/svg">
<circle cx="18.231" cy="130.068" r="18.231" fill="#E9EFF4"/>
<circle cx="18.231" cy="895.769" r="18.231" fill="#E9EFF4"/>
<circle cx="18.231" cy="512.919" r="18.231" fill="#E9EFF4"/>
<circle cx="18.231" cy="576.727" r="18.231" fill="#E9EFF4"/>
<circle cx="18.231" cy="640.535" r="18.231" fill="#E9EFF4"/>
<circle cx="18.231" cy="704.344" r="18.231" fill="#E9EFF4"/>
<circle cx="18.231" cy="768.152" r="18.231" fill="#E9EFF4"/>
<circle cx="18.231" cy="831.961" r="18.231" fill="#E9EFF4"/>
<circle cx="18.231" cy="449.11" r="18.231" fill="#E9EFF4"/>
<circle cx="18.231" cy="385.302" r="18.231" fill="#E9EFF4"/>
<circle cx="18.231" cy="321.493" r="18.231" fill="#E9EFF4"/>
<circle cx="18.231" cy="257.685" r="18.231" fill="#E9EFF4"/>
<circle cx="18.231" cy="193.877" r="18.231" fill="#E9EFF4"/>
<circle cx="78.3931" cy="130.068" r="18.231" fill="#E9EFF4"/>
<circle cx="78.3931" cy="895.769" r="18.231" fill="#E9EFF4"/>
<circle cx="78.3931" cy="512.919" r="18.231" fill="#E9EFF4"/>
<circle cx="78.3931" cy="576.727" r="18.231" fill="#E9EFF4"/>
<circle cx="78.3931" cy="640.535" r="18.231" fill="#E9EFF4"/>
<circle cx="78.3931" cy="704.344" r="18.231" fill="#E9EFF4"/>
<circle cx="78.3931" cy="768.152" r="18.231" fill="#E9EFF4"/>
<circle cx="78.3931" cy="831.96" r="18.231" fill="#E9EFF4"/>
<circle cx="78.3931" cy="449.11" r="18.231" fill="#E9EFF4"/>
<circle cx="78.3931" cy="385.302" r="18.231" fill="#E9EFF4"/>
<circle cx="78.3931" cy="321.493" r="18.231" fill="#E9EFF4"/>
<circle cx="78.3931" cy="257.685" r="18.231" fill="#E9EFF4"/>
<circle cx="78.3931" cy="193.877" r="18.231" fill="#E9EFF4"/>
<circle cx="138.555" cy="130.068" r="18.231" fill="#E9EFF4"/>
<circle cx="138.555" cy="895.769" r="18.231" fill="#E9EFF4"/>
<circle cx="138.555" cy="512.919" r="18.231" fill="#E9EFF4"/>
<circle cx="138.555" cy="576.727" r="18.231" fill="#E9EFF4"/>
<circle cx="138.555" cy="640.535" r="18.231" fill="#E9EFF4"/>
<circle cx="138.555" cy="704.344" r="18.231" fill="#E9EFF4"/>
<circle cx="138.555" cy="768.152" r="18.231" fill="#E9EFF4"/>
<circle cx="138.555" cy="831.961" r="18.231" fill="#E9EFF4"/>
<circle cx="138.555" cy="449.11" r="18.231" fill="#E9EFF4"/>
<circle cx="138.555" cy="385.302" r="18.231" fill="#E9EFF4"/>
<circle cx="138.555" cy="321.493" r="18.231" fill="#E9EFF4"/>
<circle cx="138.555" cy="257.685" r="18.231" fill="#E9EFF4"/>
<circle cx="138.555" cy="193.877" r="18.231" fill="#E9EFF4"/>
<circle cx="198.716" cy="130.068" r="18.231" fill="#E9EFF4"/>
<circle cx="198.716" cy="895.769" r="18.231" fill="#E9EFF4"/>
<circle cx="198.716" cy="512.919" r="18.231" fill="#E9EFF4"/>
<circle cx="198.716" cy="576.727" r="18.231" fill="#E9EFF4"/>
<circle cx="198.716" cy="640.535" r="18.231" fill="#E9EFF4"/>
<circle cx="198.716" cy="704.344" r="18.231" fill="#E9EFF4"/>
<circle cx="198.716" cy="768.152" r="18.231" fill="#E9EFF4"/>
<circle cx="198.716" cy="831.96" r="18.231" fill="#E9EFF4"/>
<circle cx="198.716" cy="449.11" r="18.231" fill="#E9EFF4"/>
<circle cx="198.716" cy="385.302" r="18.231" fill="#E9EFF4"/>
<circle cx="198.716" cy="321.493" r="18.231" fill="#E9EFF4"/>
<circle cx="198.716" cy="257.685" r="18.231" fill="#E9EFF4"/>
<circle cx="198.716" cy="193.877" r="18.231" fill="#E9EFF4"/>
<circle cx="258.88" cy="130.068" r="18.231" fill="#E9EFF4"/>
<circle cx="258.88" cy="895.769" r="18.231" fill="#E9EFF4"/>
<circle cx="258.88" cy="512.919" r="18.231" fill="#E9EFF4"/>
<circle cx="258.88" cy="576.727" r="18.231" fill="#E9EFF4"/>
<circle cx="258.88" cy="640.535" r="18.231" fill="#E9EFF4"/>
<circle cx="258.88" cy="704.344" r="18.231" fill="#E9EFF4"/>
<circle cx="258.88" cy="768.152" r="18.231" fill="#E9EFF4"/>
<circle cx="258.88" cy="831.96" r="18.231" fill="#E9EFF4"/>
<circle cx="258.88" cy="449.11" r="18.231" fill="#E9EFF4"/>
<circle cx="258.88" cy="385.302" r="18.231" fill="#E9EFF4"/>
<circle cx="258.88" cy="321.493" r="18.231" fill="#E9EFF4"/>
<circle cx="258.88" cy="257.685" r="18.231" fill="#E9EFF4"/>
<circle cx="258.88" cy="193.877" r="18.231" fill="#E9EFF4"/>
<circle cx="319.042" cy="130.068" r="18.231" fill="#E9EFF4"/>
<circle cx="319.042" cy="895.769" r="18.231" fill="#E9EFF4"/>
<circle cx="319.042" cy="512.919" r="18.231" fill="#E9EFF4"/>
<circle cx="319.042" cy="576.727" r="18.231" fill="#E9EFF4"/>
<circle cx="319.042" cy="640.535" r="18.231" fill="#E9EFF4"/>
<circle cx="319.042" cy="704.344" r="18.231" fill="#E9EFF4"/>
<circle cx="319.042" cy="768.152" r="18.231" fill="#E9EFF4"/>
<circle cx="319.042" cy="831.96" r="18.231" fill="#E9EFF4"/>
<circle cx="319.042" cy="449.11" r="18.231" fill="#E9EFF4"/>
<circle cx="319.042" cy="385.302" r="18.231" fill="#E9EFF4"/>
<circle cx="319.042" cy="321.493" r="18.231" fill="#E9EFF4"/>
<circle cx="319.042" cy="257.685" r="18.231" fill="#E9EFF4"/>
<circle cx="319.042" cy="193.877" r="18.231" fill="#E9EFF4"/>
<circle cx="379.204" cy="130.068" r="18.231" fill="#E9EFF4"/>
<circle cx="379.204" cy="895.769" r="18.231" fill="#E9EFF4"/>
<circle cx="379.204" cy="512.919" r="18.231" fill="#E9EFF4"/>
<circle cx="379.204" cy="576.727" r="18.231" fill="#E9EFF4"/>
<circle cx="379.204" cy="640.535" r="18.231" fill="#E9EFF4"/>
<circle cx="379.204" cy="704.344" r="18.231" fill="#E9EFF4"/>
<circle cx="379.204" cy="768.152" r="18.231" fill="#E9EFF4"/>
<circle cx="379.204" cy="831.96" r="18.231" fill="#E9EFF4"/>
<circle cx="379.204" cy="449.11" r="18.231" fill="#E9EFF4"/>
<circle cx="379.204" cy="385.302" r="18.231" fill="#E9EFF4"/>
<circle cx="379.204" cy="321.493" r="18.231" fill="#E9EFF4"/>
<circle cx="379.204" cy="257.685" r="18.231" fill="#E9EFF4"/>
<circle cx="379.204" cy="193.877" r="18.231" fill="#E9EFF4"/>
<circle cx="439.367" cy="130.068" r="18.231" fill="#E9EFF4"/>
<circle cx="439.367" cy="895.769" r="18.231" fill="#E9EFF4"/>
<circle cx="439.367" cy="512.919" r="18.231" fill="#E9EFF4"/>
<circle cx="439.367" cy="576.727" r="18.231" fill="#E9EFF4"/>
<circle cx="439.367" cy="640.535" r="18.231" fill="#E9EFF4"/>
<circle cx="439.367" cy="704.344" r="18.231" fill="#E9EFF4"/>
<circle cx="439.367" cy="768.152" r="18.231" fill="#E9EFF4"/>
<circle cx="439.367" cy="831.96" r="18.231" fill="#E9EFF4"/>
<circle cx="439.367" cy="449.11" r="18.231" fill="#E9EFF4"/>
<circle cx="439.367" cy="385.302" r="18.231" fill="#E9EFF4"/>
<circle cx="439.367" cy="321.493" r="18.231" fill="#E9EFF4"/>
<circle cx="439.367" cy="257.685" r="18.231" fill="#E9EFF4"/>
<circle cx="439.367" cy="193.877" r="18.231" fill="#E9EFF4"/>
<circle cx="499.529" cy="130.068" r="18.231" fill="#E9EFF4"/>
<circle cx="499.529" cy="895.769" r="18.231" fill="#E9EFF4"/>
<circle cx="499.529" cy="512.919" r="18.231" fill="#E9EFF4"/>
<circle cx="499.529" cy="576.727" r="18.231" fill="#E9EFF4"/>
<circle cx="499.529" cy="640.535" r="18.231" fill="#E9EFF4"/>
<circle cx="499.529" cy="704.344" r="18.231" fill="#E9EFF4"/>
<circle cx="499.529" cy="768.152" r="18.231" fill="#E9EFF4"/>
<circle cx="499.529" cy="831.961" r="18.231" fill="#E9EFF4"/>
<circle cx="499.529" cy="449.11" r="18.231" fill="#E9EFF4"/>
<circle cx="499.529" cy="385.302" r="18.231" fill="#E9EFF4"/>
<circle cx="499.529" cy="321.493" r="18.231" fill="#E9EFF4"/>
<circle cx="499.529" cy="257.685" r="18.231" fill="#E9EFF4"/>
<circle cx="499.529" cy="193.877" r="18.231" fill="#E9EFF4"/>
<rect x="118.5" y="0.628296" width="623.499" height="794.87" rx="25" fill="url(#paint0_linear_1353_298)"/>
<g filter="url(#filter0_i_1353_298)">
<rect x="336.558" y="105" width="837" height="590" rx="30" fill="#F5F5F5"/>
</g>
<rect x="362.558" y="129" width="785" height="517" rx="22" fill="white"/>
<rect x="362.558" y="129" width="785" height="517" rx="22" fill="#E4EEF5" fill-opacity="0.3"/>
<g filter="url(#filter1_di_1353_298)">
<rect x="298.558" y="661" width="913" height="40" rx="20" fill="#F5F5F5"/>
</g>
<g filter="url(#filter2_d_1353_298)">
<rect x="373.558" y="212" width="234" height="130" rx="10" fill="#E9EFF4"/>
</g>
<path d="M373.558 221C373.558 216.029 377.587 212 382.558 212H598.558C603.528 212 607.558 216.029 607.558 221H373.558Z" fill="#7EEA88"/>
<g filter="url(#filter3_d_1353_298)">
<rect x="638.558" y="212" width="234" height="130" rx="10" fill="#E9EFF4"/>
</g>
<path d="M638.558 221C638.558 216.029 642.587 212 647.558 212H863.558C868.528 212 872.558 216.029 872.558 221H638.558Z" fill="#7EEA88"/>
<g filter="url(#filter4_d_1353_298)">
<rect x="903.558" y="212" width="234" height="130" rx="10" fill="#E9EFF4"/>
</g>
<path d="M903.558 221C903.558 216.029 907.587 212 912.558 212H1128.56C1133.53 212 1137.56 216.029 1137.56 221H903.558Z" fill="#7EEA88"/>
<g filter="url(#filter5_d_1353_298)">
<rect x="373.558" y="392" width="234" height="130" rx="10" fill="#E9EFF4"/>
</g>
<path d="M373.558 401C373.558 396.029 377.587 392 382.558 392H598.558C603.528 392 607.558 396.029 607.558 401H373.558Z" fill="#7EEA88"/>
<g filter="url(#filter6_d_1353_298)">
<rect x="638.558" y="392" width="234" height="130" rx="10" fill="#E9EFF4"/>
</g>
<path d="M638.558 401C638.558 396.029 642.587 392 647.558 392H863.558C868.528 392 872.558 396.029 872.558 401H638.558Z" fill="#7EEA88"/>
<g filter="url(#filter7_d_1353_298)">
<rect x="903.558" y="392" width="234" height="130" rx="10" fill="#E9EFF4"/>
</g>
<path d="M903.558 401C903.558 396.029 907.587 392 912.558 392H1128.56C1133.53 392 1137.56 396.029 1137.56 401H903.558Z" fill="#7EEA88"/>
<rect x="362.558" y="129" width="785" height="517" rx="22" fill="url(#paint1_linear_1353_298)"/>
<g filter="url(#filter8_di_1353_298)">
<rect x="1022.84" y="310.923" width="208.005" height="409.077" rx="30" fill="#F5F5F5"/>
</g>
<rect x="1037.4" y="324.097" width="178.884" height="382.036" rx="22" fill="white"/>
<rect x="1037.4" y="324.097" width="178.884" height="382.036" rx="22" fill="#E4EEF5" fill-opacity="0.4"/>
<g filter="url(#filter9_d_1353_298)">
<rect x="1097.72" y="358.764" width="162.244" height="90.1356" rx="10" fill="#E9EFF4"/>
</g>
<path d="M1097.72 365.004C1097.72 361.558 1100.51 358.764 1103.96 358.764H1253.72C1257.17 358.764 1259.96 361.558 1259.96 365.004H1097.72Z" fill="#7EEA88"/>
<g filter="url(#filter10_d_1353_298)">
<rect x="989.558" y="466.234" width="162.244" height="90.1356" rx="10" fill="#E9EFF4"/>
</g>
<path d="M989.558 472.474C989.558 469.027 992.351 466.234 995.798 466.234H1145.56C1149.01 466.234 1151.8 469.027 1151.8 472.474H989.558Z" fill="#7EEA88"/>
<g filter="url(#filter11_d_1353_298)">
<rect x="1094.95" y="574.396" width="162.244" height="90.1356" rx="10" fill="#E9EFF4"/>
</g>
<path d="M1094.95 580.637C1094.95 577.19 1097.74 574.396 1101.19 574.396H1250.95C1254.4 574.396 1257.19 577.19 1257.19 580.637H1094.95Z" fill="#7EEA88"/>
<g filter="url(#filter12_d_1353_298)">
<path d="M1223.56 197C1223.56 224.614 1201.17 247 1173.56 247C1145.94 247 1123.56 224.614 1123.56 197C1123.56 169.386 1145.94 147 1173.56 147C1201.17 147 1223.56 169.386 1223.56 197Z" fill="#2897F3"/>
</g>
<path d="M1174.57 224C1178.16 224 1181.03 221.047 1181.03 217.25H1168C1168 221.047 1170.87 224 1174.57 224ZM1196.63 208.285C1194.68 206.07 1190.89 202.801 1190.89 191.938C1190.89 183.816 1185.34 177.277 1177.75 175.59V173.375C1177.75 171.582 1176.31 170 1174.57 170C1172.72 170 1171.28 171.582 1171.28 173.375V175.59C1163.69 177.277 1158.15 183.816 1158.15 191.938C1158.15 202.801 1154.35 206.07 1152.4 208.285C1151.78 208.918 1151.47 209.762 1151.58 210.5C1151.58 212.293 1152.81 213.875 1154.86 213.875H1194.17C1196.22 213.875 1197.45 212.293 1197.56 210.5C1197.56 209.762 1197.25 208.918 1196.63 208.285Z" fill="white"/>
<g filter="url(#filter13_d_1353_298)">
<path d="M386.558 325C386.558 358.137 359.695 385 326.558 385C293.421 385 266.558 358.137 266.558 325C266.558 291.863 293.421 265 326.558 265C359.695 265 386.558 291.863 386.558 325Z" fill="#826EF5"/>
</g>
<path d="M340.808 332.875C337.91 332.875 335.265 333.883 333.249 335.521L320.273 327.458C320.525 326.702 320.525 325.82 320.525 324.812C320.525 323.931 320.525 323.049 320.273 322.293L333.249 314.23C335.265 315.868 337.91 316.75 340.808 316.75C347.484 316.75 352.901 311.459 352.901 304.656C352.901 297.979 347.484 292.562 340.808 292.562C334.005 292.562 328.714 297.979 328.714 304.656C328.714 305.664 328.714 306.546 328.966 307.302L315.99 315.364C313.975 313.727 311.329 312.719 308.558 312.719C301.755 312.719 296.464 318.136 296.464 324.812C296.464 331.615 301.755 336.906 308.558 336.906C311.329 336.906 313.975 336.024 315.99 334.387L328.966 342.449C328.714 343.205 328.714 344.087 328.714 345.095V344.969C328.714 351.771 334.005 357.062 340.808 357.062C347.484 357.062 352.901 351.771 352.901 344.969C352.901 338.292 347.484 332.875 340.808 332.875Z" fill="white"/>
<rect x="785.558" y="329" width="282" height="84" rx="20" fill="#C7C7C7" fill-opacity="0.6"/>
<path d="M802.558 355C802.558 346.716 809.273 340 817.558 340H849.558C857.842 340 864.558 346.716 864.558 355V387C864.558 395.284 857.842 402 849.558 402H817.558C809.273 402 802.558 395.284 802.558 387V355Z" fill="#E4EEF5"/>
<path d="M802.558 352.056C802.558 345.397 807.955 340 814.613 340H852.502C859.16 340 864.558 345.397 864.558 352.056H802.558Z" fill="#7EEA88"/>
<path fill-rule="evenodd" clip-rule="evenodd" d="M848.212 377.747C848.888 378.626 848.849 380.004 848.125 380.825C840.285 389.714 827.435 390.709 818.97 380.801C818.257 379.967 818.236 378.588 818.923 377.722C819.609 376.855 820.744 376.83 821.457 377.664C828.426 385.821 839.104 385.095 845.679 377.64C846.402 376.82 847.537 376.867 848.212 377.747Z" fill="#6F6C84"/>
<path d="M802.558 350.535H864.558V354.168H802.558V350.535Z" fill="#8A8EAC"/>
<rect x="877.558" y="356" width="121" height="8" rx="4" fill="#C4C4C4"/>
<rect x="877.558" y="377" width="172" height="8" rx="4" fill="#C4C4C4"/>
<path d="M503.558 88.7143C503.558 80.0355 510.607 73 519.302 73H709.813C718.508 73 725.558 80.0355 725.558 88.7143V123.286C725.558 131.964 718.508 139 709.813 139H519.302C510.607 139 503.558 131.964 503.558 123.286V88.7143Z" fill="#C7C7C7" fill-opacity="0.6"/>
<path d="M575.558 97.5C575.558 95.567 576.964 94 578.698 94H667.417C669.152 94 670.558 95.567 670.558 97.5C670.558 99.433 669.152 101 667.417 101H578.698C576.964 101 575.558 99.433 575.558 97.5Z" fill="#C4C4C4"/>
<path d="M575.558 114C575.558 112.343 576.963 111 578.697 111H707.418C709.152 111 710.558 112.343 710.558 114C710.558 115.657 709.152 117 707.418 117H578.697C576.963 117 575.558 115.657 575.558 114Z" fill="#C4C4C4"/>
<path d="M516.558 89.7419C516.558 85.4662 520.096 82 524.461 82H557.654C562.019 82 565.558 85.4662 565.558 89.7419V122.258C565.558 126.534 562.019 130 557.654 130H524.461C520.096 130 516.558 126.534 516.558 122.258V89.7419Z" fill="#826EF5"/>
<path d="M549.058 98H534.058C532.651 98 531.558 99.1319 531.558 100.498V111.739C531.558 113.145 532.651 114.238 534.058 114.238H537.808V117.516C537.808 117.907 538.237 118.141 538.55 117.907L543.433 114.238H549.058C550.425 114.238 551.558 113.145 551.558 111.739V100.498C551.558 99.1319 550.425 98 549.058 98Z" fill="white"/>
<path d="M795.558 557.667C795.558 551.223 800.765 546 807.189 546H947.926C954.35 546 959.558 551.223 959.558 557.667V583.333C959.558 589.777 954.35 595 947.926 595H807.189C800.765 595 795.558 589.777 795.558 583.333V557.667Z" fill="#C7C7C7" fill-opacity="0.6"/>
<path d="M848.558 564C848.558 562.895 849.608 562 850.905 562H917.211C918.507 562 919.558 562.895 919.558 564C919.558 565.105 918.507 566 917.211 566H850.905C849.608 566 848.558 565.105 848.558 564Z" fill="#C4C4C4"/>
<path d="M848.558 576.5C848.558 575.119 849.599 574 850.883 574H946.232C947.516 574 948.558 575.119 948.558 576.5C948.558 577.881 947.516 579 946.232 579H850.883C849.599 579 848.558 577.881 848.558 576.5Z" fill="#C4C4C4"/>
<path d="M804.558 557.968C804.558 554.672 807.229 552 810.525 552H835.59C838.886 552 841.558 554.672 841.558 557.968V583.032C841.558 586.328 838.886 589 835.59 589H810.525C807.229 589 804.558 586.328 804.558 583.032V557.968Z" fill="#826EF5"/>
<path d="M828.683 564H817.433C816.378 564 815.558 564.849 815.558 565.874V574.305C815.558 575.358 816.378 576.178 817.433 576.178H820.245V578.637C820.245 578.93 820.567 579.106 820.802 578.93L824.464 576.178H828.683C829.708 576.178 830.558 575.358 830.558 574.305V565.874C830.558 564.849 829.708 564 828.683 564Z" fill="white"/>
<rect x="190.558" y="539" width="282" height="84" rx="20" fill="#C7C7C7" fill-opacity="0.6"/>
<rect x="282.558" y="566" width="121" height="8" rx="4" fill="#C4C4C4"/>
<rect x="282.558" y="587" width="172" height="8" rx="4" fill="#C4C4C4"/>
<rect x="207.558" y="550" width="62" height="62" rx="10" fill="#2897F3"/>
<path d="M251.05 578.949C249.882 579.863 248.409 580.98 243.229 584.738C242.214 585.5 240.335 587.176 238.558 587.176C236.729 587.176 234.901 585.5 233.835 584.738C228.655 580.98 227.183 579.863 226.015 578.949C225.812 578.797 225.558 578.949 225.558 579.203V589.562C225.558 590.934 226.624 592 227.995 592H249.12C250.44 592 251.558 590.934 251.558 589.562V579.203C251.558 578.949 251.253 578.797 251.05 578.949ZM238.558 585.5C239.726 585.551 241.401 584.027 242.265 583.418C249.019 578.543 249.526 578.086 251.05 576.867C251.354 576.664 251.558 576.309 251.558 575.902V574.938C251.558 573.617 250.44 572.5 249.12 572.5H227.995C226.624 572.5 225.558 573.617 225.558 574.938V575.902C225.558 576.309 225.71 576.664 226.015 576.867C227.538 578.086 228.046 578.543 234.8 583.418C235.663 584.027 237.339 585.551 238.558 585.5Z" fill="white"/>
<g filter="url(#filter14_d_1353_298)">
<path d="M680.558 515.5C680.558 535.658 664.216 552 644.058 552C623.899 552 607.558 535.658 607.558 515.5C607.558 495.342 623.899 479 644.058 479C664.216 479 680.558 495.342 680.558 515.5Z" fill="#2897F3"/>
</g>
<path d="M625.558 497.25C625.558 495.455 626.986 494 628.747 494H659.368C661.13 494 662.558 495.455 662.558 497.25V503.75C662.558 505.545 661.13 507 659.368 507H628.747C626.986 507 625.558 505.545 625.558 503.75V497.25Z" fill="white"/>
<path d="M625.558 528C625.558 526.343 626.986 525 628.747 525H659.368C661.13 525 662.558 526.343 662.558 528V534C662.558 535.657 661.13 537 659.368 537H628.747C626.986 537 625.558 535.657 625.558 534V528Z" fill="white"/>
<path fill-rule="evenodd" clip-rule="evenodd" d="M649.558 513.429L644.058 522L638.558 513.429L643.105 513.429L643.105 510L645.01 510L645.01 513.429L649.558 513.429Z" fill="white"/>
<defs>
<filter id="filter0_i_1353_298" x="336.558" y="105" width="837" height="590" filterUnits="userSpaceOnUse" color-interpolation-filters="sRGB">
<feFlood flood-opacity="0" result="BackgroundImageFix"/>
<feBlend mode="normal" in="SourceGraphic" in2="BackgroundImageFix" result="shape"/>
<feColorMatrix in="SourceAlpha" type="matrix" values="0 0 0 0 0 0 0 0 0 0 0 0 0 0 0 0 0 0 127 0" result="hardAlpha"/>
<feMorphology radius="10" operator="erode" in="SourceAlpha" result="effect1_innerShadow_1353_298"/>
<feOffset/>
<feGaussianBlur stdDeviation="5.5"/>
<feComposite in2="hardAlpha" operator="arithmetic" k2="-1" k3="1"/>
<feColorMatrix type="matrix" values="0 0 0 0 0.675 0 0 0 0 0.632812 0 0 0 0 0.632812 0 0 0 0.25 0"/>
<feBlend mode="normal" in2="shape" result="effect1_innerShadow_1353_298"/>
</filter>
<filter id="filter1_di_1353_298" x="282.558" y="655" width="945" height="72" filterUnits="userSpaceOnUse" color-interpolation-filters="sRGB">
<feFlood flood-opacity="0" result="BackgroundImageFix"/>
<feColorMatrix in="SourceAlpha" type="matrix" values="0 0 0 0 0 0 0 0 0 0 0 0 0 0 0 0 0 0 127 0" result="hardAlpha"/>
<feOffset dy="10"/>
<feGaussianBlur stdDeviation="8"/>
<feComposite in2="hardAlpha" operator="out"/>
<feColorMatrix type="matrix" values="0 0 0 0 0.156863 0 0 0 0 0.592157 0 0 0 0 0.952941 0 0 0 0.25 0"/>
<feBlend mode="normal" in2="BackgroundImageFix" result="effect1_dropShadow_1353_298"/>
<feBlend mode="normal" in="SourceGraphic" in2="effect1_dropShadow_1353_298" result="shape"/>
<feColorMatrix in="SourceAlpha" type="matrix" values="0 0 0 0 0 0 0 0 0 0 0 0 0 0 0 0 0 0 127 0" result="hardAlpha"/>
<feMorphology radius="10" operator="erode" in="SourceAlpha" result="effect2_innerShadow_1353_298"/>
<feOffset/>
<feGaussianBlur stdDeviation="5.5"/>
<feComposite in2="hardAlpha" operator="arithmetic" k2="-1" k3="1"/>
<feColorMatrix type="matrix" values="0 0 0 0 0.675 0 0 0 0 0.632812 0 0 0 0 0.632812 0 0 0 0.25 0"/>
<feBlend mode="normal" in2="shape" result="effect2_innerShadow_1353_298"/>
</filter>
<filter id="filter2_d_1353_298" x="359.558" y="202" width="262" height="158" filterUnits="userSpaceOnUse" color-interpolation-filters="sRGB">
<feFlood flood-opacity="0" result="BackgroundImageFix"/>
<feColorMatrix in="SourceAlpha" type="matrix" values="0 0 0 0 0 0 0 0 0 0 0 0 0 0 0 0 0 0 127 0" result="hardAlpha"/>
<feOffset dy="4"/>
<feGaussianBlur stdDeviation="7"/>
<feComposite in2="hardAlpha" operator="out"/>
<feColorMatrix type="matrix" values="0 0 0 0 0.788235 0 0 0 0 0.858824 0 0 0 0 0.913725 0 0 0 1 0"/>
<feBlend mode="normal" in2="BackgroundImageFix" result="effect1_dropShadow_1353_298"/>
<feBlend mode="normal" in="SourceGraphic" in2="effect1_dropShadow_1353_298" result="shape"/>
</filter>
<filter id="filter3_d_1353_298" x="624.558" y="202" width="262" height="158" filterUnits="userSpaceOnUse" color-interpolation-filters="sRGB">
<feFlood flood-opacity="0" result="BackgroundImageFix"/>
<feColorMatrix in="SourceAlpha" type="matrix" values="0 0 0 0 0 0 0 0 0 0 0 0 0 0 0 0 0 0 127 0" result="hardAlpha"/>
<feOffset dy="4"/>
<feGaussianBlur stdDeviation="7"/>
<feComposite in2="hardAlpha" operator="out"/>
<feColorMatrix type="matrix" values="0 0 0 0 0.788235 0 0 0 0 0.858824 0 0 0 0 0.913725 0 0 0 1 0"/>
<feBlend mode="normal" in2="BackgroundImageFix" result="effect1_dropShadow_1353_298"/>
<feBlend mode="normal" in="SourceGraphic" in2="effect1_dropShadow_1353_298" result="shape"/>
</filter>
<filter id="filter4_d_1353_298" x="889.558" y="202" width="262" height="158" filterUnits="userSpaceOnUse" color-interpolation-filters="sRGB">
<feFlood flood-opacity="0" result="BackgroundImageFix"/>
<feColorMatrix in="SourceAlpha" type="matrix" values="0 0 0 0 0 0 0 0 0 0 0 0 0 0 0 0 0 0 127 0" result="hardAlpha"/>
<feOffset dy="4"/>
<feGaussianBlur stdDeviation="7"/>
<feComposite in2="hardAlpha" operator="out"/>
<feColorMatrix type="matrix" values="0 0 0 0 0.788235 0 0 0 0 0.858824 0 0 0 0 0.913725 0 0 0 1 0"/>
<feBlend mode="normal" in2="BackgroundImageFix" result="effect1_dropShadow_1353_298"/>
<feBlend mode="normal" in="SourceGraphic" in2="effect1_dropShadow_1353_298" result="shape"/>
</filter>
<filter id="filter5_d_1353_298" x="359.558" y="382" width="262" height="158" filterUnits="userSpaceOnUse" color-interpolation-filters="sRGB">
<feFlood flood-opacity="0" result="BackgroundImageFix"/>
<feColorMatrix in="SourceAlpha" type="matrix" values="0 0 0 0 0 0 0 0 0 0 0 0 0 0 0 0 0 0 127 0" result="hardAlpha"/>
<feOffset dy="4"/>
<feGaussianBlur stdDeviation="7"/>
<feComposite in2="hardAlpha" operator="out"/>
<feColorMatrix type="matrix" values="0 0 0 0 0.788235 0 0 0 0 0.858824 0 0 0 0 0.913725 0 0 0 1 0"/>
<feBlend mode="normal" in2="BackgroundImageFix" result="effect1_dropShadow_1353_298"/>
<feBlend mode="normal" in="SourceGraphic" in2="effect1_dropShadow_1353_298" result="shape"/>
</filter>
<filter id="filter6_d_1353_298" x="624.558" y="382" width="262" height="158" filterUnits="userSpaceOnUse" color-interpolation-filters="sRGB">
<feFlood flood-opacity="0" result="BackgroundImageFix"/>
<feColorMatrix in="SourceAlpha" type="matrix" values="0 0 0 0 0 0 0 0 0 0 0 0 0 0 0 0 0 0 127 0" result="hardAlpha"/>
<feOffset dy="4"/>
<feGaussianBlur stdDeviation="7"/>
<feComposite in2="hardAlpha" operator="out"/>
<feColorMatrix type="matrix" values="0 0 0 0 0.788235 0 0 0 0 0.858824 0 0 0 0 0.913725 0 0 0 1 0"/>
<feBlend mode="normal" in2="BackgroundImageFix" result="effect1_dropShadow_1353_298"/>
<feBlend mode="normal" in="SourceGraphic" in2="effect1_dropShadow_1353_298" result="shape"/>
</filter>
<filter id="filter7_d_1353_298" x="889.558" y="382" width="262" height="158" filterUnits="userSpaceOnUse" color-interpolation-filters="sRGB">
<feFlood flood-opacity="0" result="BackgroundImageFix"/>
<feColorMatrix in="SourceAlpha" type="matrix" values="0 0 0 0 0 0 0 0 0 0 0 0 0 0 0 0 0 0 127 0" result="hardAlpha"/>
<feOffset dy="4"/>
<feGaussianBlur stdDeviation="7"/>
<feComposite in2="hardAlpha" operator="out"/>
<feColorMatrix type="matrix" values="0 0 0 0 0.788235 0 0 0 0 0.858824 0 0 0 0 0.913725 0 0 0 1 0"/>
<feBlend mode="normal" in2="BackgroundImageFix" result="effect1_dropShadow_1353_298"/>
<feBlend mode="normal" in="SourceGraphic" in2="effect1_dropShadow_1353_298" result="shape"/>
</filter>
<filter id="filter8_di_1353_298" x="1006.84" y="304.923" width="240.005" height="441.077" filterUnits="userSpaceOnUse" color-interpolation-filters="sRGB">
<feFlood flood-opacity="0" result="BackgroundImageFix"/>
<feColorMatrix in="SourceAlpha" type="matrix" values="0 0 0 0 0 0 0 0 0 0 0 0 0 0 0 0 0 0 127 0" result="hardAlpha"/>
<feOffset dy="10"/>
<feGaussianBlur stdDeviation="8"/>
<feComposite in2="hardAlpha" operator="out"/>
<feColorMatrix type="matrix" values="0 0 0 0 0.156863 0 0 0 0 0.592157 0 0 0 0 0.952941 0 0 0 0.25 0"/>
<feBlend mode="normal" in2="BackgroundImageFix" result="effect1_dropShadow_1353_298"/>
<feBlend mode="normal" in="SourceGraphic" in2="effect1_dropShadow_1353_298" result="shape"/>
<feColorMatrix in="SourceAlpha" type="matrix" values="0 0 0 0 0 0 0 0 0 0 0 0 0 0 0 0 0 0 127 0" result="hardAlpha"/>
<feMorphology radius="10" operator="erode" in="SourceAlpha" result="effect2_innerShadow_1353_298"/>
<feOffset/>
<feGaussianBlur stdDeviation="5.5"/>
<feComposite in2="hardAlpha" operator="arithmetic" k2="-1" k3="1"/>
<feColorMatrix type="matrix" values="0 0 0 0 0.675 0 0 0 0 0.632812 0 0 0 0 0.632812 0 0 0 0.25 0"/>
<feBlend mode="normal" in2="shape" result="effect2_innerShadow_1353_298"/>
</filter>
<filter id="filter9_d_1353_298" x="1083.72" y="348.764" width="190.244" height="118.136" filterUnits="userSpaceOnUse" color-interpolation-filters="sRGB">
<feFlood flood-opacity="0" result="BackgroundImageFix"/>
<feColorMatrix in="SourceAlpha" type="matrix" values="0 0 0 0 0 0 0 0 0 0 0 0 0 0 0 0 0 0 127 0" result="hardAlpha"/>
<feOffset dy="4"/>
<feGaussianBlur stdDeviation="7"/>
<feComposite in2="hardAlpha" operator="out"/>
<feColorMatrix type="matrix" values="0 0 0 0 0.788235 0 0 0 0 0.858824 0 0 0 0 0.913725 0 0 0 1 0"/>
<feBlend mode="normal" in2="BackgroundImageFix" result="effect1_dropShadow_1353_298"/>
<feBlend mode="normal" in="SourceGraphic" in2="effect1_dropShadow_1353_298" result="shape"/>
</filter>
<filter id="filter10_d_1353_298" x="975.558" y="456.234" width="190.244" height="118.136" filterUnits="userSpaceOnUse" color-interpolation-filters="sRGB">
<feFlood flood-opacity="0" result="BackgroundImageFix"/>
<feColorMatrix in="SourceAlpha" type="matrix" values="0 0 0 0 0 0 0 0 0 0 0 0 0 0 0 0 0 0 127 0" result="hardAlpha"/>
<feOffset dy="4"/>
<feGaussianBlur stdDeviation="7"/>
<feComposite in2="hardAlpha" operator="out"/>
<feColorMatrix type="matrix" values="0 0 0 0 0.788235 0 0 0 0 0.858824 0 0 0 0 0.913725 0 0 0 1 0"/>
<feBlend mode="normal" in2="BackgroundImageFix" result="effect1_dropShadow_1353_298"/>
<feBlend mode="normal" in="SourceGraphic" in2="effect1_dropShadow_1353_298" result="shape"/>
</filter>
<filter id="filter11_d_1353_298" x="1080.95" y="564.396" width="190.244" height="118.136" filterUnits="userSpaceOnUse" color-interpolation-filters="sRGB">
<feFlood flood-opacity="0" result="BackgroundImageFix"/>
<feColorMatrix in="SourceAlpha" type="matrix" values="0 0 0 0 0 0 0 0 0 0 0 0 0 0 0 0 0 0 127 0" result="hardAlpha"/>
<feOffset dy="4"/>
<feGaussianBlur stdDeviation="7"/>
<feComposite in2="hardAlpha" operator="out"/>
<feColorMatrix type="matrix" values="0 0 0 0 0.788235 0 0 0 0 0.858824 0 0 0 0 0.913725 0 0 0 1 0"/>
<feBlend mode="normal" in2="BackgroundImageFix" result="effect1_dropShadow_1353_298"/>
<feBlend mode="normal" in="SourceGraphic" in2="effect1_dropShadow_1353_298" result="shape"/>
</filter>
<filter id="filter12_d_1353_298" x="1109.56" y="137" width="128" height="128" filterUnits="userSpaceOnUse" color-interpolation-filters="sRGB">
<feFlood flood-opacity="0" result="BackgroundImageFix"/>
<feColorMatrix in="SourceAlpha" type="matrix" values="0 0 0 0 0 0 0 0 0 0 0 0 0 0 0 0 0 0 127 0" result="hardAlpha"/>
<feOffset dy="4"/>
<feGaussianBlur stdDeviation="7"/>
<feComposite in2="hardAlpha" operator="out"/>
<feColorMatrix type="matrix" values="0 0 0 0 0.156759 0 0 0 0 0.590805 0 0 0 0 0.952511 0 0 0 0.5 0"/>
<feBlend mode="normal" in2="BackgroundImageFix" result="effect1_dropShadow_1353_298"/>
<feBlend mode="normal" in="SourceGraphic" in2="effect1_dropShadow_1353_298" result="shape"/>
</filter>
<filter id="filter13_d_1353_298" x="252.558" y="255" width="148" height="148" filterUnits="userSpaceOnUse" color-interpolation-filters="sRGB">
<feFlood flood-opacity="0" result="BackgroundImageFix"/>
<feColorMatrix in="SourceAlpha" type="matrix" values="0 0 0 0 0 0 0 0 0 0 0 0 0 0 0 0 0 0 127 0" result="hardAlpha"/>
<feOffset dy="4"/>
<feGaussianBlur stdDeviation="7"/>
<feComposite in2="hardAlpha" operator="out"/>
<feColorMatrix type="matrix" values="0 0 0 0 0.509804 0 0 0 0 0.431373 0 0 0 0 0.960784 0 0 0 0.5 0"/>
<feBlend mode="normal" in2="BackgroundImageFix" result="effect1_dropShadow_1353_298"/>
<feBlend mode="normal" in="SourceGraphic" in2="effect1_dropShadow_1353_298" result="shape"/>
</filter>
<filter id="filter14_d_1353_298" x="593.558" y="469" width="101" height="101" filterUnits="userSpaceOnUse" color-interpolation-filters="sRGB">
<feFlood flood-opacity="0" result="BackgroundImageFix"/>
<feColorMatrix in="SourceAlpha" type="matrix" values="0 0 0 0 0 0 0 0 0 0 0 0 0 0 0 0 0 0 127 0" result="hardAlpha"/>
<feOffset dy="4"/>
<feGaussianBlur stdDeviation="7"/>
<feComposite in2="hardAlpha" operator="out"/>
<feColorMatrix type="matrix" values="0 0 0 0 0.156759 0 0 0 0 0.590805 0 0 0 0 0.952511 0 0 0 0.5 0"/>
<feBlend mode="normal" in2="BackgroundImageFix" result="effect1_dropShadow_1353_298"/>
<feBlend mode="normal" in="SourceGraphic" in2="effect1_dropShadow_1353_298" result="shape"/>
</filter>
<linearGradient id="paint0_linear_1353_298" x1="142.201" y1="27.9748" x2="614.383" y2="552.115" gradientUnits="userSpaceOnUse">
<stop stop-color="#2897F3"/>
<stop offset="1" stop-color="#826EF5"/>
</linearGradient>
<linearGradient id="paint1_linear_1353_298" x1="878.058" y1="603" x2="449.558" y2="188.5" gradientUnits="userSpaceOnUse">
<stop stop-color="#CFE8F9"/>
<stop offset="1" stop-color="#E4EEF5" stop-opacity="0"/>
</linearGradient>
</defs>
</svg>
