<svg width="256" height="256" viewBox="0 0 256 256" fill="none" xmlns="http://www.w3.org/2000/svg">
<path fill-rule="evenodd" clip-rule="evenodd" d="M127.86 61.5572C127.86 64.633 130.361 67.0998 133.424 67.3775C164.429 70.1879 188.72 96.2509 188.72 127.987C188.72 161.6 161.472 188.848 127.86 188.848C125.12 188.848 122.427 188.668 119.79 188.319C116.741 187.916 113.757 189.768 113.076 192.767L111.691 198.862C111.01 201.862 112.887 204.866 115.927 205.332C119.822 205.928 123.807 206.237 127.86 206.237C171.076 206.237 206.109 171.204 206.109 127.987C206.109 86.6441 174.046 52.7895 133.43 49.9329C130.361 49.7171 127.86 52.2311 127.86 55.307V61.5572Z" fill="black"/>
<path fill-rule="evenodd" clip-rule="evenodd" d="M61.4293 127.987C64.5051 127.987 66.9719 125.487 67.2495 122.424C69.6328 96.1292 88.7452 74.6535 113.855 68.7432C116.849 68.0385 118.982 65.2489 118.555 62.2028L117.688 56.0131C117.261 52.967 114.437 50.8239 111.429 51.4669C77.8595 58.6434 52.2714 87.335 49.8049 122.417C49.5892 125.486 52.1033 127.987 55.1791 127.987H61.4293Z" fill="black"/>
<path fill-rule="evenodd" clip-rule="evenodd" d="M104.111 190.047C105.211 187.174 103.759 183.977 101.003 182.612C85.0168 174.692 72.9331 159.745 68.6558 141.943C67.9372 138.952 65.1364 136.833 62.0925 137.275L55.9072 138.174C52.8633 138.616 50.7343 141.448 51.3917 144.453C56.6542 168.505 72.9613 188.681 94.7601 198.905C97.5449 200.211 100.776 198.756 101.876 195.884L104.111 190.047Z" fill="black"/>
<path d="M202.697 191.281C203.677 195.142 200.403 198.754 196.464 198.157L165.451 193.455L194.985 160.877L202.697 191.281Z" fill="black"/>
<path fill-rule="evenodd" clip-rule="evenodd" d="M87.5125 127.987C90.5883 127.987 93.035 130.498 93.5219 133.535C96.1782 150.105 110.54 162.765 127.859 162.765C145.179 162.765 159.541 150.105 162.197 133.535C162.684 130.498 165.131 127.987 168.206 127.987H174.457C177.532 127.987 180.057 130.489 179.733 133.548C176.957 159.744 154.792 180.154 127.859 180.154C100.927 180.154 78.7616 159.744 75.9859 133.548C75.6618 130.489 78.1865 127.987 81.2623 127.987H87.5125Z" fill="black"/>
</svg>
